<mxfile host="Electron" modified="2024-01-02T05:06:55.122Z" agent="Mozilla/5.0 (Macintosh; Intel Mac OS X 10_15_7) AppleWebKit/537.36 (KHTML, like Gecko) draw.io/22.1.2 Chrome/114.0.5735.289 Electron/25.9.4 Safari/537.36" etag="ZW5UBhMIYsOI6D2MecIX" version="22.1.2" type="device">
  <diagram name="Page-1" id="X6XhyQP5U0_5dGPSC-12">
    <mxGraphModel dx="1687" dy="1217" grid="1" gridSize="10" guides="1" tooltips="1" connect="1" arrows="1" fold="1" page="1" pageScale="1" pageWidth="1700" pageHeight="1100" math="0" shadow="0">
      <root>
        <mxCell id="0" />
        <mxCell id="1" parent="0" />
        <mxCell id="gMLtziR7z5B5VwTfC9zV-5" value="" style="rounded=1;whiteSpace=wrap;html=1;fontSize=16;arcSize=22;strokeColor=default;connectable=0;" parent="1" vertex="1">
          <mxGeometry x="280" y="20" width="140" height="140" as="geometry" />
        </mxCell>
        <mxCell id="gMLtziR7z5B5VwTfC9zV-1" value="" style="endArrow=none;html=1;rounded=1;fontSize=12;startSize=3;endSize=6;strokeWidth=12;strokeColor=#000000;endFill=0;startArrow=block;startFill=1;" parent="1" edge="1">
          <mxGeometry width="50" height="50" relative="1" as="geometry">
            <mxPoint x="410" y="30" as="sourcePoint" />
            <mxPoint x="350" y="60" as="targetPoint" />
            <Array as="points">
              <mxPoint x="370" y="70" />
              <mxPoint x="380" y="100" />
              <mxPoint x="380" y="130" />
              <mxPoint x="350" y="130" />
              <mxPoint x="310" y="130" />
              <mxPoint x="310" y="100" />
              <mxPoint x="310" y="60" />
            </Array>
          </mxGeometry>
        </mxCell>
        <mxCell id="gMLtziR7z5B5VwTfC9zV-2" value="" style="shape=image;verticalLabelPosition=bottom;labelBackgroundColor=default;verticalAlign=top;aspect=fixed;imageAspect=0;image=data:image/png,iVBORw0KGgoAAAANSUhEUgAAAQAAAAEACAYAAABccqhmAAABJ2lDQ1BrQ0dDb2xvclNwYWNlQWRvYmVSR0IxOTk4AAAokWNgYFJILCjIYRJgYMjNKykKcndSiIiMUmB/xsDGIMjAwyDLwJmYXFzgGBDgwwAEMBoVfLvGwAiiL+uCzMKUxwu4UlKLk4H0HyDOTi4oKmFgYMwAspXLSwpA7B4gWyQpG8xeAGIXAR0IZG8BsdMh7BNgNRD2HbCakCBnIPsDkM2XBGYzgeziS4ewBUBsqL0gIOiYkp+UqgDyvYahpaWFJol+IAhKUitKQLRzfkFlUWZ6RomCIzCkUhU885L1dBSMDIyMGBhA4Q5R/TkQHJ6MYmcQYgiAEJsjwcDgv5SBgeUPQsykl4FhgQ4DA/9UhJiaIQODgD4Dw745yaVFZVBjGJmMGRgI8QH660pDj0e45QAAAHhlWElmTU0AKgAAAAgABQESAAMAAAABAAEAAAEaAAUAAAABAAAASgEbAAUAAAABAAAAUgEoAAMAAAABAAIAAIdpAAQAAAABAAAAWgAAAAAAAABIAAAAAQAAAEgAAAABAAKgAgAEAAAAAQAAAQCgAwAEAAAAAQAAAQAAAAAA2xj/+AAAAAlwSFlzAAALEwAACxMBAJqcGAAAAgZpVFh0WE1MOmNvbS5hZG9iZS54bXAAAAAAADx4OnhtcG1ldGEgeG1sbnM6eD0iYWRvYmU6bnM6bWV0YS8iIHg6eG1wdGs9IlhNUCBDb3JlIDYuMC4wIj4KICAgPHJkZjpSREYgeG1sbnM6cmRmPSJodHRwOi8vd3d3LnczLm9yZy8xOTk5LzAyLzIyLXJkZi1zeW50YXgtbnMjIj4KICAgICAgPHJkZjpEZXNjcmlwdGlvbiByZGY6YWJvdXQ9IiIKICAgICAgICAgICAgeG1sbnM6dGlmZj0iaHR0cDovL25zLmFkb2JlLmNvbS90aWZmLzEuMC8iCiAgICAgICAgICAgIHhtbG5zOmV4aWY9Imh0dHA6Ly9ucy5hZG9iZS5jb20vZXhpZi8xLjAvIj4KICAgICAgICAgPHRpZmY6T3JpZW50YXRpb24+MTwvdGlmZjpPcmllbnRhdGlvbj4KICAgICAgICAgPGV4aWY6UGl4ZWxYRGltZW5zaW9uPjIxODM8L2V4aWY6UGl4ZWxYRGltZW5zaW9uPgogICAgICAgICA8ZXhpZjpQaXhlbFlEaW1lbnNpb24+MjE5NTwvZXhpZjpQaXhlbFlEaW1lbnNpb24+CiAgICAgIDwvcmRmOkRlc2NyaXB0aW9uPgogICA8L3JkZjpSREY+CjwveDp4bXBtZXRhPgo+f2eaAABAAElEQVR4Aey9aZBsx3Xnl11VvW9vX7CSBMANJEGKpCiKkkjKoragR5rRjCJmQvLY4XA45AiHP/nDyOHwTMi25os9H+xQhGM8E2FJMyPNUAsXcacAEOC+AARIEMT+sL799Xu9d1VX+/f/n8x7b1XXe3hogVhIZnfdzDx5zsnl5jm55x3bwaQBM+QdCPuJZ1cJXGVx7UYbAdkNIrqRQCdj8M3tXAFzV6pHAsZ2QQchY5U3O7Aq0C5aAQZDB30jCYZJLoP0E/BgCVxVyQ6SZN/YTxTAyHK5MvDyMlnR1Si1S4G79K1gEaDngGniBo5wa35y1a8eV/wbWgtrsBwbBgzQBk7NOfwkNjtqaxeoijNwhuMZ9g+luGY8ylVnblToT2BVCey9oDoVj584nr8EdsvDAE0dPORqSE0V0oTVwEq8S3AR+LEs6hIo/7K0C17LdtM9kLQXzRPpqhKcdUT4pbCaSkuRKqRZPeu0ZsVX8jUqhXU0g0xG4f4EtqcS+EkP4PmKrVkJR+DWwbXL7XTTC91uwQkEPe3iUYRdtV2CEsI9llpyZ8kp9oikvDJAjXwUZVDypxw20990R+JDVTQVxq5MXTFwF/aPCWDvhfITBXC5KuJaOzowggYRioBXULWGhbzhbuKFW8IdAt7CoZ8EY7dwFGavTrtSBi6UqmSqzAzmNyr0Fav1FQMrtj8mjr0Xxk8UwHAVadTNhtNYpRLnNntXyy2BLmJfcGWLT7EjOgSdZr2NoLdbrUroh5Pyd/UXBVPSuyd+UkZ7Inx+omYZNbGHlcHzxv+8CE3uP4ruvRfATxRAqQ8NaW84HRoVNaB+ZqFWoPzNiixxL4LXFHpVarXuHQl8Fnoz38OjpOFypIMCJKy9VpDIc4mn5LP4B231WgYhL9Tn8iqFl4nrvATzK0ZxxcAXmppXE/7eM/4TBZDr+GBVj5cfFT5C9CwCYEhWAq60Qm/6hcA7UeVtq6VvtW3vpS2t4iw8xbqStL2+eCkp50Iptwmee+cnJi6LzLYksU5rxHO1z5K+Yge/kr7nKcmCdrWRverx9p7hH18FkCvqoBioJpQWXG25vYLI5WdU8uIP3OGKr259p91y9/6FtL7i6gqfhVPC83yCud3fTt1uL21ubaX1TX4bm/6tbWzYv4Z/c6ubZPe2t9NWjx/427j7iof/MZSU0jsx3kkT7Y7d01OTaXJiPM1gT09Optlp7Oyewj85OQ7+uJWbC2fkQ+UTPwcrP/p7gfXVZVLKBlrxCFO7MmDQKmiD0B9B394z+uOnAEJ2s0gP1oWoaLW4Z/mQVNbCLxL8fSAO5yEhVUvfcUvfaghtjmwwmgGf4rQgAo0JwNZAeHh20gYCvra+kS6trKWlS8vp3MXldHbpUjqj38WVdGZ5NZ1bWU/nEfRLCPxqr5+6OZ0dBGacNJLE1MHu4FAsVi7gKJVKQ7cfv20gcveAyUxAM4eCWEQh7J+aSIfmptPhhbl0eHE+Hd6/kA7vW0gH+e1fmE8LczNpZno6TU1OQLm7Yu7s9Kv8Kn7l+YWYogwGaX7cFcELK8Nm2f34KIAhwW9WpAjimYVBIqG6L5zKTakVYZWwqMg1lh9HMMbbbSqyRUpYzfLd5Q6+qA/xkACgNIbNxuZmuriyks4h3KfOLaVnzpxPT505l546dzE9vbScTq1vphVacgnzXKed5ic6aYbWe6qjFpzeB+mSQrKAF+aKGOMn7iqVlSOLqzIWSMbXQ/ntSzm4B9FPG71eWkXJXNrqpYv0JrYIWyDea2an0vX759P1h/alG44eStcePpiOHTqQDu1fTIvzsyiFqYpncfTpwZSyUHoH0lyQRtnNPFThV1AEe5eRivsr17H3zP14KAAqdNTpuuLX9R6YK5Ns4WW/3LmSCb6dWy63ogjtBIKnFn/Mgh/c9Bz1KkTfh178YgJwsJVfXV9H2C+mZxH0J0+eSY/ze/T0ufTEheV0hm69qvV+Wt9Fut1z2JMIu1pxCYt4bvOTgNrGLRhem2zlAhAICOEDpsJVWDMkPMqT0kB09ByktOjx4FFZCK4y622jGFAGK6T3wsZWOsNPPYhrGDrcdGAh3XL8UHrdNUfTjcePpGuOHEQp7EuzMzPNyFxG/X7f+SrLoQMIl/MozwNhStVlzGUDLoP/qgDvPVM/2gqg1OehChKVJQu6qm8Oty0a0wV8mwqp7r4q/Djj4wlaWY3xQ9SD0+XqiCqzWk/1DiT4xfS2e+nM+aX09Kmz6bFnT6aHnzmVHjqF8F9aSWsI0jwCrq72PN3oKRSNaMVHaelJ0LEVs9JZjKvAcD1QuGANPDvrRyFPVISMpnxncBMPtzEGbPGO3pCUUSxrxhBDIiilt0Ev4ZIUAsOXC7jnyc9N++bTG685lF5//fF0E7/rjx9Nhw/sS+Od8So9LjvyKWXTLLsKYaSjkXaH/7goguEXP7JwRgJ/dBWAKmpVqSPvrs+qxoYX23XYMAmZTBE24UnYJfRq8ZvdfGGOKnbRSEBV9doMDYrZ2NpMzyDwjz79XPr+k8+mHzx7Oj1OC79Md3oW/hL4OQRe8chUwp7TWmIbiLN4ItlNOS/Rhm0eGZRx7cNtocZTWAmS/10wRoe+MkPuCI9Q5V0KocDUY2jzK0MSYWkSchmFcG6NuQp6DIsou1sOLaY3X38svem116VbbrwuXXfsCMOFySpKTViKq97F1Q4RnJaKw2UUQZ3pCvPV6dh7Rn70FIDqIG+xVABXRvsFV8sphKikwpGwW/Btq6sfs+Pq3k8xy61Z8ejmq2oE3ajiLq19x0IfGFvdbjrx3Kn0/cefSvc/8XR68OTZdHJ1XYzcnV9A6CcRflXqbVp2t+6koxgJkEUTuxlnjVEwsQsQxJpFA1ihkgeDeZTgbEfuclwODhzDC05hbn+Em5GdBUmRRZjK2FDTRU8qFELL72gTJbC0vuXJS72HGxZm0q3XHU233XxjuvXm16TXXHec1QZNKMpoqLGNIr76XkGpB6UEm+UYPHmOBFahrwLH3jPwI6UAVMfKC89V0ZXdgq+KSJdUxmoAv8bN7kzj7tFqq9WVAE9T4SbpjjbH95erBaKR0Vp/MU+fOp2+++iJ9G1+Dzx3Jp1j0m6c1ktd+hnG8Jo4VPpEq3G73KVlCzvG1cEvXm4ogxJDbTfzaaGrg4oMNiHhhqgWanuchsZDBVnTKY3ZW8pXgAKrIxKvQAxLfrEptoJFJ78DKDcNGWI3ZFe9A80hoBC2EPRjs9PpthuOpXe96ab0tjfclG5gDqFIq3oFEtwYjtVJvZwr0p3LchTS3mVoFLeXGLb3xP9oKIBcv1y5StEbpsqGiOvnv3pGW62N/tRyS/jVvZ+ZmHSrfzWCLzoJa+kdrK6vpe899mT6+vcfSfc+9Vw6s7ZhoZ9lhl49Ca2zq8qrlddfqciqxH59TQlvusEUdpj6RctVw4sbSPwXAvw1VghBHVThZpwQzAgvuI7RZRUROu1iKZoKHnEEm4Cbi8FQZNsJHqARrtgYwS27lIHi1IrDGisNy5tdDxuOz8+kd99yQ3rfbW9Kb3n969L87GxEwbvVu7x6RWAyP+rSrGHxMhr+V4VzZE6uKuWvfgWQK5CqUFSjqFAh9BL+EDdVEmTPAq8w+SX4MtMIvoQ/xviFi4N2PST4MSkVhf7cmbPp6w88lO5+8NH02PmLroizeabelRK0EncIOwCTBr0jaDgdOORvpkjuirwZALx4m4IsaIGHowhkzpoDMw7umrbgCRhxCotis98UditcjkwbjtrvIOE4oObf9A/QmJR3oX0RuMFTT0krDOodbG3vpDcfO5B+8R1vSu99+63MF6hXIBPK/GonDHOSR8v7QPkH91f2c+8JflUrAL3EIuDxglRB9QvBd7sPjgWQSlSW4iT4ck92JtLs1BRdUF2L4Bo58j07BL6ltRfuQyeeSnd+54H0pYdPpGVaqjKe16y1egaiMR3vpnTrK8mt3lfg2csj5tMjCeoE7E4R+KXmCk2EQ0g1DwL038A3anlEcDAwTLgiyQGZrqI3Tg4TlpyFN7bdDZxmWLCsaUVs0mF65Ukmw8OKHJU1FCngdZTBGSYRDzCH8qHbXp9+6T3vSG+86cbq/ej9y0S523nZh+Jw+Q9jjAQOI71S/HtP7KtTAbjyRWV1nXOFVNVVxcrCz5sNwZcdMI23e2w8Ucs8PzVjBSAulzOlEhfB1/Ld9x59In32W/elr514xhuA9s9MRfdT7yALflWl8EuQ8yODAZT35cDB2CM1gVClTN7KE/jFK9vYIS0VWogNofrPYaIMZ4bXgMAzsoCZpvBUJIVHZYtE5R1hcvtfAP/MpQqXL+DGtLtWGo2wwt/4+WGWjsh5VX4l3Np7cIZJ1XXmDn75za9NH/65d6fb3nRztZz4QhSB0j7SxKsYGfTKAe49ka86BRD1K1ei/NZUkULIa+HXrLoqQHS/Q/BVQ2cmptIcwh9iM/qti1/VaoO51d1K9z/yePrkN+5N32QZb//0VJLg71AJxd+4EmZ+lVtV1e+l2IrSgKg3xW2ahsxEqJ8hxKLjJyHI0Mw4y1mdB6PZq0fuhUSBBWWN6ggL6oDwCpOAQZgBDXj2C9X8g0hOJarAgkehtc/hTniD1vglgzm9JX5xtilwxQGuSxK3e1xAzqIInlxeT7/+xhvTb33wPekdb34DZxnq1YP6nZrb6Id5jwhqvLYRoa8A0N4T+OpRAFU9UtWIN6WX6j/ZtOwSRoaIoQzUzSfUM+2ETTCrPz81y2RcdPfFYbjYoiIC9+4+CX6X2fzHEPx70jeY2DvCPvf9M9OeuVdvQpVvQOgt1EUJKALFIBzVkcCNlMuPqZSAqnQ2O43hQ4HJNi75rBAjUH6VQWWGnM6TcBqE4QxEu3nYJzscVYJcxoJFQPDBL7hTmt1BJo9SEnwibiME+QAPI5pvjWfK4CFcfk5ZRnUeBXOYSjQC9N41eajVldPLa+n+CyvpH73pxvTb/9nPpnfc+vpqGdG9Q5g87/mDZnyOlIffYfG80uy9J+7VoQBUFyhzvXhXiOJ2ZZDgq6XXGj6hHt9Hj0Bddr25uanpNDMZ205VCaJ1r1+i+UJb9uVvQ/fgE0+mT3/z2+nLrOEfnp1JBxH+HrSaxY9xPqNShDJkXC+AXx7/mzMB6iFUNae487tyfgLRz2Akp3JYqrZlIML1hJZk2tgWr+LPjhJegiJvQRMCFTQmy8hFoGwLFfhguEBA/MtRCif7DbE/0wouY5KgK7wrmhH0jrdB4/jMR+lRgLnWfAG4OHPcUgQ6C6HNVM9xQOpbKIL/5u23pN9CEbz19TelDnsuZHT+QHVguB5k7mGVuAaAeBzhMPDl9u89Ua98BeAKoXeeKwFlrUrkLn+ezNOUjyaHylhfgq+W363+9Fzd6kM3/NKFF0tIITKPPfNs+sK37k23/+BhJvYm0xFOvUmxaFlqLK9XS1jNRwKvGiFSCXjzZ3jAqrpUwp2HoClhYYuRjKs7NoogI9AxCIN/gCYjWBRwK8zhPERiCG7DhZvdYjYslJVwNsKUANHaDiZBF8DaLTzxjocohsJMbBw9hOZHcTthYiB4DOWaOBW/cOhp+pIHFw8EaggE0xbq8U4rPX7uUjrBKcn/9r1vS7/xwZ9Jr3/tDRBGyWwzh9BGYVzRKD3DpryLYfjL5t97gl7ZCsAvE+HmrxhpeXflqi4/Lx0hLuP97nbXdWiOFn82j/VHtfrBR+vHsYHn9Plz6e7v3J8+c993LfDXcoJN9UQbUiTsZXZfQm7hV5lngQ4/APtzhZJbDLBdh7K/1CcLLMG5DQsc5VcZFSmPClcO42Ibx4/BcJFghGrBCcSABSCHNWiFDDQHI3e4B+giPECZzuVfu01srx41vFImxi98FFfgyWrih9uxZ/ggXqEzJxNnelmSehLpYlN8GSaXlmSlpL/LWYsJ9iX/1x/86fQr73tXOn7kMFj0Ghvv14BRDzEcNo5sGPhy+feemFeuAqDQLaR+naWuIOgW9m2ENMJ1IYYqj+wthH+8zVifVn+CJT5VClUcC2jj3eilxz79MS7N2EjffOCB9Olv3ZOevXQxXbtvkdN242nTwwd2mtFC6MKMwqMWdhgyV6AwS6etGBYU/06eS5C/DAeiLjWE22FKHDAHqtrGCw1c5SJMDt7lV6jy2QwPGp7hMAPxH8Srw4uARRqEZ65hN3gLYB4KNzx4FHrHV+E0wnIazTCHCzfoMi/gVbijD/8uHAiFGo9sF1rRYUyDrd2e0r3ahbnOcu03Tp5P72Yfwe9+6GfTz73rbVx0EkND9RpjG7fJRz8UZ9PEa2pCXib33hPyilQA8S5VoaPE9TLjV8b7Eni1/Ag/Rq2+9ohPT06nBYRfk3hq9fXmm0UjHuottD0RmNIPnng8fe6b30z3PvlkOsA4f5Ffl4qgyUMNCyTskuGByT44hlzDWTVLeKTBQlspA4WRBoUTGrmQnd3Aa1jQNv3Kk8pAjCtlgD9wcphwBBmCF1jwyCUowkikeURZCkO8gquf7gEI6BCnIZwZR7hyYlc87K5hoqzDA99xDOOZV/BxHuwXqWjip6gqd27lC+8qHaCMGV2PuqdY4ZlHbCbS/IC2Yp/m8pSHmB/4h2+7Of2jD/1ceusbbhYWdajH64xtyQaMejhRjQCV68tu9p6IV5YC0DukMKNSRuWNiqaKgvAjvBqPN8f7avWFszAzz46+ab+KUV3+5lj/4spyugPBv+N76u5vc7vNvHeddVEoEvzo7lOxpAD0c8NOIWe/halyq/AjzEJfuRFycBQme6ea3a9hDlN+hZNtLLuLXSsAYWQ88iufHrblzA6HFDh29KKcQlFkPMqwIhSPIDBIvHNY2NkvuBkEkxBU8VN4EASsxjfbEj5gN3lkerEQH+MF3/AXN8KdwwxXqo0f4SpVhxdFUfzZDkt1R0vBHa8EPHJ2KU1x9uN33v+u9OEPvDcdoPcHEw8Lmic5RbvLRJYD7Mh3YbyEgL0n4JWjAPTuKbKoTLzc7PbYPo/xJfzq6huGe7O35V18i7ML7vqLg+jdTW8Uv3oHsfyX0v0P/yB98qtfSSfOnU0HuaVmhq6hNL9ktc0Y0RdRuMuP0AALBZAVgcvZwBIYdkPoixIYEH6FW3glwPykELJfyQz3oG14KRN5MCoTPYrwFr9tAsxHQmFM4sBpn2Eixp+DwwoEuWU8BzCMKw76t1XcYSvA8HjgHgrH7z/ASrT+bGc8EYsm6GpbaDVMCSt8h5SAWnwHiZYSNl6DjzKlWAkTXkYmCTr7Mcahr05a4WjyoxzLfu+Nx9I//fX3p3e/7VYhph7HtDv5aLYBox7mmQNcN0YhvRSwvUf+ylAAuSDVWvmF6Ym7CH8s84Xwl9Z/C+GfYlPP4swCQqqDNnEGv1ncpXJpeW9lbTV95itfTnc/cD/KoJX2090fa6kl1CpATPKpB6/Wn05ALfzArFBk86cAKQaP7+XIMAFD6KPrL2GslAHuIvBN4a9gSrToKzzlP8Owo1xUMhJqyoUgueWQW8YCYztggSVA8QtHmJhsF14VTkawleMRkdHFp+GQ23FmWO3Xe1McQojIHA/+AjedZVk4go+wpeX83wwLvpoHMudMV3jIq+GACD0xKEAkIscRYSVd6g3EPQ9j6SSXsWxwj+Lv/vxPpd/+tQ9wt+EcvYUXuFyo6vCymL1H/PIrAL8w1wPei0bfcqtSMPfPi66En1Y83H1Oh3XT3PQs6/s6ESbB2S38oi3r+g8/+UT6qztvT89cOJsOsJ6vK7U0pJCgW/gpP7mlADSpZ1tuhFIyblsvFrcAVgiKV4ECGklKKGAx+ad0sVOQS7RqoW+6Fd70q6oGTVRbuWWwcVAi2ZYbI5jh4XddF1hlB42gFZ7wMREWbtMbmDFBHuxZNOgzc1tNt+JQy17BIkH2y5nhOCJu+e12YuQkUq3gZB6VDZoVQMGXnWnkKHE6WI9Gz6BkrOIlwkzrCMNtfnZG3ZEi0CThiaWV9M7rj6T/7rd+hVOHMTegXmcsFYvRCJOjcIiK/iU3e4/05VUA5d1QYBJ4eaMyhPBLsDXZp405VBFP9Gkv/yLj/SmP95slX5d6jPfb5vmFr30lfeqbX0XTt5ggnLKgU4N4oRL+EPpia6wv4Q8FkIUftqUHoBhGCX9RBBL8UALFzkJeCXoReK74kmAX/ErwQ+gdRlzmRRZDMUhInAL8Muq9qLzssS1nCF3wMZYEwSjAKrcQDcQqfIPW/AgzLzOQOwCVbdpMp6AGUbw/8S/hmVPGs8Iwvwgvgm4eosmZqvwmN3HE0+Rrt/hQQtk9EG8D5tzid3jOl3IW/wH3xC9hul15jfMF/8OHfyH95i/9vBuSWDmiglzJwMZm7/J4Je5XCNt7hC+fAsiFJcsvmzfhCavS8stP61CEX7Pzwts3u8gGj1jiGy6R4CMhbXF19sX0kb/9bLrviUc8yScF4PY4C36b7r8EvQh/i75jLfyhBMS/9AAcl1t8QyNALS2wSpDlHhB2KYIs9KTJvYHsD3dNG0Iv+vhZDogq/NlWPeWPSP2Msith8uEuOLbD7wCFVeHZk7mJRkbl13QHLOhEHHELz+jGN1yAYdriL3YgmtbviQzadniON7ujhc/je2DBG1s0VaJwaySghiPjVHjmE2l0uApTpuDZKb4GVrb4oPapE2NJl5M8yCaif/iO16ff++0Pp0MH9rs+DtQHkQ+bHBVsXkKz98heVgWgsvLL403IlgJQN1+9AbXiZcJPwq8Xs29ukZcTe/mHS1e0cZ4/pUdOPJ7+/ec/lZbXV9IhdvJZ8BFwCX3d8uOWAuDXysrALT9p0UuW6Ool8m9/uLJHCA7MAotwy29FkJVA3627hD8Lfvb3h8JD8EuPIPODl+EkYbcCUJnlOkusLkPsft4qqHIUzCHAPFo2TGkOU+YU7Mu8zLOiVRwRYP5yY7IVrBVL/Aeu5TXDKtqmH7d5xLsO4Q23GDvdorNiyJE14aoXFnjxLHRyZhonJtxKWMUPUOA7gXYLteDIpfAaZogbA127foIJwmsWZ9Pv/+5vVsuFMbysyzMoGk/zx38FlAb2i+Dce0QvjwLI5e2Xp5fFn4Xf48Hdwq/deprpb43RrbdoDGa4Od7/0j3fTP/pi59nmKBTfxO8W2Zz3epngZcSsDKQ8JdW3+00Qo/YARP3+JFQHI6NymCbp7v8EnoJs+zSytuOFj/G/rXwh7+dimKowyX0gRfKIZTAYI9AdTQLM7GV+hrKQZVd9Rc62zyEk/HkCEi2s7/AIjzzgEGBi5dM2CVcPDIDBwZPv0eBIwHBQ7zszzwb4WJqJVThFFpwc8+g0ArX7gyv/ZlGKVILX/Cw5a79GS+H10OFyIB5l4xCBnZOf7gnWSa8xJVuT3HI6A/+8a+lX/uF9yqA3oDmkPTuL2PMi7CoNJdBerHAe4/kpVcAuWBKK6TiLi2+XoZ6ABpv9ZmkU8uvnX1a4x810y98sVPLv8mtu39z1+3pC/d+I1138ICFnsUcruVSN18tfyiATlEAFv5K9AhX148PatBF0I4wvVy5/ZKJxHMUSh8vXnvIZVtpWSFIGURrb45yWxmEwEvYK4GXEiOcWYiqd2BhN0zwogDEQ9Ux9way2zClx/4Ij3LICoA0yoQaU9kGbsAcELQNuACiMh85VJ8qmJzhkW32OSw8ogO/GVbSIDwnQHSFSKjhDyWAd0iAnQ7BjIq9S/gLv9ouPB1P5hewiM/py3xUwg6L7lG4IzKh2cDZKwpKozYQydz1zNn0+7/yM+l3/94v85m0KdcBTxDTEIw0mZfLcyTCiwW8TPxXwf6lVQCNwo36oBeomX4JVsz4q9svt9bmdU+8hF81UngxARe58otWCIJz4dJS+o+f+1T63olH0w2HD0G/hVLoozz0KawQ/qbgtwlDNK0kxtn2O6m7APUtPLmlAChP9w5Il4q2BUBp3O5zey+QbYBdloz0PT7dFdDVj3VjdcN3GKLEUKAIvWLCjeCHHe6dhr8oDSsJK4ss9FYKqq6usqqzWUG4zua6WsJcZcHJdhRT+KErdVE8ZGQVtwE8lMcCa+I3cUu5O54mkvk16MUohwcuYZXARYzDrb155zR4qU8szEd8M28xaSqEyu0EgBddfSsVJcB0Yds9oARq/g5TshxfTh/0VB+XixoIfX3pK0+fTr/1tlvSf/9PfoNvGewHPSavL3vEGHqbvctoZnAla+/MXzoFkAvCL5K88Dpd2PHFHY3vYp1fCkDCPzk+6aU+ZVs0TeFXRY0CH0tPn3wu/emnP57OXjqXruGFdHsbIdgS/hZCXhSAbAS/gwiPM/Cfnpn1l2nmpsbTdBst31tPnd5yanUvpf7yEiK3mvp8Z297ZTN15sdTa0pLhxPsHJxL7Rl2jM3tS/3pBc4MsMecU8frLE2ur6+mTT7Kua3uuhTBgOCrN6CfFEPYVgKVItDwRspBwi8c9QCyImjYKsZSRykymwEFoUDwZQLXJd3wB9zhIGQWES4/9OKnELOyKx7Bz6hBJ9xMY2j2F1qFmVMTz25xwmTaEG55+FemCk62sRSQwxRc41hR5IIYph3m40SLJw2ME+40KA/BL7y12+nhISUQ5bKTFllJ+t7Jc+nNRw+kf/ZP/0F63Q3XOSMxDL3MkAB6m73LaWZwOWvvjF8aBZALQFYUpDISS33N1l+Cr117U9zkMus1/sAfEH5eXoy9xtKDjz+a/hjh39nppsPzc+wP2GC5jy/40M1Xi9+RwOcu//gYgo97lg0eiwuLfKEGjb69nMY3T/HhzGfT9vLTaad3nhrbTWMsMY7pklB6BGP0CLoXt1J7jiHCDEJJq7/NeLDVnkyd2SMI7HF6AsdSd/xw2hifTavkYWX5UtrgSzjbFvjc1begFyXQzmGhDCpFUA0DBA9FYCUA3GVnGC0+nlroqcDAo2yjtaoUAECVrw11JLYjh9AGUOHilY3dNT8FlDCz4SG/YTnAaRHcCAqs+dcwgYPW4ZXmClyHiV7/pscBTqEfFuwBHGcA5aD0NGnFzGGZTwmr8KKnYMJmGHSOV3hOkJ5ZCWBrWXr/zGR66vyyhwb/4r/6B+nt3D4kc8V5AfMDae+y6jhGP/bO9CVVAO5iOgcq5Jjs8+YeCnW73/OYf4o7+a8s/HF891vs6PtTuv3ztOALfH+ut73JHX+6Y34HQY+W3z0A+ZkL0Geu9+8/xHVenTS9cSZNrD+SdlYeJB1nUnt2H9322dRCu3fmxtPOJunrsvljnm/w7RtP/U3EkcmEMS4W8VifOQAJU9raQF9cSL1zy2lriR7B+M2pN/fatDG5j4tCt9LyxfMoJfJJb8CtelYC22P4s3KoewS1cijC7zANK3KvoAi6wlXhiz/crq7AXV0JwwgHP1U9jGkKXgUKXLziY5qwah6BGuEFj9AqDoUrXv/kNsD45imA/7MtSwEOhC43yAUWfApuCGozrCiHUAxiEwwqnCz44r9beURaHWa6pj/iVGKDV+Sj5CdsHRpiLwp17vzqRjrL9e//23/x99LPv/sdQn5+JbB3WTX/0Y+9M/3hKwDKVEYFGhVRhYxQ4NdSXxn7d+lC6wIP7fAr+HXLT2vI0KDs7Lvr299If37H5/hMtfbyI0yM+UP4Gfcj8NHycyEI7snWdlpY2Ofx2r50IbVOfhfB/27qLHZJzwJRcannNB/5RAG157lE4vBk6l7Y4C2jTOZQNgwPxugJMCNIb4D9B6xIeJxPN76FICfodthBtrN5KW1fvJh6l1AY7Temjelb0kprNi2hBNY31mAnJRBCjmrJCoABSaUIgOWhwcB8gYcDauHr4YCKNJRAbvldYakE/Fd1HxzhScaozrikNLJtuNwKK/DADVihM0rFJ3w5LMiDN2574e/4IlKjK25H64doA7mG1TQOUgZEYzvwdwkxYeITXXNwqBuO35mP3kDVzQevjhOsTOtEVWFKU8GTW0lv+MObYdGISwlolUm7Bx88eyn9y3/y6+lX338VKwTivXd5VUpGmL0z1KL6D8+4IKM8s5O4UAQUtnsD+WWo638l4Y+tmNHyf/6rX0p/cfcd6Rjfpp+iVe73uwPCH61/KIKZzk46cPB4OjI/kRa2H0zj/Xvoqp9N3WnG8B0+Vc098zxSiyFHmxlDZJHkIfj7uPCzi3Ki9U69OB46pnEjpbXTRTkwC9jfVA9hf2px8cgOSobZQ7vb8ysMEe5LY2tPpum5n0rTR25I5/QNwJWl1FVJk3fVXFXeXTWhzCard2G3kKLkpDxjK5PoMqWZgGt8Kiw1y1Wh1IcgDQIThbAbS2SEj0ItPGQLxyYjmqYQKcA9FPgQoJ5KoVWyQ0iBkE6lTUZP+cIUmPwRglYVgjJbp09Da8EoBAcxLFN8WhaWIDJtHOVpGsKkCFjFsRKALEyUzg44KjbnC5tRonlGSsLtJ/nSK1B8gSAiAMoLxFop0peQZ2gcbj28mP7Hf/c3aZU5o9/6lQ+4oYo6q4QPmRLREPjl8v7wFIBLLrKlAgtvFB462hpeSkBbe3VS73Itf1P4P3nXnemjKIBr9i14rK81fk52snwXY323/LzRCfwzE6105Oi16ehML02dv5P69L00dvgw9jWpdWGNbj/z+ePM6K+SRlUKegHeY6R3rIo8wW6wLpVJwq55h3EqEF3/7RWq2wYCT0XtT0ugmDNos1EJYvHjJEFqd5g/mGEScfUOFM+taXz/29M459CXOIuwRUH0VBgW8OZrV83Q5SYlTH79ouTkVrkJIreqlpSCw6uaakD9COTMM1DFwIIpLLltGShIDSOgSorgDb+Ex1Fm22GwKPqoSag3P1YJjvirjEAGvmNJlBuI3M6QKYBFHDmTFUut+ph2h+82TsymsS3KmSVjSbR69Hp36ms6LZSSeg+C6E90EbNizD7qipSAjGDFGL9SAtDmPDgvIImbvh+pbxRMco7gbUf3p//pP33OF8n+4w9/iDrJPA91+4pnCEpkL6P9w1EAKp1sotjloUh5SW75AcouBRTXdBvDLzBI9cFMFWC0/B+/4/b0sa9/JV27n6O/TrVm83kJvGl1+8c94aeWv881UK10FOE/PLaSZldvT50jZ0FE8CfpMWii8ABdetVgtntOHGYIMDNh4U2a9JvghhgEfmd7C6HeIs0IGwpqB7rtFX5rOiE2lcbnF+DF9D9Dl5YnDLU9maFAl49/7rRZOTiMgkA5LD+cZlaXmT/42TS2/0i6cOG0a882yqvkM6oelVhVUOnCVrz6U4OYuyamUxirkTZku8iHwITngheP7LTDQgGKcXiEdGQc3gsB+hNALEye0QqbGI41wgtetiUgIdCwMQNZ4hnR1K7iD0iEZyURsq3KAZhwLLXYst1S427T6rdb0+no4iHefzs9eYYlX96VW3uQTOnWH57UBfMXvXg1BN14yq/iURw5zPg8lDqFKl+RHblzgNPmUNIy5k+X6Ubidx4/kP7go3d4H8vv/Mavuu5ecWJQkb3MRln/oRoJvUtO5Ye7/CTcqiCzTKzFJh+9irpSqOAq4b/zjvTXHOq5BuHvaO8uLaWOamuHX8z2x7hfSmCWYYGE/9jkpTTf/hTd+SWQDqQxhgMar3dmqUBzjL036DUwhzA2OZ62+f4c10iiBJgIbDEc6OxDlvk89TaKgmW+nT4TgzszCL9SOAkbdebhx+YjmKf21EEUBNeIndEcwFbq03PYGZskTk0sHkDxPJOmN+/ggtFWOsBEJLMEGu0zvcC8RvWjl2G3Wi9PGVIv5ZZwZJusx05FlRXxy08K4pdLr8AEtBHc1Tx8Ds8UBVfhAQo7Uzb5K7/ilGW6soUjI7hTkHnWcKCqZSCEQsg8mvgmzuHCQ6gyyDSmK/TQdSmT/Xw4dD/fBxwfn7GCNr7pxDh4KOJynZt4+Po2Iwol42W7RGg8YLHb04lU4it85VVGZDIqFR0h79I7lHkHPYE//MRd6U8++mn7NW+lHuQr1bz4PQDqZTFS5KEnw459/jH5JzRd161xXKlcFZ263Lnl/+Rdd6W/5Bz/dQdC+LUVpwi+uv7+ufXfSUzwp0OHj6WjU2tppvu5NH6IVnySzRqapCMx6il6Eg/H9hpDBc3wb2lrDxN79M17nB3Q1d8t9giMswGp30VRaMyf6CGgeFp8s749M8ey4PnUXWEpUAlhtj+B01s+n8eTKA2a6P4GcXJngVqX8YPXMHy4mPqn/zbNdj6Y+vv3p/Pnz7uSURrwV20qYqoJLfkhlMIkb1Q/ykklmYWQUBnXQR6hZHFQKz0Wz2HUSzdssIkK6/eR6SpuehNhCj+CbGyJbeWP+ONtDvI0gXH1kE+pteX0B0wAhShHOT/qOQjTNIIrHCOlIbASL6gC+Knn2Kan9ezSRVpebcRacd4ssEIRHvJmKhVhnwdlKKMgF6tgYMhvPB7uaWQ5NV4OwwpX1RNo+km5aOEkJVdunboNJfAvUQKaJ9BwIJTA82wddjwv/ePFVQAqzWzkzFXAhRRd/3oCcHZSn9QK4S80spsbKj731a+mP7/7boR/sWr5KVPoaHeplfHT+B9hZp3/wMGj6QgrdRPnbk9pHwKWjvHuEURpdA3wx3TnG2N1FE9nnk0759j8w5mBPpM5nTbp4YKRbW6I6S6tMjcALtuQx4jQFYIKsHn2bGpPriDQB1AcGygDIqMGrD9zAmXAvoAFhgUohJYSiVEZtKc0UYiiWe2ni8/8IJ07Tare9yt0HjbTpdVV46hqqhKVn1p+j2NJN22Y4xBESiC4qo6HEInWrVmOUBgSAlVMpVtc7VC4DW8FhEqohSQiHsVpfmKQjVwKkwlhFX28XcVleI6GYsr8lK5cA6owYIpM/0qDUS0+wVd4FUMCQQAUNGiz6MIjpbz/5Y2LbPraRCFIYQITXY7bPQ5AppWsi4M8QpMXWPDKJPjHUNpStjZilZ3yi9RPHEpf7c95DIACKyXwtiP70h9+7M40xY1Tf/9D76feacJaDZsTZI6vhMeLl5pSCDlXpeuvglc1iC2TmvTrM3s/gcBJ9wwSSUmUTT5333NP+pPb70jHmfDTzj29PQm+hZ/Bb9nf7zkAWtF5xuSHF/gAyMq3mLB7hO78obSjXXk04P1N6JnN36HHvs2353d42R02Dumef7Unfdb81Wpvb/I9AWb+W+Nz4LIjcY3lu4ss76EUeLtpnA1EHS4UGaPS9cHtr7EE2CVPl9YRfPLI0iFbANPWBXYTsorQnpqL0mBOgC1IaXbheFrc/k7aevjedPDgQU8eaShQuv4SfHf7K7uohKatlOgXAqsIwo+No+mOyAXJLoeH4Ak5eKgSF4yCKF6BZ35+ZB5YFoEGkZzVT2jyG128sycAGTEsEUV4sYOuwGqmCicMJaA/1aVeP4S/1CHVG6c5J8S46gIpDtFJKxR/BcvhoiG4itcZEE0jPLtz9sw3Mim8CurM66yI0vPmQ4vpnzMx+Jm7vmq40qA6/koyL24PIOesFvoAeLMPQO2i0nLfhL/QMlgQUhguR573fP/76V9/5vPpKEd5dY5fWn4it/w+yUfLIluz/treO0ULq/PasytPpbGNL6dJvgLTnkSgt/hp0q7Fkh98dzyel0JQt59uvTf2tJkIPE6Lv5a2Tp1N4/Q26K8j9PQAmE/Y0UYeegia8GuhfVpsUSZBLBsyN8BcQHeZrccoBu0aVK9A24fVvLQ5LNLSnfQdlIm6+f1VlgQ5Z9C5jmXCb4B3bdp38HA6e+o5Wh4pIt11KJu2njypkus8Ax7+qWT6UxmRb7tVNynCKDOpWEHxg6vyl8d1Vq8AvzBsBKwQwLGbkGBkXGM7zkAtQcKp0SPyyu8w0qBE6R+/6BReopTtZODw+xYNWPiy7RTabxonS0SZTA61ABrOmbEAkW/Hh/Kt8ukQHqBL4aNladUJ18Rgad0l9CpisZGRX2kHVpIaAbv9VcZE7cgbNtT6cKnq7hsOLqT/5T98Ms3RW3zfO28DN9Ju5VKYv4w2WX4RTFWCUZh6CQVUxv3q/mhJZEqbaoaMXqbwpSEfPnEi/dEnPu2Pb06xxifh18QfpBb60vLH6b4YBiwu7kuLY7QIJ+5CIOfSxrPdtHEaoUUWWzoSbAFjll7CuC0B1j59dvlxhXhLyoilnB3N6FNJdlhX3mFfQn9zHSWgJT4UBbA+W3u3ztHtvLTsXoS3CUM7zkSiuvx9ehtbFzhDwEufvu6YlcHqEyeYGHw29S6cQxGtE0YZeMWB2C99Oy2wbDgzSxq0lEitRF25B9CS8MuPLeGof6qITT9uK4SAl2KV8ITYhC0RKRXO9I3wClHl73cQXIQnSKELKJCK1tj2B6XCCk2BBL58FZ9MH37BHU0ko2Ie+AoqiTK+AYLhoDV3q69W3S18wIUXuMCzW/XKMAl4pq1wTLubxkp3BC/xLHyVPDz5H9sm+8HTLtAplqyuodf4L/7kY+n+H9AzVV3MSiATvKzWi6MAGlkIYaYi6D9nVMKvAlfXf5QRno70PnfmTPqjj37Sn3SaZ6ulPscVN/VGi+8hAOWrEYFP6yEw09riSwFPrT7KGP5Jb+vdfHo5XfrmhbT68Bp9fmb9tUw3sYhQItws/bV1oxCtd+8im3PorvdWmaDjAyEa0/dWVvFzAIirwrUdWF15DRPU4qtF14Ril9OH3fMXoGXWn6/S9lEgPQRcPYUxlid2WOjvs7LQmWaOgHHqDjsBdxiCqDfSYu2yNb0vbZ15NHXOP54WUF7qhlnoJfC7hJ6yaQi9WpBQAq53brFyHQxZaRRwqZICNd3hF58wrtPFjV3gwTwAu3EKfcEuthjhbnhFa2jliGB7eYQwZhIBhS9LYUEqT4VXwsIOvAjPdFmoBfPP/qwECp8mDu6gb+IXWLBwQsxPcRAGoKS7kcTsFK300hgXjfa4m2KSYWwr/e9//FfpxDPPobi0MiBl+fKbv7sCaOSDuomhFc0wtevuAQCdRIBcYEN5jomRdlpeXUn/+mOfShfW1/kQ5yxXfvOVH/b2692o9Y8fokgrra6xxs4dAuc53LPQWk/trXtS59ANjP21vNdJk8dY1iO8ewFBX0ZoEdbumQtuyftMwPW4Mkyt9g5LeegeBFQ9BoSWpSV3+1nz7/N14B269T1a/R49gBaThO5OanMQQt/lA5Tb7AfvXkLANa9At9/+i5wqROm0+eqMDxYx4TlGb6Ezt58lAZYN55gD2Ye/91CaHdtK07rshCXKEGwpAS0P0guwMsBPOepFFcFXEboK+oGb8pZTpqqj4S11NYcFlp+ZoEmXSYK3eAngHkZgFd4KECTSo16IEMNEL0BhEpACxc7uClb8RinCVICmhibglSIg2G4xyWFhB9yVJUcQ4/5hPJSAKlKhpX4UfsIvcNfT7FflKDg5hw2rkW7IYSAWlZEYtKFfpV4dZzh7knryr/7dR9MFtozruwOaK3i5jerV3k0W9MJAAl9AatXL2F/j/lE7omLSTwXRS3/6qS+k+5496Rn/Nc7X6+puFXwRfrX6eidqDeP+vr7P7y+yHjzZfRoBW6GLP+s1+vYs8wwHptmBN502TzPbz3fh+usI8cU1egFanqNVZtzW5/tinflpuvxUYgSzxbmCzhQtOHsQutwO22LiQWloq+WnN1INDslwT5OJEjy6/D6Mokql1p8w9QR6HBJReAtYj9n+MVYUJvYdYG5gOk3w3cHZm6/HfSaNrz2X5lBizl8W+maL7zG6GPGzIrBAhl/lLlglXAKMMKqT1U+Ohj988cxBFb+CJ2Jy10AywH5BrQgcHDhNISjuOrgWkiosB8pvYcsRO9xARaIU8OdKkHkI5vDwm7YIrkma4WYe/CsaYMbP/Itb8WQcxVt+5t/wg2Zjy3B5hV/bvB3X/UvMDd1yZH/64qNPp//3I5/yPRJSAmoAX07zd1MAjZRL4NX6+98Wk2ce93PAJi+LNdCpzxLkKMGPf/Er6eP3PUABHUyrLKNJ+Mv9/Pl9449hQLElMDOc3ptlXJ3OPUC8M3S5URjsyfcEmibg0B4ttvSq9d1ehx5lMU7XfmuJbjsCTIhn/pVmtdg0ucg4h4JQApo72F6LDT9SBBo+dC+xbKdhAUqkv6VNRewapDvXga8mDNUrUPdujJ+UgHoScrcYcqh4usvLKBL8HDfe2UbhMB0yntgkRB4mdASZ3YEWJrX8jdbfMBLp0rIiiDomf/xg7sAo4VIXi90sd7krVBxBn2FVAP4cFvjwN51KTGHyZyGxS77AkcuVwPRyC99W41HTGt1IzWARi0h4cmZ/gRk/0pIRAl9opin4QWv6aPiF4HpR6IK3GhtFB7VbHEdgv/ANz2nYrQRyXDlN5m+iwsOl4fp8kavF3nXt4fRHX/pO+ovP3CkE15eQHXtf8sfeFUB53yRZztL6F7eEX+P6SU2yjTDWFxTU1+9/IP0/t38pvfnYIcZLXbSlWn29CAqHsi09gEoRCEZs6v7PMMae3Fpigv1hNCk79LqbMd5nww4rbxh4jTMb73E5QsuR4d4aOOqaSznQeqsueyegNDGNfG8VBcTegM7iNAKrllyz8qo9sBOOWmmUyySzu+1phjVkpM+wRbP/midoc5qxA/8W8B6fINtmmKGThFpl2DjJPgIuE9nW0EJ5OHAEmjNpsr+SJpWmYaG3sEfLr0lClbKSEcJW4JE0wUu4nSMeQRuYCq5dgRzhNaHrfPE2kI1nJQCPkBxzszPjO41ZURgEkVk0+FiwFFiF8d5zuKxwByCiUbiQsU1XwmQLprCgK3jym1GmCzcgVajCy+6iBIQf71vBBcd2k6bJTzEbGXxHGGTyVf4MX2E48MEbjqT/+a/+Nt39zXsDhWfIQ+V9yRx7VwDNJA6lXi2wFIGW++qCqQli3N9KTz53Mv2rj30mvZalNx0PFk2s58ou3X/d1VfcGlMRxm+cybRZlv86WycZT7Omr/36aoFn1LJ2UvcsrTWTcW0mCFusJkwcnEtTh4+YQYs7BMYXoUFgt2nZAUYrzhBg68JqWn+OXX2c8OtwinCbSUAt9XlM2Ub4mZdoczuQxv0aJngeAcWgll4J6/Otwm2GMGNsABlj6KM4NPGndIzRk+itMT/AluPxhWOpNcsuxTHNX1zgw6Z5mGQlIOGOsb+X/lwyqkoh9CpJ1c0MlsvGsCZQBYoJeLhHAepwCPDIr1bJLZPebfk5/hq74phpFBJyYJd82Z8xM15JkLAKguWpoDkgwoqcVajioXAeg2ERUAQ/wgpM6BLqLKjZLrgVI8FLmlXJLoMfdA7mobQ4daCLpukXHAPMdZtw7YPpMQH4bm4U+uesDDz2JMNX0ha1P9BfyufeFECuWEqonEp8AWlcr7H/OAIxatzvrj9ha7SMf/TXnzaO7uJTwcSnuCmvUo7ZVgwq11IRJQgdjak1IbjxDJqGDTes3bc4BNTiZN42s+66wKM9x+z/NDCES0d+x7neeRxlsc1nwvSy3N0j4drmq92AW2eZR0CRtNlQpO771OHZNHV0Bhrsaw6zb4BJPlYRunw4QnsJvHzIcKWzQKvPXIIWmBV3lxuBNOyY4GOTWgnQmYPx+RkUBxeXLF8AD0VFx6hFvJ0F+E/rdhmmMKQwKDvn0yUapVsEPze6lEVp/aNcVDYuHxVcuLCbBjwjBEyVvJgCN6XKRPHyDisMHC6rTFC6q4Ff+GEbUFkOGOCR6YVXwSsyxxrvveShSpgISFcmCiErHjHIYQJVPxwisF+PbAwrYaKLn3lY4BEH7CbcYUN0zoNgJUKHRxyOrfIrLsHD1tuUTOgE4TS9yA7u/+NP/5oJ8FWi1VySMF5a88IVwK401gClX4d4VIDlY5yXy86ffeb2dN9zp9MhPtC5xQRbNekHbbP1l1s9AOTMv5gA5KIPxuyTCUHfeZYKSws+w+lAJtlbk5wMRMjHD80jgKzR0/pyVJAWfiptrSCYJEibdHbguYMAqjVXq651ek8GSqA1GQh+Z5HzB3PTViSoNW8Smrn+OuJZTNPXH6QLz9IiadekoQ0vUT2Rceg0OdhjZWP9uWfpVVzwEGCHWd/2rC45Zd8Bk5A6LNSeYu6CswsTHS15ogCGWv4ikNYHFvyIatRTeat+qnPyXMZYkJph4JYWvwiAKmWz5XS9Fs/6lVccBHZ0laMKAg6wmZghHPMFp2KLphtED/oalgVXnM1LD0XRwLOzDo+gEh74Ii55DbeYUNEy3F3NzLPAShwgDdAqvPpFaoSi/2zCpTxq+LrM7tLrqKd3P3GSg0OfNY55F/SXyH7hCqCRMGVGlcYvjke5gGEcIVB5DBste6hC3X3PfelPv/Ydd/03tdZPgYggxv6DNsN3H//Vuf84+y9FwD4+PON9zvWPs8EGwWnP0ONge2+LVn5sUoN5lv4QwLIs1WeZTxN027TeavH1njW7P04L7KvAeBnT1+1jDM9RE7r3muTTeF+1vXd+KW08qXsD4UevQxnucRjIPGGk7cCaR9BuwQ77FzSM2WZeYHtdfDbYmHSScwTnPWfgFQWGJt6cBHvmHFmdOJdaLEeO00spXX4Vn1r8IhbFVuQjinYQVgrf9HoLNUXtqqFGB5eXSXmBoX9s4WqiFjWQ/aXSC1dog4IKtDLmiW8wPvkakIZTYMdoO9hUAlHhKX7w5OdRwrPXRAEzJPzimol20Tb4FBwnL9fHGibEMCVuJ6LiS3jNPMdXUTjIvsxGRa06LCXwzmsOpj/83NfSHV/7FlDU/0u8P2D0DF1J+7CtlA+YGiBFoO6/uvGjuv7xbbVOevb0mfR/f+Jv043c6CPxUiFrfG3ht5tKJT+FpRl/7QWYQGB1HmCCcO3k5JYuryx02F6rDTwtLutUF77HTH9nUYdvWNvf4Qy+xvjc79fC1uz+GGN4bfQhmbS82pego7tcP073vMUYXfKuD0F4Yw8z/t3lVYSWQz5zTPhxOlCTehcfeIS9AZIVhgjX0gsgrM+Y31uF0VbqAWmVoK1bhsijlGIXxdFm3kGrBQrXygEzhwwn2D9AHnXvQAumba4Qcx1RAt3fj/KthX+g8O0Rvn71IExgcykBlVchYcQXnCCsYKXCC6zrzlpjHJXWPUaUu4d2+NxLwO9CzGwygxKr+SoLxUT6eTbiaziNZj8PXbhhPGkY/ktUSpvzmJkYXihdXtQjYThNcpucp+ZSZAiNQNzBOHBEIJMVBS5DlJaM53gVYTamy167hVezCfbiYxqFBZY4+r3K7/fLRiHq3/uOH0z/67//m3TzDdem646zi5Q6okbkpTB7jkX5La2/ylUVRK2qjkAOG2m1Nr0C3QHwbz/xBWb7t+nCazsu5UAhFSUg+qZfWlLdJSsButS68XeGJbppLvYY1/o7s+k9dtdpPO4ddqJnQq/Fdd2agFPtabMLS4d5euztVxdfE4CevdfqhGbnWQ7UZB7bDhFs5g/UkrMUOcFBjolDGlNEa95i2DDOrj11/yevPcSYH4WhCUTepbYFe8jAqsDOBoJNz0PaRNuLVQc8FzDDfQLw7W9yjHhKHX1QuFk46VTkrG4R4mIRCkD5HzQqJUVD+Va1LGCC166o9IINm5ouQhRDgSm6EAwVV/CII9ravKVTmEyWWhloTgelxvFt0+d0Ol3DSc4JqLMihJIPBeIvNMXONAVucP1wqMsGWCkjpdYpLhFVaVIUhNifIxAddUmg4GOH8QIXGrU6hc6Ieh+78UUfPBSP/ot/kKcTLQShhRWggBim8zHaJajgP/rzT3CGIJaSyztpEPxQnFevAOqalhPSACD8+tPxXhXGsLEGBfjpu7+ebn/4BFd4z6AwKBS9EKUgF2gpWBWWxvw6A6CtwO7yA5hgPD/Jb4GWdIr1/Z0ukydzEiD2GjBj32bCj2Y67awveefetk/5cbcf23V3EGyNwTVml1LQNQQau09fy8oAPQS1mP8t3AAAQABJREFU9jJa2++wMUe50/i/w8SdegZ9uuh9zv1LeQg+eYgLRdmRqLSq9d9mjdc8OBY8dew4aZrzNuFteigaNujgUI/hR2uKrxyRzD4HFXbcuhIRl5qSMPeCovgk7LBXKlROuIsp7mIXeNMuwl3DmtjKWTbZGaEFR5WZBFoZpbR/6nCa6iymhakj9MTUQ4m/wsIFVXnCIU5Vhc9sDVNwiaZ2NGDhVAxyGZWHhU20wybQTFRwHK9ohOtweeyzHXUsgxxkpIKc4yJu0TR+tT8zLrQZJ/g2aJR+h2XW9te0cskIZ4sG8ThD10888Hj6+BfuNvyVpwCcrHio3qjVL7Za/5iso+IMmZ723qMYHnv6mfT/3fH1dAzhj4KNzLvgrAgoMGvoGA5I8K0AgGmCsKOhAK2+YDpjPc9k2sQcPYEDTNYtMHNPr0C3+SB5MGYOApod1ua1BVirA216HNs6BUhat7jFdYt73Xvc77/Njj0vw2jIj4LQ3n4ZHQLSRiBVjw4HeCTAWjXQWYKelQXppQehHX/Kj/YaaPOPCCT0XYYL6uZ5glB6iTkBTT622byklQSV3ViLHgAkvYsoH9Kl+qLuoqxiDCuebBcM4TVx5Rv01+HGdWBg1P5gGlDwc4Qddin1OZ34RhTdzQeOMlGro9yUDYhCGZUucSp8gmt+Grg7pMRlrByscjET+Zsk2W0a3IVWdu3OxBVtDnNiKwZCEoP42Sl35il+qsYlONfJZrjTleld4nZnGiwb6GVslfAANZ6KJOLVwaE3H9qX/q9P3JkeeeJJ6nJceNpA/qE4d0vsqGj8ViIgnHpmoDQBRhckDhttBurQ1daV33/2ubvTKuOdGSbeRCFhL5mPlxovS3ApEwm6BN+HgUil5hXG4aXPhQl/kg+HTHEMd4wv+vSZhNO6WpuwnW0t5fG/cIAJPnb+qYfAIR/1BnTKrzOrq7qIg653h+vCN05fSssPnkqrT6ygFFZS99z5tME+AO0lkELY0DVfbOLRpJ4mBnUhaJ9zApun4oQfjIlaM/5s/VWPg81IPZYBtxkK6OMi6mroXoG+FCEblHyVuIYOHA4aI0z36LXYeGSF5W5RLlcXpqvPcLHib+LUwYKW30jKBlnlrBziE1SUDq39XJqbnE2n6LVcQrGt07MqOzfrGIurOTwpsODWTIfc5VewivAqRHIi08QxDIAFLYIdXiEaP+qOYE1ZK7QC2m0EcCTUxhVjM2/YOBVq+LAtcMCK3aS/LJ3itSnpyHEWcLZLT/ff/PVnLTNaSfthbxW+OgUwlFB5XdF4lIm/+kUGcrNe3f71e9PfPnQiHaHrrLGvCk34anlrRRCFq/LF5XAJv8ZH47Suhb++5TdOl11qepxTdePTGjMpNhRAi/sD2GTTGeeEHaf/Ouy7byPwWnLjil9PxFlfUbBtDv10UAxt1uj3v+8daeG2mxifbzLuP0QYZwjOcnBI5wY4+CNlMQ5+m+VB3Ra0eeYSLTnXkh+hq6/PhO10ODDEZ8S49UenB8c0Vp7UfoNeWn+aJUBfPzbP6gKHh+iFaN6hxYQfHxDwnYTtRe4U1PEmKQAbF0IlzE3YgDvQAtR4Unr26Vk41sFDkIqH4PRY1BNBAWz3N9LS+qn0g/Mn00V6NFO8hx63K+U3bzvLQo6tjkEus614F0DGacIzKKwIKCls5sMMC50jdi2pyVxxQBBODq8DA1bqkJGML3j8IkwxMoAizP4RdvCOhPjJo+CWsPBH7IqgDi+wpi0G4df7P0idvP0HJ9Kn79QlIpR2bmAD48V/Pv8qQHkbSozjj0oipysLhTRy1p8WT63/M6dOp/941zcYS+oWILrJcHFLosJ1L2CogIALZ5OlsnGm+ydzT2AW4dPtv2Ns+In4EB4uhJzkGq7W7CG6+QdpRblwE2XBtSP8mITbYXvx8hMkVId/NOHHEIDewTjDh/bkvLvsY3Rzx+gZ6ICQZvy12adDi66hQXuS/flHtMTI2Jcu8fYas/mzCDct9sShgygGHfdlufE8y3j0PrrsIuxzCcnkEXom4HfVZUYxba9up42NS7xozhmw6UcTlMLXCoAmCvt8XLA/xpCDHpPKVPfT1cXeHNFHTanD9BaubChOeGYckRd3EwRSVDSVL+VPeW172VSbrbrcf6+hkHBi/4JZVHwy0wbvhtOxFH+ZDJdfprCINMqnupDT20TC7UlzpaFQCdHuTCAcYMqrsOKp/ODESK0ZP8/ABzieUT6Rd/F3XsE2BYFOk3oNtF4uJwEKYzGXiSgdd/ATTg5QWGWUR2LJ6TBdDjMaNNcwTP7jz305vf1Nt6TrrzmWelpepl7/MMzeewBKLTlVKz1s1G2R8KtU/ubub6RH+TCGbnHVbj/vvqPw9LKqnwoXv8sQ25uC6PKrR73C1VsXOJ+vjzBoCLDARzmnuGpLd/vttBcR0v209izToVw8e62WlQ97akddW9vtlrfT2sNnUBDc2sOse5+9/nox2qmn/QMaz68+9oS77dpKvE0rrWPBNP205lIKKAHS0mbeoaPVBQRa235RY3TrhQcvuvqtaVYC2F68dWGdYcVF5J5uPULdmaf3sJ/NP+RrfN9BfixTarVgRysFbGTSRCC3D/f4bRNnVXlce0rZUjbZ6UpSFXgJrwA4ohxryCBFDa9dFRdQiyJQaJ+l0x5DnB77Lbr6gIJZaVlNjswXYt4efzIZZvfgQ+FVPAra5akBtQs0ys1GFr/KH9CKjbGEm/Eq22QlfapnIixI2WW6oDX/OlgRDvwUbh4ZHviCBb0CA6fQRXwFLxKsCJom0wLSqoCGyacZen3ks18EwtI2dfWHNRR4/h5AM50kxi2UkiXNiOBq6WrYRCVOXO31cPrrb38/Xc9WWe/1L4Ujgec3UFhiUhUqH+xiDL7AFt5pPsjBKDptsKHm9NISQ+6NdHg/43sO+YxP3ZTa3dciyGwF3n6UeYCzlO9RZPdxai+TbVtcCEKdnLvuBjFMG0uasOu4C7/GSoHmCMa0T58lOs3s0w7TwiOs6hGgUDQR6ElBNHBvnHE8imEbBbJNiz3WOs9dH900fQ0Hehjbay5gittgxV/7BaRYNHHY4RZhLz9q6DLP9wOZTOszrBhro2CUZU8IMlxgzb3XJb0qg1xBQ+ijnAos7CgriZtFTiSisUfuplOBCjBSthuIQGRUQf1uy8ujp1Vo1FqpZRSVbb17E4W/4CnphVzBMrtgOTkVfU5KjUeImvuBJAZRJq1yUq2zO+9BQMlm0tKSNyKIJPEsuHIVrk5tYBBsKI8SWvzxfnK+hF0yXCEAk1uc4WP+A/kJjpFf3ANhwtffmCfLP/6tB9LPvv276T1vf6uHh7RDL7q5MstcdpGdRtwZPrLrz8SZWuNVJr4+SuvflUaj9VTrX7r+LkRKwFqxKAJy50pINC4CXfrBEGBmqpUOL06lG44cSMcOsv6ONlxZOZ02N7lUYeo6Wt/XBbv2UYT5g/zeT/f6PQgoqw20suOzvbTvltelCSb81PWe4O7AraVuunTfKU/oTfCtAW38UazbTPBd+u7JtMW9ARMHDngrsHK9zWrC1tlzCDSVi+U6tAuTgBeIl54Ay4ObJ09BHnMFmszTvQBa51TPQBOHGk5MX3uD89Xb0BBAwqaWlHE/F430+8wP0LPosaFIPQtVgKjcYZfXYIXgygVcCasMwCagcg/BK/zaEaiupq64Yl8UQbGVX0egyl5VeCekZoRrGDLsF7JhjYCGs8FA0DpEwmJTwBWgBstlcMaJFlfA/KutzLkOCJeeYQpt8JNKKQHYAO0PovALUXDbwtF/wJwowQVphIc/87VlItPpPsFJGkDJy0e+8BU+K7fieq/NdC+2eUE9AFUImRDQnKFGihSuGXyZr973/fTJB0/wyaQD3vhTuv5RLpk2C39VSJBKy2mNf46z/SzXc5xYF4ny2Q5g8xy1nZlkko6CGZ/gcE6LNfUxTtT1vsRM+u8zuH8riWMXYOf1jOu/h7D+FYKkXXoMH3SnP0uFbYRv+hpaZQk9SkY3AXX4oECIFL2NSQ1TWKFnKDCmAxvaF8DETAzMtc9/Nq0/eZKZfQ50HF0ET3cErqMwFtgHoAk/TgIyRBj35R+07ONMGjKRppWENM4L1AdKmAuQ4k8bDAPYoLTdOpA213V/Aj0PegISfisBFVb+hYiGP96CSlkmKwMFVQHhqLzGi4fqYJHhBtjOqLQ4QRCO3vNuo3eXoTlYlmijXog2EEZRF35VWCPdDWdBq+yKPxDHl5HrXkAOcHmJLGIodILUQRD7BYhJMVWKMiCHqSDIcMEMJRw+N952xttRmONzAsUGR2ErvOI2t+IRUQMPNCkKffPwGD3nOx56Mr2fSfQP/+LPAadxID1WJGJfGfFyQirI1TourwBK+uAUzsYT58ixP4nTmv8Z7sv7y7u/lY4xWSaF0FevQDP+KkjVnvwr/oABRvpp4BH2Fkd929z11+Fz3hP+CusMM/rTfLZrkln+Sb4J56/3cNvvTudWhP1LJOimnGc0SIvNPcwDtCZupsAeRRGwAYeZeU0g6rbfNjvx5l7LLTysAHjHIK21BF4fBW378+C6Ohw83TDERIROD44zU6+rwbQ0qK282kasA0TaNTh9/TFu+eGiEa4C0w5B0aw9eSJNcttwXAKqPQIraULDAYYrKkl/aXhsmfgOpe7aIl8Q1jXXhLifp5eJQFFOTUUQbmUzhzdeerwdhQ2agNeVQ1FczijImHpPQjKyXAi1YOHM9UEI2dSSUCDPa2dWu/EcUKe6Sm4hkC1jScyCZ0BGwKpRQykp2DBolIfqE2ami4fChRXxhZAp+56wi9Ig3AABgx/5lqsovACajXHjm4g47Qs70pZzlfOQUwcCoVkZeIcgw9NDtIJ/9cVvpHe+5Q3p+JHDKAYmBOlhv1jmykOAEbEUDWShbYQLHh/6SBz2+W6646mT6VomxdYRhmqLa+nuK5/Drb+LkkaS7rPuEdAdglPcwTfNev/01ALbf/kgKPf1tzQbTyH0tI+e3XRjnWsR/rfxbph4K6bPtwDHmAxsvZZ3xdXAdLDHWmwKOr+RLn7nGY/hJ48dYfWAMwCcBtTJvTEUjY7rdpgP0OfAdWOQLv9UOnXBxwbd/C7fCNCMxMyN17MKsC8298yAy7fptrhjcIcx/BitO10O+KCcWDvXmsb0USb/FunOoLh2rIioAOAwLmJu5DCfmJ7kA0PsVtSQAgofFLK0ofFl84uWThmMSpqrUK6wkfECC9+o5zDGoD84OzoTF8VcKvwojpeDqaLrN8oY3ghsODNNhrgMmhwCXvCbwRXM6MUXtIM+YAAKLPIoQCgHB2TGdVihKTgFPzMSvumLrXjDXSLCN2QCkqOqE5SxFPcm80NH6QV85akzHBa6xyHeGzBSiw++y6HILusd3QNo8AqnunXq4GF46Bz7sAnFkGLZ7+5vp1s5KtvVrL9Q80+ZikJF7yig+UPQpJm1FspSelrjcQkhlKCsbayyMYVlQbrmbVrxnd5qmpo5kPbtu4lJQoYB6RA76r6KEP99ItMZAH69B4GzGWf8Ng7a0Lpyc5B4tTkiPK4PjHJoqKfPd22xdVjrOygVHerRvf9a5tP5AA4ZO+3q7nfPXkwTR9TSHwDGGA1t3F1idYHlTd0wxFbDtKOJQjYAIdVp+oZr6YFopUGrFeoFaQOUipthgASdXklv6TxfKH8deSXPrDjssGoQV5hLFEP4rRByAZYeQV2oUbaN1wUgTIEVu8D9AvHolYi33qdNAAyN0AyvLCEKabepSAlqundjXgYyRKRqUep4M6gJj4giVHUqamcmxKKmuc46RhFGbgdba2W+5D8nzXS5Fa7jqALDUYUrPuKylXkpKhHapoRp5d3QZxYD+IJVvYCCINrgZZnDecv+OXrU96T3vuPW9JrrrqXuABwhg4XDC7FfWA+At6IuvYW4EYsSqq2LMnd+6/50L/fnH2JWXYd+1K0vgu/3oPz5V5RBAPwSGSZI+DdoGb38hwI4w7Hb05cupec4U//U2dPpqdMn01mu8z7HV3YvrdHqIvCtyZ9GkD/HjyOVO2eQsWdw34XQnaCgbkQQ34IQ8iWe6+bT3M3aMzDBbr9TaeOZU+nS/fQINphn2H8QfN0IpCPErP2zH2CbrcKX7n/cy3rTr7kG3hwq4vIGDwG034D89XR5qDYKoTTcqyG/cYeghgvMP1A2mjfUF4XjpiTlF120eokexULaaB1Ma7gpKfYC+GsA5KkIv14P7jwxKMJQCK53dpuZ4S5+YBEWvqt5igIzaAXsMk+SX5nK7WxVPocP+iKlFSGO4fCBsBLoSjMQYsISPBTS9JaiMWwXPoACc32OSlnzzvEWsJHxhF/E8ZMVjBp+AQS3He5cvBnuJNWPCrcGyaV06bTgIYaV93Kj9e1f0xViNIIMAUYvC1axDDK6gm90D2CAIFr/AnJhFc+Q/RTd5D/70j3ppw7vj66/uvkyubBG2dK4BS40Gk/vO99gI5Cq+zaAdW3+QUSYGkhzdM8lgJPM6M+zmafDnMBOX2cAPgTxI8jo5xE03c9/IwL6FJGjURItdIede4dupNt+CcFnso7Wfpw1+snDLPuBLyUgAdb+AF0O2mHDjyb/OvP0QjQ3wTq/lvvUQ1EZaIzWYnymVYDVh55mWzGHf1BUbS44mTzCRSTsTRiboLfA+WUNVfpF02szDTvqdEQ5LbwxraztsEmI4Yxafwu+hD8LPfG41Zft0ojyrNx49cr92ke8+9xnozz0Dvi9yEbvy7yH+DbhinZE0oYort47zK/EpXcy0AvIGQ78UgAqOYxwK9Bg6oJfjsWeZtoqolye4AlHxhbhes+04KrX0fLjNqxRDqDVrBXeCCvMGkAdFrqNIedffOne9Avvvi3ddMN1xnoxHrt7AMpjNg0nBUZCSfWwAgh4sLnzG/elRzlHv5A/6lHhZ7qm3yWmUpCSkJ1/qvA97tjXdnnm69w9Vhd5m0LUBqEJ7s46tI+PgB6+iRZ2PV1YejitrrN3f/oXSDXd7N4PSCvd+sQx1s5rKdw1utlP8LtAVGwWoos/xpFin+hDUU3fyL4BJ7/HsV1acsbqPkR0cZ0LRRgSsAtQy3iaJOxxwYfy4O8F0GXX7b4t7gNgcoIw5hnGufJ7H6sUC6xQzKAA+OBon6/+0MHnDTMcGePuAuKin0N+j3Of0eG0rJUDLQfCtwi+egLFXVr/0v1X1XLZ8Rx4P/YrLIwq4LAZJawFO+wmx8EQ+eqYI2wgARkU1m4+A8HF00hiw1lCK1tVozLFLdvuAgiMCqzgZhBu+5uwJk4VKEThZsTsroMNaIRHSQd6M0yyojQFLNIqP8bwcMZTODlgKEzp0FzAfm6o+j4b6u5kRUBvXj3ueut4k9dVln0muYoeQM28KpQaVLm05fc/fJnWn7vP19l372U/hSpvKonGr/I7vBkmfASMDKpL3NVaOQ34JE2/fnPc1nN4kfP4TA6u0pKvrnJTD/vVb7j+Z9LO7PV0tV/DJpxnEES68T3G5iwVbrGDbZtPgfX7F1EonMhjEnHyIN17bb/VBCUKYXxem3+YW6CvvsPOQ/UovHmHnYLby/KjfFjW8x3/S9zsq2u8DhxEMXBegOHKxGH1FvT9QcRzgp82+aB4ut3YK6CseyISwfbR4A3uRFy7MS1xCnATRcJlY1BKCUjwNRGooUD0ArRbQEJf/WCmVyy/Cjfg4h/GYXo4zkElUWPkwEwja7jaKM0jFYZIC3LTbeBuvuJdeBUywXaZAV45tIJVjoGAAi38B3hWgRnqyAOop8on8lcQA1Zlo0psCTcVSJS43oGIFbFMtp0OMRCtyXgYBZrcCxC6aQkoKOaZyRQ+bISnocA72Wj2EXoBv/gz7/BcwDDeXvzPowCi+381rf9d374/PbG8nq5ngm2ZxHqZUCXiH0lTLuzVo/jlkDsqcoGr/OgA5Jt/9D3BMS8LzjEuX2djzfoGk2ccUNlYP5euZ2JujK2qKxfvRwGwbt//QOo99wecs1lIk/uX0s4k3YgOy3EsGfb7CCxdK13RrXMB/XP6eAdDCy7vRDIZy7PMeOwoiqHPxp9TMYFHF19fC9JpPm0I0mvb4Xrx1jhzAvrO39ZZ8JnAo5uvC0h182+/z75/BFgrFoJrLkCZ7i3j3uK8QOen09LqRFpZPZN6nFHw2F/CL8G3Esg9AJULfqWtCLrKRm79h9sAu3GFR4HFlIol5CuaQGhQDmFfPmQI8QV5xbXKxxUoVY2KQmq6nVX3tbNgmlsDGYSIIxdAiVBQuUvJKdiMcyLUBS+UmTSHFATQ8yALOh0zj2QE38ovbAs/TOI/4mnGa46iE4ISpQiLX+j0AmigFmlkvsEGtLu+eb8VgG4N8oYypXvAZPoB2GhP9N1HhIlF07jVbgIabq37f+TL96a38030NYS/ueOvau1VSEqo06qXUvyReIVFxValpxdAy+/rxZjw8PIiLeNZzuqfZ1fUae7sO8Oy2wG62xOcBVjnQ57nzz6UTp76fupN3Qbtf5nWT9+Xtui6txD8MZYIGWnTI+CQDqsJPNL6ExfT5rN8F/CCtvWyvKj9/IzL21qrR9gnDh6np3CcOQAuBuXknw7sbOvDIMxJbJ4+mzb4knB7mn39bEnWpaM+Ysz8hK8Hp2x2tFqh7r/292vfADu7OG/MNuQb0sWNwwxdTtM7UW9HQk+rz8+2/PzqXoBwomzqYUBUkfKOwhYOcD1cpCVUL6rpDr8hw2AFvcSmJCFqwZUiH4ExAlQ4RBDPUTi7YKqN2VSOBqlgqr8MV+PmainlQhBhCo9f4RN+czZu9huvQWunEWqW4R1AEp8NTqe+m17AXzLP9iw97hfDXFYBDDBX5pXwIVNgX/3OA+kBxiezecuv4PEXBLUvu8Sq+oUjKkIFpAvNSh5db07PppWtnXSaj3QsMylwnivA9IWVQxoKTC56iXCF1YDTzMYvr/BBUCbz+gc/AP8bONL7XOquczCI/flJS4Js3tHtPi3mKMa57nuMzUa6p0/fCOgs6HTfBMrjOQT6HDqCff89tu0y7NBynm7umDzIMWNwNYm3zfcIer2TaYzNSvqkuPYU7GiA75wjsmhyiaS/ZCRwd4n5hFtT9/Db0nm+FryucwXu9ucuP6181RPIbs8DVK1/VgIqOMo3Np/IhncxlfQL9/KmCnMrJ/VQQS5PZJyrwbs8C73dK5pRCKNgZhIBVXB2yFJxa2rJP9yquq6+GafkwjBXRCHxkwGovyAKkNxaf59o6zi7NoGx7VurXsatccTCMgHcLBRkvsFP4DDhV2DgF7wSvtsWnuYC9tEL+OaZpfQ1ZE6m7A7cTXF1kCsMAQa7/8PsyuSf7jT/6FfuTW9hK6zGKdH6K2X65YxW7gYcp1t8l1TBi4rrXhAVf0u77mzYCkx5d1kZoAnmoASTbWyqWeP8fp9xfZcu+xKXfe6nS37p4rNs+6Wl3//LaeLU51P/sYe47fd17LhjBh9emuXXxNz4Me7jP8DIm27/Tlt78CWIaBtd0DlPq71yhqjo0nPkuM825MmjHDja4TARJTazeD1K5CDMWPPnqz4gwTnSRvcBNzMYqmW6mUinFreW2YdwI8uWr2eX5BJd/zUOHrGuYUGPll8Vy/MA2B4GUC7qBaiM/KMso4fkmHAP2ngNk11cRTnIritfYNRPvRxxk5H7cqaJdzmcq4OX2C6LXRIuhEqpRR5KkPLTdHeoNN5HQh40h6QeZCkjsZFQ60p52VJ4qgtacVJdc85wj8qhBE9wXiTnUhb4mCtzUxxM2+Kg2WZXm7cKFXZJlEHyizCDlRpHRhrkdAAPO+SREU2NV/ALjtKibwq86/C+9DF6AR94zzvSfhrC0UaMcwJGIxg6sgcwkCaxcSZHc/nOg4+kLz9zJi1y1VUXgQ1cRazMhIYzzKCAuaAUJpb1w24XqOLjV7eA2h/A0huwOVrvic50WttC6FE+K9hn+XKPVg34B95L5848m871OI9//EOc4HtNWnvse2lLN/hw40+f23paCO74HEt9+9HmM7TE26do7Z9jspDxOWOtMTYajbVZ7+d6cSmHsTa7CfkC8c4kqwBTKLlpXiLbeDWzb8MyIpMK+DW7H6XnZb7EnAEKot+/JV1E+E+f5/Yhvk3A1STkJQv+kF3N/o9o+VV9/QsNWQmACi4mlnJywoqkVe7ht1oF1A69C7+PGvRiufRKB0xOTgWX37BGOpFwg2X7N8DBHtFLmC+CuIRjGTwuh9Y6C/Mr/LC5GDqt0KVcooJcQOqXwRN8HGJGb9lUjl1loENv6q0d4gaqN193A8fRuSEannESVvU408qCp/1VxgRTFDz8rwcYjfAI9jNQhT7CiGQTBaA9Np954mSS7MmIF8nZk7lCDyD4iXkzsSUWdT20L/nTbE54HXfr6+MePgikVPrn/MYj++WJbMKlgsktrlG55ZLmy3XcGdPmIErbR4SnmGRT4W+xB39zU6NlXjqn+ObppuveOm2Q2GLZcPPS6dTffygdOf6BNHF+f1p58C4mFfbBhzMFN7LdmIs+xrjAU5pdSw208cSlGX/1BvicF+cFEkePNY5Xd8+TLdqDQLr72uI7xuEeJvDk1+7EMZSKLh3Z4RiyYD3Fv05vY+KnuFHnWDrLRo6Vda4c06QfqdZ4v08PIX5FGWS4wo2jMhEsykYv+Wp+oJEWPWUqR3irp+DV27CroqnBFfbf1VHxLoxyHLVgAzCsCnA5ViDqgNUBjJxyykR/OmZOBy1dy6uZAzZDPZnEz5kvSi7KQS39FgpgTcJPI3WeCnWWSnQOv/puatVVwlIapbgCgj8r9Ck+8LrOGPw8G9O6HCDb1l4O6CLNIsRQacXHdTcSGX4BBlr2QFc9icyIFgK8NXHGGbDgD45k7a18x+IzX9HuwLewKkY91thWgQPGiRiADHsuowCyxiV1o877+xJQInvkxNPp8z94Mr2JpT+NTwbvMicxTlAkSkXjDAKzQjFYj/zLiY9WTi854PrMmJYDJxBUXQ+mln6TwldLvdUFB4HvsZCP6IJHQ+x5Ay0httK582cI3p8O7v8pPiLC1t2H7qIXcB/bdV/LjP5+JvrodPNNgTGWGLWH3wd9WBaUslGzwu5eDvFwFHiJDjvfDWj7nkDaAtKhNqRPOsbYXiyl00YxSZlsnTnNh0TOM3dwa+pNvzVdXJplwu8MlYetv4wfKKUQenf1s+Dnbr+GAZ4AhE/pCVQTgJSHJwFdu6LexMskrVkooiz17iIkW+EZflZ144pYw1R79uttVlHi1hxPqfTNBqakpuBXEQII8Qo6KQ4JoN6E3vubkfqjfA5OCkFVSfRN4+gASBlsShGwfHuKBuRxVoNOMNHEQC3N89570Ksn6eoIrsoyhhQb6bmlk+nUxQnqIvWGiP2hG3BVV51ePXI9DoBiVWLA4L3FIST5Aas0crBtgYpR+GWUhthrqH0tCuBj330s/Q4yeOstNxXKF2zvUgBKUzHKVvPl1PBw3X3P95gY0VIEfiXaPx76z/6wAxCCrwChZKSMVxWcAxWvunAUPY5pWuo2a+u6W0DDDL18XcZDB8RborXBR+cO9GLHpAC4cHObllZ7Cc6yQqGTdvsWr02zt/1m6px5e9p66r608fR30sT11zOTz7mAA0zk7aMlH1dXQ8eH6fqjXPSp8a1zbP+lzzh1lNWCRa0S0GbQEvgiUqqf7hzsch/g2mNMCNLl7+9cn7YnfjV1J69hzN9Ll+gJqNsm4Y9WX0KOWxs51AuwQojxfxnyGAY3Cz/5r+YCcp0JpRD1R0VfvzMpziubKtwvpuCKzu1lAYywK8oRYVcB0nvOLGyp0rgKkL+KtWuF4QLJF0EVQl0fIdJGGLX0ywQ/xChsHx90bbFqpF2axShaG8WFQ78ZiGbZyn2UiaVbmMQ9iRK4b7mbHqUnuY9i6FA2UgSqr9FDUb1D2YuaHuEG/H1yU4zBUSodox7y57x5OFsyp4izULszIG5il8Mj2ADFUooK125TWM6S17vYei8FMEpOd1PuhpDWwi4Cw6tWhNyQkuEegODq/p9fuph+7//8N2713RVCewquCzH0EsIOvzYFtQyv7TYn8ISng0UaOqhVVcOr/QOa+lLcsxy00dTdsQWNubqM+S+4xefN0+PRRBuipO477ulOnx906hkgoBYzuuYtJg3HgPl7Anw6bJEjwDO02jvPnkhbj92ftp65n9adruMtLPvxPcH+JsstZ3jZxK8i0BeGO/OsFqhjQCvfOcAmISrANjcD60Og7Sn1AtgwtHUjl+i/MW0vHksrXByyzNeA1jhG3OOll/F+WepzSz8w9i/KQTmXYtAQQAogegLhVjUrv6ggVgQkkmTayI73J7wMU7g85Id/4CUk40jJOgQ/iMJx5oWbUQtFUAtPrjDFbb9aOf+J1pyMp7AmL8UT9IETnIbcIuAlRH5KfMD0n5nZxq96cxHd/Ut8F3Ifx67n9+0zTpNjiV8ZNGsi1TvWmRrhbdB4PLzSTXdf0J4NJp0B0kkwsuJxzhy3YKp/xZNxsj/gCueniHbBRRf0kf6MQ5yVHzqRKh36r+3arbRL9SwzFP63/+z30uGDB6ChRihglxkFC6RdPQCBnRBsRTBspHWR2/SdHzySHmXp7S10/zVbj6hHSUbKGmSh6arW3+EqzkEjvxSFDzmgHBa5DmycMfg+PtKxwFr8Gqfs1jkQpDTpbgG9OCmOXGURNBpmlRo/jatbKAYJiBKla7u36C5cQGmtc1PRLBt75q+7KU2xOtC58POcHXqaVvxJuu8s7S2dS332D3AZAEqMg0YcF+4tESt5ptmHncb72rfPZaRz9CAOvyaNX3MN3X3SyITkytJaWmPLcBel4xZe8wcW6tziF8FvwNTyh9BLAeSWvyH8Uf2iLoSABc5gCda+Ura5OKqAAhfAbhDEW6XUDKsIBhzPjzGAfjmPEoWJ1lVvJ9cbYLxV0qE/Y/hpKRUk/iGIFKuOiodaYqW/jX1CB8O4o2GTnahHjx71ZZpFIFxXqriDteKxkMNAn597K9vAj9Dr+8KZjXSOXaJzwDT/pDRGqy2NEMbplzPzdCLkL4Wpeq4IgjDDgdkvW/85X7iNK3ob4gMvlKiZZDoFBg/1cuaRka+ePJfu5eq9D/3ce4L0BT5HKABFGKYUXvErr2qp9Yq+eO/30xFm5PWt8xpPOclGThWCTbGzF8s0BhvR5aZrwyY5qbePVPXZI3+Ql7iP47ca1+nTYi19rIOeQNuFAw6kKk9qjl+Ut/aqGml8FsVLlaKYvRlHdp+lwx7nAliKW15OU6xczLCXf/qtt6XxHW4TQvDbq8uptclqAPsHdljuadGtdJnr8A6Xiu6w/NjiO4GJMwJ9TgFK6SwxxFg/u+SJSQ1R3GKzNOhtvW7NQ/ijB6DWvVYGFn75JfD8yhKgJv7cwud8qJorq8VWSUoIytuKMMEIoFxsV6HCbhoXfAMQ/mFoAwGnQktsgyEv1FcJjwhhKwGTIHd4vxrObW7r7saSGuJ0niiN7KxzHWjqrvN1tXQCBXwD34N49uEH0hzbu2e40DU+SMu4n5ZS18lpRl+NjNLgGHI0dAAo7510jNuh/vPjM+mzp9bS08wNLNDIdOGvn1YN1NuQ0ijdfKVehS1uTpf4iTewCAJAwp12hQ0NA4STX1Y48xNoGIcXT22reDQZ+AbuC7j9W99Nv/jedyEjaqVUWMNGMDHabUYogIykGIaMJ7uI5MlnnktfffRp1t112IXMCVfo/oUjF28DjrMKF+NMAFA7rHQltgRynhb2xGOPpptuuiUd5A5Af36bOJQ5fRSkq49zlPjEBTbqfehAjw4M6TVKdKQCpEF11p+BBsWCH7cFDkWgr/NscnHnCrO6ugZ8ghn+SU77TbDnv9M57IqioY24qVBVhMqrKpSuad7iNOHWynn2IHBrroVeMRMPvQ+P5S3MtGj/P2vvAez3sd33HeD2XtELQYAk2B/LI/n0elGxnizZlhJHsh07Gc94MpnEdsaZjD3p8diTiR17RuMkVixZGUeyZhI7siRLlqxCPZVX+BpJsAAkQPQOXODiArdfIN/POXt+v9+/XBCUvPf+f7t79pyzZ8vZ9tvfbksDgIKj7AUud630hFGJFKdosIkzfk03MPklC2GYtNOhoCa0uCMdHtIIr6FJA6SbgWizsG74nbAcWWaI1xv3oFis22gqp92apG9Nb2NiMkg6o+d1W4nzuiVRchSATR1g1HVNZTiiLeMnT522p598QtwVplHYghr85eVle2j//hhlphDFzpTxJmlM9eFPaKPYr11atAtqBCY0EpgW38vqIOikxrQYvMoUVH+h9FArf1TfiisqJgXhAD0yIFuC0pp5UVCJq+x1SPjbZGx6iYmvBLdpcfrVo6ftjG6gfnjfHqWN9BLZg5m2BqBELtruLCL8db1/vKV5Nu8jFV9BDgp/8vCfxFTimgUd4f6sImE4M6DTeIa0x/74iWO6W2+/3ZBGf/fUWZ2IMqqGhuPAtACnRqBWDJQENcfIJZaVwnpDAJwCckEKHW08rb9s8XeFln+N14baz39bB3SqHXE+8ArZ4aMYFIUrnRzQVXK4soZCp+I37Vj4Q9ZQ/sr2hoEGQ3CFORx5nV80PBkH1Z+0RoMWciATBjgG+dxuPAMSOCXHA1QqX4aHnZxaoR2+TdFaYuggqwBUdhkqcLCK8vFXrVIu0jEyMKNXuzrhmbxRY60m1xPRo8YVxxr7LmQHj7DVvPu8/aJQn9RhL+dPvG/zt/Zo+qjRmky/6s977x+3Ud3ZOKP5Mq+RW99aOZriZDSpEYXeKHzf9iH7xYuLdlHnUnx524R9+fAB+7k33rdLmmbsUmeFAraYzAJsEgczT2SkVAJrJEAZy08ddX+EeZUtaMFTgUEc3panE3owUSxKju+8/Z43AEED7YMZ6nuLyVa6VtoIBs4wnN7vG+8c10UfvDeX8bgQSP9I4/4WluEhDJPh7ldmqIB71PsOan59/OgR2zqz22ZndPaZCoiFmdO62+9tHd5x6SYbeFAYlANlil8oTiiRD63L8JoXOxvlPTs2v3X/acFOw/MNjhbTLr10r8uvi8L1LljHhqtxWNb8gviXtLjAj5XfFZWSqo2tJS94JC/sEk/axMcCYC0LQ/+y4JdpSOVXulqVP4qSEUjUC8IjC3mmwru7gFvqDzjlF5keoU7XQER9MMk6g5J/+h3pgR/J7f4EKDAxe0Mrm4+nVtUJjGl35pBuJt7QjUtcUT7YOyrYjDoBDoEVjbNP21l4fvBG4JbKaVX0rORf1lX0oFJ3GeFhTpzUAS8aCTAd8AU7h7Y+iGJNZT+l9YDvndW3JKr3X9ERd7OaHvyPP/RZ26czH85p5DiguWZTTyI94kWkYlIsd1cxACQk/iOMCLuYCtygaaIRN1PO/dqH8/tvHPVRaexZefBS62gAiKBKSCM2huiY0xpqvHn2io1o401G0yp+FGidwgaTkhAS5k5qmZRwUD3y6ff0Nd/4dtu5c5ctsX9fwzZ6Yc4HZP41p8U71gIY8EfPiGLUDUEuomGzaytX3l0BpYShjNEQZGNQK29pICQLDUE0DmoQGm7HVWVcT4VP5XclT+UvDQIwb1yCb/3KD7lKY5XDf09DKH9MXkLhm25yS/XaDVng2aAMBORgYBHcACYA6hJaIWWYl0JykZ3+DG+1Ie9g0YqyuW8TwqImomPtRg2wEspmrH3adTelrbd7VScmhmYVL9tg2UhVXse1xyTRkZ46clt86PFv6B4J5v7Z0w9panBLh7acO3/BGwWmntnhdbATMxaW9wz32hemB+ysGqN/o7Mup9Uo/O0f/RP2zOyEndHlHbwGR9njB5eG9iAQBls4oLlxW4/0A/TAglMheoCTbPYgvePqjL+pk6pPn7/kaN3T1L0AujYALYKVmFPWt4+f8ssie7WYEiYTAkZihdOzokpMM5wKr8qksEGdfHrl9HvaytlrDx04pE98td3WV86pbFnxoyGg4sdwmCqdw+RoEKpRQWN+TUPAqACFZygePXPaKHsqflHsqhfHT1jAUfr8tTQEwFXZHNcbhOCXI4Bqp5+PRoiXEQC/bARKA0YjoPREmmIVA7creuYB+aX0B4y8iR8O3BgPxwEudptpwiiW8DehkCqgq+mEV/GBLzbJqSljV1ZtwIzTe2otBNL7Pr9r1F7eo1dbkmdh+abesPBFp5p85R2mVZrik8Xoekl5zEWx9PR3tF0876+gx+RuyUuXL9uNGzfLolmbMMXLGfzcbM3r6yfGeu0Jnf70gY5u/9aRIzapD7/+5p/6AXtee/LP6wtVbwSSjYuCIDiwCfBH8Rc44ArunvIouEnSDOridm568CbuzaMnumDcH5Ra7FhZcM1hDQHMeRn+kymvv3fKhrUIAk7iVwl1aUTQLjyZkWEK9ooiYhb1Fucu2SkVyKHDz2pexuqvRAI/K5TcMfYIm17flUMMQ2GAAytK5TaKj3KF0vmIoNEY8CEOG3P4MZx3haX3rxS9qfzhDsWPEYKPAkSXDUgqfKet+L0BQrai/ClfaQQ8DZ7GTF+kizzyMBxkB/mBW8YbT3eAAyDDCgIwmfAVmCyKAOPZ6/OJCEs4Yb6oheM+pnCsMGp/J3WGdYZU5MobUsqruCEdgz2lS2SHNeJbszva9nlSUz96fYa2NBSZBzV1q4vcWyGB6qB4F88FNamMUY9VJoJfuKgvRbWA223ITEM0phEIjcWKrqSb1H6UF7QX5Krqx0V9zHXh7Ekb17rUX/vy5+2xyTG7tqzj5aoOUfJkhiIHnmKlpB7sD4LD0QJLxIpRBejqYA1tmxqob757wqfo3dLUlVDAlgZgMyR/N6/AC5pTvXPuss7BoAEo2GlXXgD6tcFLcA1XgepYXnvv2BF7+PBzamA0dFeLWzU+Tq9q4zWI4SErw9EUAPIeU0rEKCKVyBfU5OejoWpEUPW6KDKK3zod8EaAxoCGgBGB/0qvXo0CItynBKXBaJ9SxFQDehodjThQ+Erp23t95EsZa4XPUQBp9gU/Mk35EP7IwQ7lFziUK1UNf/xwkI0eAp9goSdxthoqvQ8dFcDc2N2tKH9kH/JnL9/KxAtZ8/VeP915UCc8r2kt6Mz8vP3GyWt2RT3uNo5d14q7hJLMMf5r5dH0RSwaQFTpW9Yr2khLpIlVctYD5jQCYIrQuWKuXYDaZjqht0FPPPO8BFd90h6Sg+MDNqO3A5d1LsQtbTFf0r4UPkn/T7/0Sd9VuKjOEV5VOiNpnv/h1LPAwg6/gxRHrVDN9MjdQtPwE1DCaNjG9Cn7G5oGnL+sQ3FlSGen6YR1NACVAnZS2/Ez5+2Sz3tYjU9TBOlIRHslq1NCheVyg7MfvGPD07tsenrWVjRc28Iqf2EcfYJ4CMBaAJt/fH6oVBPmP2mD9/w0BN6zhlIlbEOLefxoDFQ8mtOFfU9K7hv9t2p7nzb73KX3r4bp2RgwvM8GodhF+V3BG+6656+VPtceYrGy9P6l1/fGqZK3NAakxX9UXtIVlZj8qPJEWejZI0DJpiosSwOMDAsuJd8L0EdujhwAQkNBVHUln5d/kmTEyTMZ15EVVyFwX9PdgeiAZINC8/qul+mTPqO+vXLNruqUpNua6/dvXZZbR7MrjEtaeBeQilxyoUvaxV51BTx+pIVFaxBRCL9aS+JRnwi/evWaPuzhennVH/nDaLSrRvz61cveCDz57Iu+2j+mtwKPjehaOjXq8zdv6CYnHeQqgoO6vfcvf/J5m9P5Ds7Ck18aAsWDPG4S3uaPwPIsYUHR+aw0voUoPKRpTiORYx+cKaGZni7IDVBHA9AIcycZkzeRvHvyrMM4nJMGpmtjgdwhe6Td/Xo4jCqpDNbQ/878Nbt0/ao9dOgJW9XxXmwLxiB2JboSRWvey2KN4Gw6giluMtttVxZg/LIhSKWHXpVA8FgPkOLrYg5O4NXFXpoiaOsvu/pUyZiv52p9DNtRWsGqXy70NWHhTry067l+TEG6KrzkpT/jtOBIS6Qr+zjShiH/PZ3KP4e53zMzKlxAAxl8J3LCKq+AAoeKuLigNCIVXHnqcWjyLFGkHDr9WPnhSuH4SVl4C+YGcJqmO2HtdohcQZOEfn1Zl7wwx1/VJ9Xs4OTTrvW7y5r7z0n5dHYD008tDHo6PP3ICofk0mpv1YjhHh+KqK4weiWUhoAfyk2P2adpLDtDWSPIdYUUjrq4qMZn7voVm5ndbvsOPurHvu3XaGRAi9JL+kDsDpfGOME9++wzj9v3PrzHbqgRQBH132oc0AA2/Q1wEAlAOPCOsFa27b5Rracd0RodhnWPulFzUNdHSwPg8bpwNW4M/7fYvDZSHNWrkCFF4opPTarMZpIK3kRzfLZ3mH1w/C3bf/ApbwyIw4dOBTdZw9Xf76pAmOfw81zxHj8UCAjKXw2f5fbGQDhqVfw4LqYGNASsCdzbott/9FnwtpHt2kQxo/BR0aqCebUrCkvP77BQ8OjxoxePBkF4wokFvULj6w1qeBRXrfC4c0qCjOEPWUPuWvbMqmgIyINQfuVCZqOA4GOicEuGOSTpPVQ0gefQRBMsnBVAyPH6rXeLTkbaokNS+GRan0ODEeUMv9okJXb+CEUy9xeEYtWExdVeKdmgdVcbgJAXie9qJLCuaQBXk6/pPMVF7dpkdyB07AnIeDyy5K7IgloA8elTo3FPQ3JMvgFgQZBFPTHyhoDXgGvazHXLb3tSrpI3bULfmNMNUzJ79x2wyZntNqz9B/s4WEZ4t3WuA6+waUyI/U+/9KyUTmVc/J4YiMW3Mu1O9+tR4Omt8N1RAluBHT6kGNXp1G+dvmA3lCbW0trzOohaE9nSAHRwFSAz5fylq3ZKt+MMqeV0k3JhF8kjrQkoCLIii6KS9DL/unpexb7Ftu3Yq519OjTDF1CEVUjAd10XAHtQhcXOK+8dJVDkccTjyi68VCTfQkviHSZbbs8MCQe9TvbT+3yeGnHQ06lB0CkfMQoQzL8iZKrgCi0/83jg/ASrhvRS5oCF0tOAoOCVTXweZ8iC0jcbqdof+UOaQ2bZpNH/lEbPP4U6LDKoW8EGvTPRI02BUjD64cP4/QfA6lgUTb/uYZy1R6e1/XpQl6eY3n+D4fmdlFA/uPHYC6lbHmfQexocwZOoeFCmaAzuqXxoCGgcVnSq86pGCCELSl2IqtQUeUCQQZH7dEZkrluh6Jh5vf6jARnSCj6vCH00oI4FOA2DN3YNnvhv6/AY5OrViHXXvodtVHvvd+ng1159SbikC2E3mD7Q4KtuPrxrh33x4F6fClTrCkUm4o+kNwEO5SEjeCNvAtZ4Nsga0KBrAAYk12kdOnNW+2Yw3dcBGgRyfmgDQGXBnNQ7xjktqBBJ1cp5SDyqBKaw2O4OAMVGK81XfGfOHLP9B9imGSaLNP1p+zcAYswK67JecwTDqMjeCMDPf1SLhIddK1hRPPGIxoFPPVftuq4bu7io98Q61WdNFc9HCEWJOUsAf76zx/ZfNgSu6DQMKD2NQyh/3fMrzrL2kHKE8qtQJGe4i7xKVcguvzIilJ8ckF9Zl4riOCWc0KYh/9zAwPPdc9r5BaAOjtgKfhSN5OFMhTs60HXRrmkPxqr24jM318qL6iU9SVQmlwXSKkI8hQnOFrcDuj6ST/bm3q8rEv/zhkAQ2flb1XQA5cWA04zfeWU6FMR2n/5FHcHm2GZD2rG3oiH75atXvfMa3r7LZg484pt4SMaSRgaMBKIBKESy6JSY56+KFjOuRcFtOoH6nnaM+oY4vUHIRib0wezTT+g1tkazqVSZMy26LU/CnbE8lb8F0UMbjwqrQdAoCOUfDQ+3ah0/fT5YN0gajFqcKWsLMD20IHHh5z074ZsMQhkzwUjeLY5u6eCVTK8+qJnTcV29Okl3Ykq7/TRUo+WjgvFrGgqERb9Bzf8I4lhkj0wR4ueXhUxAwJo2bpQtlLNaHxAidCs6SnxFc851KT9LTN63sLbBaIR5Ir29aLMRiFX9pqKLNw1DFUfG1bSRE3/KIjfxK7HYme6wiwII1/OEjC2ZksofqRa8YUg3JpQq4uFZSCMQnm7glC5s4irRaO7NRpvLdy5rEW5OeaIeznthxUCBFnmhIs78OVwP9/P4MFN4BZpLWiiQGaUXE2zlmvvhLVjEINQqjhBcT1de7A2V3YhO69mqBoCRH2tXvMo7deas7wmYnZ6yxYERuzk4avv27vX5+rIUnNeBmKZqev0TnPUpDK/Wtu3YJSTVAXVizQaDeT/moC6cPaSt68uqqxEuuIdFeJX5BT/84Dh5eYSn+axCW/CAClBgZAvyD+pNxXtarCfPfOt8a0WoWKXjvg0ABYC5qWuxT15UC6ren4RFZIQQe/7wt5mqsASHTvwuXDxpu/c8EmSEN3CassKVEcCI1hzY5OADgBb0SDk0QSe/y0Y8IWOydwVCTkYBCuODDj48oVdhXYHe2r/UE44rK70eBV0aj+jhFSb+MQVQWAn3Nw5OB37QBw9kKH5GExJS0RbFR/aQ0RsDBdDYelYoyF3Cd/lJiwf4Q3S1SUgqPyFwDXzPjgIhj9qVP/kQoTi5bLwy42gzrbxQ9tCoV1Gywy6jwaQktm4m5YoEkZ4243VB0Eqmknah4fI/haUd1OFPTtEoyOdlDqH4SUnHFzXUR2lV1sz/z2vX38VLl2xM7+2ntm23OY1q3tH9DCPabr59atIPi/G1ARi3JYcentFBmgl9YzCqT9MZFfRqGpHrC64Tin9EXx8+vmPabukAGF+ES0JsMrEZgfubCMXtMuhBeCFxUIXa9LXmLCTDmvIcv3At1gHEIEcpFXmbo9EAtDIDjzzFXLl+w85objGi+T+gpgiO0PEobSmI+lGZ+nTU1vwN3aZLIek8f77yazKCr//0gAyFYT83U447mmvRFME1ZQpsqju/kNXDPOMCjiJCRXgqJxXDW3HB4YlSc5x3Knyt0LUy+0igNAbJp9OOOCp54C/lRbFjxCRZFBdDS9+CKqmQK2AKk3IhPwWG7XxQfsdyTLAr4xDwItEO5xvyyBdnGzw8BG7dDZWXXzREahRpjNTaov+xNlPytpCHbOnJ2PC3xlBLUnBluczFGx2JUufyBzDCM8XJIe0Gn0IDD8xW+dkgPKrx2ICOX6NsCIE3Q3zStmNW24lHJ+2Mjpa/qW/9b+rEqG3btNahfOdsy+TlDPMhuvWymEgd7tfn3+wPYOQ6ODikBeyyHkZcJXV7pyZUX9VlFNmCVSNvWpzyuD/tjPhB7QazQtIvfTl/c8EuXb3uECWhi6mBjQagEy8z5cKV63onu+SHcm5QMzAZN3bLLwMoAIV5XFHJrl45Y9u37/dXfrUIMKsNcIqP4T8HfVKIzGvgGjQoCoqB0dPjDj/x8QsJQygoo/pDFzx885AKCKX3X8FpV/4Ii54dHq7Q2G0/V1bnAX/4gis5FCFuVyTik8SuaMBd/oJf3EKREa0SEB+qJFZBKBZQ8iW4BF/2wJI+DHzII3cTUwYI0JWjUL2sQwCnj0ZqMwL4BH9cIY9H95EerC+QXm8EXMZauuTeZOhpFh5hWTc9XLB7UsaZ29ouvKCfOhkMOIz22LW3U0P+Y9pYxOGgvFY+p4ZgaHTMxrRG8CCLZdmTskOQTmxEtCG/5PEM9yh1e4/OIFAyUn7PUnlCZpcqEDueQeHPcHZgdALq/CKMLOTczFt6HXn2UlwcUoq0k7RANm0AyOw4/NLsHDfhqFdgzzOVsySnjWmb1IrZ80UNBquoSxqarWp+Nj65TTyYcdcmk9G0ScyoRhxcMe7ns3lFKTSKimrQbBY8MkXoPPRAzJqf4B4mhYdPYYNd/4DzCxz4uZ9ElLiCR+JhJ30rjDyiAZDmOy1pwQg7yHsAAEAASURBVA+/Ou/kFm9nX+ARPzD41Qotosp4nDDEQKx/zrtHmOL1ihD6X+CBDUqbQR6RZoB74RlwD3OMD3u04sMueSbr7hwU6tEFfSp4ZXumkQ/xA8uVDfmAyU9prSifpzVtGbx2QXUFpMBjyy80jzx8wOZ0Q9Truux1Sp8M0jycVwOwrk1g4zpxiv3+XY3i4UIQDDJgBtTzMw0YG+d1KXBXCHfzYI9MYMpD5PczHt5AajhbyTYLaIUjY08pu9MXogHw/RxF9lae4avHMG2h9FTsvuO76XM6U5+VeIZLLOZ5IYDfGn9wqFJfvOKzVZl44/Ilm5jYZn2aO+VnmK5QCvdvpBGSvFTprKgUmfvTUt9QQTm+4IlCfXclASAZXP3aZVEYSpDguKkneJT6EwLqGXkW6lkBnbUeGJjISXRhkqt87iQgYI7Dg7xCBjmDf2ECXqC28IzqnHFERH6unIhdXiIWOPAKAzEn7WRbcveeH5pAhkrGfeHMZ8kc5KuMu3kU/BKWKODi9pxyd4S08KiYtToCU7TpaA1WlMhcG8dzQECrsEKPhdqyOYytvbPXz+vwVr3/1v4Mht/k/arm4k8eOmA9E9P2lWvLNq6DPeidB1U21zWqXFA/NKrj4fq1OJ0KXkkgehbR+nUQCIYywPBacffeh3wEEJBKMvdyMa7YdxpgmfamG0z5ow2vHPen7wx1COzRiwEtBJ7V1XUresXOkeHti5ZN8k2aPqGUkrqlG3fOX7+pxYUYVkGM/LVp+sKd6cRmuLShnv/OnXnNn7YVsoJR4sjK74EKYpoxrneuKyqkJY0AvFVrMMVJgZVqHr29gA0UckJYVOSUKWJxlVHlD3iNAy39hYcXG8WKuGo4OC0/eDm/yLIc9pM0T16RA1m2aJed21RdLTxGFcYOOcKW1/16NhoRBEGWDMOHVMAihYwy5PL/Ctn9QefE9SOJCgScdrwWmDzt4ZA2YU13YfsRrDZq5VvV0XTh4tmqzmhDo8vdS7rC7bIaAHVYjFopgyV1XI/u32uTO/fYqzdWTDfGqUPRcWPixWUgXBYyp4+NRnRQ7BBnW3hh1RHh75PyMNfH5G5BRgC79z3kDYGXgQuibC75eX1h0TtLUhNNGgVCYEFwq7hh3GHuF9aBLEArPlENquE6PzevxXvdWiVDfmxmygigEyEhc9pVdHH+tn//78PazTh1gdOD9SgTF3VnX5+u9B4Y1Dl6YoKQXrglYzKjaLkZwrHZiM+EbyxrR5cS6BsroClxOBlu54MCFWkTIcOwZeCf6QkUnglxhIIly11hMx2ISBM3JG3PzwylGQcDxQ0jtztpJOJrN3/nzk3CqozeiImGP5dQSHf1Og7RgPgzkyeeyTUQwpdRofzhduISvzDdG3JVwMKpPR0RY2C1h4mNG5er8ASQaw0R6pJ5nB6WwGK382wLbvMSSZ3itkCdxCwl18hyt3YNDl3QIR/q7VmZX1UPzJ7/xx/aZ9O6xecr82t2SR3JmJTinlb0dXu7bo7W2YBaMLyuEz8f0XCeMydQkmZsvCEa1XmRvLpmmB8LojEqYB9ApLSWKkakOtdCneVY4VeHdroCP3O1mfPtuBHWgVEBkkfQkccsBF5RQ3RNHzztmNUVdq0oLRFQvbqaXMW8rs8xr95Z9gVAV94u2MjS3aAAW9T731BmTlV7CtCq6LtKhWkQM6Sb0JZGXs/d9tcpsaBGwtrT4TAeXnShZCJzvAhL/hRuKJrXKQRGM90WDjT5U1D0/ASKRgFVmLuJr9MABQ+e7i4oMTogLg0/FTLQNylF1QGj6q24tJQfW12p7N5SNyp98POmIblFJIrAxScuuVF+/B4zkTcNUTf9xee8C7ydJNETDm66Mwy7CWu6mzjteM2w+9E08drdW6WQy5qSzqqxnLp4yta1b1+vmXSm67If3Pn0IwdtZM9+++1b6zrTTyv23JyjlftXjv2ebdc5jou65adfawa3NR/gtB9vONuFkX9Grw0xnaMDakhtoofVtEI97rvXVNe1eM1brLaM7/SDkIWTNmyjMKugOqbEbyLXobiQhbW6eXWeV9QYYQo7d9ePSHDXBoAE5zvOq2pFFqSI/WpBPaHt3CRLa9sZUYDLHOquhv+8NhnSFduughoVeNR6hAg4ggPHGw1KeOb/rGTSGLAjrVUJS4GIRv/lF4qaiQt4wMKNcrmghVfQemPhQvAQjGdh6nE6lJD6V7uSBjq5RVfR0IkLlPyjl1Sfo96KacBA37QGC9qowpduSp9/46BGoK9nWOnlzYcLogd2PBhNpRtHxV/03kQA8F/QRHgtE1yyRyUsTcMZ7D2/M7TV9lIimoLZXu7wSt5Nvs6lA9DK+0F9W5QPyyz6aT6/88o5W7l+Tff+Sb/1bn735IQdfvyw3dG17r8xrzsiVYc46HVVNC+e+IbtP/YPbWIpDhbhdAGOectPzJvxs+I/pLWBbAB8tNpAaPd7nVH40bMXdMnISnU2gKtpi67iaQE0uLY7C25X9M0zk7LhsB7SzOt7zP0WArsuApKgfMVxVXMJouNDB5g2B6LOvcsDfM5nY/HvzqKG/9oD0KufL+YJzpHJKEXYwYA4UfhtAzEcu8EhC2pAfCXXGx1omIsJnwjgIwdOjIP0ADVRIoAGJ3pIxwVHAX7uOnb5OW7hFhVbiE4ArrCKuwqDICNSuFcCcFxPPcZgSdyOyOqwvnPTGQhTI7N2VXsblta1SKO7Cr2HEva6LiVdu6fNOFCWh6eQhBeTrrRZkSioFUaGJU1UWAmLvA1T4+GKwIRVthzprh2VeM6tCm/wTmeGpZ3wTjszszMkISj/hobX06oE0+c/sJtnT+ti5j5dHKODY2e1vqS7II/pm4ajN5f1lBka0Y0fS/a59/7A9r3/M7Yx+rR6fn0lSMus6LyBzkwp0TPUX1e5HNz3hDqwOIsgO8OUo2lT7nHU+Ia9qgM5phi9Nsqridvh/rAkZ3jaMPCMBBBvHEgD5xWkcR1R44ieXNbhJanLNGquRolY7O4NQAlc1mkoVzQFGBC3Sgki7hY2KCKVHNkIZjsio4YB3dSji7MEGNWIl0VE4an1dgOiS8Qcn2/1mfv3+GUHczqFVXrkjU6VXuG2JMDpI76Eu2h6hBxylDl5Qog3cSq3HLX0QItBTjHyVBFB/Hsg+OGQK8dQjDDkTmUDo3ILaStDffX4qxp69kqu3RMz2nobw9N59RrLazek/DoTQTyErYIjB2Q8MeJGyXpCI26aE1yVLKA4gYtaXGkFDb7N6ia0zksOkoIBN3lmPDRIjptIgVpg4UmaElQzqQDdQB1Ujp1QtqCtaMGvX/P40XMnrHf+uu3bvctGpnQxzfC4XegdtDO682FeHwKxFrAi5d0zd8GeffdVTRP+ra0PHNTcWLdG6YonNn8hsHdSRSZXZHU4q1o5n9L5FLu1fgDS/ZQfUjYKcbLVd/QZ7jcuXbOdWlCMKUFhnJbHWVJD/lZO1TDVB890t5Og03YyPViQHBya0JSHC2p1jK3Syugyy4t61y+dunrjlm+E4n4E76Cy3jZYd20AspYwp7qqBUCOANus4jgvRcjrFU5JZf/1RV2btV1Hhr+8b8xOXbips9TYNokqZTUqEpAJ6Jls+jGOXqL1nNP8hUVA3LEWQdJlSj7hLBBA7gtFdU/9UCWlniYuAeCTzy1Ah9OEYYJjJtjrueSIOhMYPB1LwMDW05k6g+ADgVz+pwJzLwnVFGBYh0s8u2vCjl29Y6fn74Tyb5Sjq5xhI5/EBrKAwC1kIWJHjShb3AVUrJAZD3zS1M5GqbTxbMFtCWvwFFLNKynCTnjaraFNH/zasSIObvxBYedUUbbpQ6XDuqBzYkwVet9ztqCF5eOaSl3TYt7tOyv+ibZuerGRpVt2+Pi3bP+J39SHQW/bytDTNnRXOwSHH7ILGn0NqHHloFlu/umnXipqFJ3FQxb4Hn1Cl8SQ0yz+ecE1Za3da3pDhfLP375t//y1N21cetJqSroayWs4W1Ebvs1wKKkePlWXnINDo7r9aK/d1pFnC/NK22JMbTIbWQe4duuO3dFXi94AZEAjHpztErcE39H557zW4BWgtyBI1sUQNqLXdtwVcFUt8OcO7tA96lMqslV7Y1VCa9EFUlpGitnZyOFVTxrG7b9DWjjh1d9FnThEeDaGroBQFU12uBAoNAzlk1UYWJZXxCQEp4NjQ6nwOT0PKRXBMsESJUsjiAsgbhV+CauRHBBxR4PgQc6ah2i18YndaVx6MaUz75hOXZhf1ghA89RFNbDqmaho5QVA8CvR+NqFu5l+hQlZirvAulolzwjrTuNCesJD0poL+MDceB7gilxt8gqEmn9FkwEPZLdS4WN6SJ4sqUPh1uYXt6zZvl5Nm3butvPq7S9ryLigSztWNaTn5CYbHLYpvQ58+OxbtvfkH9rI3De0O1CjgyEN5fX151Dfoh3f/oKdHdGZg1qXuqxGeaduheaVoG8H11h6Q2tVTz//sg2rEfkw5Y+eX0fIq1H6p7/1+3ZCC4A7dCxXnFlxn0RTiKVOdcOqcsLx2jC8okqf+ob0+nLSnnjkkL313gmbu8baEj1pbK+nfAaUb3PavXv7zqJtm56m6Lqa7g1A0QgagDndhjKolq3rsEZM6aH7FX5UawX7NBf7Bz/xQzauo5OOfHBMo4clu6Wbevt1C2sMaaMKI0u46oozO6xhm1o2Xv2xBbjq/VPwtm47wSQMXlwTpiyIhCZz/FRaZTiVKeKNSgyKwwQkw0qSk6KSLzgEw2QbHAhpNBYKDP4ZT/jB6usZ1DxfNw7pCLKF5Vt2WTtQBlWJuVhlRDWQG20wFd+icPiDW83LEcuD+DY3EqgI3FTYmiak5VnDghv4CctmE1kct2oMAidgnVJU9OlooCSoPd8TBeW/i+Jr3jqjq9oOSFEHdKT3O1tG7DK3P+sW33X12He1rtSvxnXvgqYDF963HWe+aUPzryvdg7YxsE96puqtzmW0d96Wx5+x13c+bSPKkyU1KFPq1PaqXrJvgA1DHCDC8V/TOvgDGupGN0Nnhy6wQ/Dm/A37J7/1h/b7l27oSrEBX6/KtHmFIoENA8dWSCOwODfHUQhx649Lcubn5+zI+1t0Aa3egHDZbYMz7j5Nw29pHe2W7i9w0z05jAA6RUrcBbUgN8Vk34Te37clBqbsO2ajzts3Fuwvv/KM/fj3ftqmJ8bt1PmzftbabSnzmj66GFJh+itE9XxuFCUZyVXefOYzqoW/ES2efHB9wYdkfgeBCiD2DITyUh4s3KFyuJEadtgeJnsDHPwF5mFyg0W9BQ6MJ24gbouvytwRgARdYCp3I0DPhMhZTIE443BHxSl8RcFKP5t+llZuKj0qKJ8OMGfT8Vd3FK5KymIgaeBAjPgSD14Uo/4837ElXgidkXs4nogN7ECo/SIKsdJq0IYTvgUlAIok/c6vJbwWAJzES6bt/g6ELjRJW9uaTqq+DN5esFFtHx/RVt2z9PhrXMiitXtN3PukrLPq7Xdp99+OC+/YxOXvWu/yKbvXo3sk+/XNvvKURgTFGJKS929ZsTPTz9ilkUkb0aKgrpixP6GjvmcH9epQXw6y2PfkCy9q7s9GNdG1Z3QRjvrIVJYdsh+cO2f/+6vf0I3Cy7Z7ZNCvhwONHGrPh26wzXDvBycM5stsfNJ5FncW5nwK4nVGjSXG41La2bl7TesZbOQLeF12DvCH6l/tCZcrZskA5he8i2d/Myv0sOBHr09FP6nbgR+aGrP/4y/+KXv56ccrVijwhlrmBQ3/OXXnnu5WVy7X+eqMVNFks3ZwYHrErwGf11daM0OsomYclEXERcSIlS0zbodVsUa4C9iApb+gOw3B+POJ7fwcFg1LHSZhPtTUylcxQlb9ca3V6saCPGUhEPgWNQQali4qfwb6RpU1OqlYm4MqGYRD/cUAixEMbnkaBv61kS9bOQGh93Do5a8xa5/j1AGOWKKNSixP+Elf8KzjC1fKmXRA0512Kw0RRoPWhKOwfM/fo7cjM3NzwtB79dlddpZLWaXwo1r823VnzrZpYW/m8nEbu/q29d95W4WlI936ZtTjH1B9Ig9E6Q0p18316xP2RU0j9tvr257Qte0aUSj6z04N2EM62ee2DvyYmJyxx5961oY07K8lb0omaElkLAjes1dfP2L/+BtHVKRbbbeO4+b1dfe0Bp8MSzu5t/ujlCKvE6e2Q/8IZUrJ9XZb1MAt6xAX9Rwt8SMubyY4l2BBUwAMdaep28m3owFIZGxGACtiDjMfpirzaAHvaK5/WSOD//ATz9pP/MDnbHJc7/i9CyUiBuL66kqZwmaED868a4/s2mujUzsifz0zebvP0FdDMQ2DHxobsGtzC3proKG/4hOTkumKkPoig1XKgWA37q9RPBNypkDmFrTADRKXwTPDw2us2hXxZBwl5qTexFZqFJlXFIRK+V0A5u4+OVE4x5opnLmajDcMgvCG4N49CoreN/8cxWEkvN5dmPCmXVLqMjThntwCIIX4AzfzMqAegGTVz1tnCFwePf/YQ3/irWJzzuSZ99TyofyDUvIRrWwvan67qiH27K3rNn3zik3eOG9j1z+woZvHrGf1iAZU+6X0OlBm6DHnmTy2lDpI2gZ1rftAvyLQHYNnD/6wrU9ttx/Zsmp79bXeoPJffY09fOhx2//wIRVXvHVpNrCp9MDyzdVl7Yn5ha9913711Dk1IPocWOyp56SsqyGgkeQ2b1eSBwWib1GGrcoPPbLTaTONRocxvggfBO7PR0cDgLwoJ4bLMmGfrYev8GtR8MD0hP2tH/+yvfzMk46XHxtkBsKDqcHRE2/Ye9fP2tMHOf4LpablorIzQlACtDD2xLZR69MxS4T1S3tzS2vIITJ36FF6N7xu5KACEZ51s135HTfxAtVTRj44bfgUEukFP1zi6cRNPAW6MNibmw4eLpSGZ84wFDyoiemuvnfQdeT+fRrcKdQs0BDAK2IK1RFta0DKnGglCfIWXpnOElCFy4E7f5kL0RQJnhncgpOxJPfany6SfrfM0yLlIS9y8hqTeDiBaVWLeOPqzSZXdcvO8m3bf/Ztmzn3uubzb0vhjzODksI/aXd7x21t5DOKUEpHXdKvaeBLuQ4NanFPC3K2fMHubfuU7XjmZfuTeiXdo7cFHAQzpnn+gYOP+Vd9SE/dQ5bMe6SMuhzy3tEmo68c+8B+/ltHbFTftHxMF47eED6fGgdGLQWpajVgdEJbcWrfg2PWNO0ueKQuLmgdL0ykL+p9TdHRACgXyAspom5VUQPAhzgkgRaFRYV/76Wn7Sd+8PPq9ceFGhWWoZFXVMekGuuSRg2vzt64bB/bdiA2AYGrvz7Nt65cOGH3BnT10xOP2na10gvzi7Zd/GbWlu28XluMC4dPgD0zMv+wZaK1V2IacCpaVUdD/GwvggewQg9PJy2OSF1Co6gKqsdHdmCCviUkAhpPbyh9OBaNZlQujy0iBbdUtiTT9idVSk2RnHVJc0gdKIq/s/dvyiGWRcaaZ7qwI22JkrjpJxh37Q/etSR1XBUO+MXTAiM6GcI4pINevJfDNgTjBCU3qgdbFc48f10dQK+mh3tuXLJ9F9+3yfNv2siVf2lbpY8bg09qPr/d1gf3RJlrtd+VXlOlOjODJU+PU1Ew5+egjp7VK4p/3M4/8WXbpQ946PWHZ/fZrt37dByd9sfL1B0XskU669TqIFHVxe+cuWi//Ma7tnrqPfv8ljs2N7pNm400nVWEXieaGVC4VCB3VD6i/FBD/B+NopMl9PBBd9FhpuN5tF+mM6k6G4ASwi09d7RBhVN5eG3lrZ24pvJzigpz1/xmIBlis2A4r/WDq9pH8PAuZbYKnxOAevW2YFVDvG8d/YZ96rnP2uPbxmz+ynnbq4Manz/8tF3+9hE7orPaZ7SZIlfGIzvoP8RGj1T0zChsN40wkD1csgdlVBAvMCHDy006GnhQVuDEk00FwySPiAFIYuMWVHlVHebhyKiS5BCDOMs+JQ/8IAoeEUfNL3ZOVimEe4OolqkJrKmB4ivpkRNfS3gbDDkxLcpfCJIOO/PCkcujGc5e/RW9+h1ZWbT9F47b+/tjpAhc/bataPdevxT/IZX9/lPftZnTv2M9S7ocduAxWx/5rI8Mt7Btml+1yy3TnnYdO/L0anFwUD0/ndEW3SGwNrDbvv3Yj9nXembtiYs37Xsff0TXzz3ui2ZJyQdZLUbyLWjz20WdqPPGuUv2Vb1i69HlNZ9YOqWt7EP2nW3P2tHhWRuV7ORqprmFx308D4pPCh8Ud7Po6IxoABbVaXPkWU+/3qp0Qe5oABKJ95yLygw2SsBsRUxmRnSZRil91gWoCYmPy6uaYPTe13Rxwl29ARjVMUwgMUJgN+BFrQmc0teB/9Vj+2xDJ7jMakfcJ3QFU58qDBuBWAJwA00jJ9ypRwVSOPoltg4EnsZZEK6IWRhyAQh0mOyC7Hh45fAFJHBAKghVuMPj4fGBUUVYOQQtFAr09ELiwSWfFOzeJJE/42i6APqISnxyKAcrTMYfvvpZ83EsD6gUugQ2cZIPsIBLKDmyRB0eAVUk7bC2YNGq0qnesGOvT4t5L3/j/7O5HY/ZojbsTCzdtiW9tqMB2Dt30Q4ef81mP/glLfqdsrXhT9jq5BdD4VkM1bw6MpiMysyqxKgcpIFyGBjQa0K9KgST7dZbdajpyW2fsa9ue9TGpKxsDz717ik7fPqSPTYzYbv0zQAnAfniq3gsqm7f0OvuC7qK/oRO0rl8XnN8LTR+vxYZJwc27LimEb++4xlb1Mh0WqNUNt4y+Pf6XkmzuSPkipQ08yzhNWUztIam6/6hiSW7IHoDIB3mCPQBvTpMeAOz8y1ABjJHX9FiX696b5LKgt2I5lV5zzoNQUvvn9IJf1nfYr974YwWXKbVKg/7XuUetfpLUvxfffur9je+74dth14XjusNwaeef8mVn3h3CgbfbGSiMhJ7GKJwd3FklCW4GiFU+ELwRkDP3PsPboaTITmiqDIHpXOGJRK5M56KDlgC4VcFhCP80QjAKv24naxBCyxMiRXGhJPvhW8zrsROu5OVE1cyJ20TL6OAh8NLJrQqf5UoxwEveVV0OGQ8TLmG8q9K+Rn2f+Jb/9omT/+sfefFX/TFPRqBAb2WevKD79q+t3/R+ha/Zaujn7L14YNSeB1DvsabEuLUT2m/n0k56PVRfGwMcEaui+uTNnHmNfuyOqDju5+ym0PjtiCer2pfyr/Uq+a+e2dtXCTD6vEHON9P79JHbt+0bbev2+NL5+wHV76rV9e37PzsD9uv7PqEHdGwf4cUf2ZtyVb9y83S2RUhPQ9dgJKfBZ5WFZ6AYn9UeBv5h3o5UAcdznMNu0nXMQJIrmw3XKYB8BEAp/Ro8USbHfKasJhTJHYpu+K9o6H/716+YD+042mVaWwCYtHnyLHv2JcfecI+9vjjNqMK8Yp6fj6E4WMGtmBO69KGYU0raGwUbVXhPKPUTfvJQYqDegKMntu1VXYqcsc0QWGBj2LXPTGiVgpWs2k0IlGpwEtDdJj2kKyQERpPePuagAIjnEoDsIlV3MhPiqoIAq8bXygSrZUTUFIYETRpm/jA0+/2Ayp/RdQWPzyIs0fzzDWVIddyvfTd37Cdb/0ju/zkf2K3dQYEc/0pKdjz3/01mz7101q9f9FWJr9kW3ThRyi+FP5DlD7TivwMPvu1nbpPyk89UV/lb4/WtTtwTQt9jAIGNq7bQ0f/Z9t+7vN2a1pfCI7usA1tn+UeSDb9bNVN1APLCzaoq8eHV+ZtbO2Kja++6nXi0vRfsN/f+Qn79uQ+cdpi+1fv+MgF5fepXApTbHLc85Jik8Pd/mhF7AJqRUg+QLsgV/F0ULUDgpgRAOckVKcet6PJ39kAlIhpNZb1sYo3AELkTEAagDwn8FtvHbXrOixkXWfJo8Cc4sPxYb36/PKChvZP6fz1vkFeD+qVhHqFK5fP2Pyda/bjX/oxe0jHK7/8+NNSfg5kVGFQojIcqDijUQbvL4e0kONnAZJqGa/QxU3uhDpHGM+GeldKHHCwha+K7kkrPDwzS1qjgah5BaIzFd9OU8iqgK44FZLH5AXaVHKCky5Ro0Eq0ASWWNq8VdzOWJzIEYznUwltoZEHf8Lcbih/Bc+WtOBW8G48HSeUHyVn8feVN37Ltr//01qt32M3Zw/YwsCw7dO7+xe/+vM2eu2XbGX8CyoL3aizGtdXfRTFJ3/6tXOyX4rfo3dwpJUfG3RWVrTjQu/5vSboHflaz4StjnzOeleu2rYzv2ts8blrwwrWJiEW8bRAuEWfX/dtXdUeFC1K947a5Zk/b8e2vWBvTe63Wz39Nr0RR4KvlsbJOxzxaTdergCRpwqsXRWo4DSxWsLkaa8TzfBNODZRKje4dEDr0ts80LQKbDg6G4BKghiKw4Qf7zsHNIzn4wfuHvuvf+5X7IJW+t+68A0ND+a0LVBHJ135wA489yX7U08/Y5Pa4NI/MKTy1WqvXu8cOfG6ffpjz9tz+w/YK48/o3lbrfwM+Yl2VIt/2zU3O7GgIZniovHIRKdYyE6hY6gQmPBmoxC+lpGAQCzA0Uh4ITVKEhbwc1YR7G7nEqw80MM9ts5HomVIJ64gFVBpKgRYpMHlSmLZ7fwaQR3OD1V8+DXig4HTCJa5S3DCCMcErLjb6AOKQqk3VvfLCv+ayvnjb/2e7Xrn79na6GetZ+WyXdquO/X0Wu/Fr/2CjVz/VSn/l2zrurauqrP4KIpPfAzzUfxeKT55lmkijMaAV3937/JBjzYU8SZGjYz/BnSM9+Dn1OjwClqEmsezgaffFrWN+Jq2HE/albH/2E5MP21Hx3XBp3Yd6ns+G5KMuMfYpak4ShZUNvFWJgMd0JJzgdIIbzgr8oppCeyKU2M/gCsyiBEAi+k5BejGt7MBKOxRSjKSvpkMYP/0iBQU87U33tFnl2v2/LZJG1rfbpPDT+qShX2+aPjo/h02oq2RM9pyNaz5P33T0fffsMP7dtuf/dQX7PNPP6+C5Aw2DfNLz+9M9WCP847REXtTizE7PNclskuNByeeugJkRUibrh9lyopd0J02HhHOfIGOroHpwd4uCJ4Z5SIQ0gTIG9I4SddHoncLRD7kxYB3P1xHqh5g1jFXdHKkO+0mCbCEu5ITKEDmkYc3ev0SXNMkMQENAzheyWoRTQu4z72vr+/e+J/U839SSq7PUCefsKvjM/bym79jo5d+0VampPw5z3+A4X4quCu+hvvYWc4Z1hDHGwHNHtVBKW2UrwJTdLZf0/P36KyFvvVzWmyct6WBp+zsxA/aialH7YQuil3o0fTW66TmzRoh7NTXdS9fP2kXxnfZyTFdDKrFRBYwH8hkxE3kptCN8CyHWtoWoqbnI7uZHjGd9q31m1Bv3gBI+SHMbb9H9Dph29S4FhVW7Te1IWKXlHxNQ39OVJka3aVDP0ZsSEcvs6WSkVifRgSctTavjxEO791nszMD9u4779iXX3jFRSEPMjvT5gOLHWMjfvBIa34FduIlLThZKdKGaTYCji8cV/Zik9EBp5I4sp51MVBrmgqKsOAL3FpGziTCCArjWMVdEDKoC0ZrUNJWsbXxiUrtQKEmNv6muxBJCVrhntaCmKnF277JJ/k18z9hTRs37/pv9w/Z4XPH7NC3f1rv7Z/VZh1dvrnwVZs7/CM2deem7Xr3/7LV8U9Fz58ZC/EmJuN9UMV3NiKCjtuddAqN8oOZO2WjMyn1mXXP+nmNVC7YSv/H7PLUZ+3c1GN2UnX24sCYFvW22pDqMeuIHCp6YOGqPXr5Xdtz8fdsbupj9tpuTVW1SSm2/FQZWKQvfnzpTDtBDX8henDLG2Yx+CPyYMTD8N/fKG0S66YNABmqNiAMualtvdt068mbx07Ym7p6aIdOU13RcG64f1wrsSO2zEcV+sKK4dgdnSFI67Oq1w8cT/TcU8/Z0Xdft7////4d3+77n/+5v6Tw9u2XRLbFZrUQSE9cvQmQm+jjQYVNP4XuIW2NQCBkI+CkAmVehnYLoFwFh8yNV4U4s3GASvEEe1AqA8j97UDHcI4VbjiaiG1BHd4SYUlsC6U8LX7RtvthR/64HZZw6kREUD7VoDQYpBO7G7ywcwucHvUsdzSN26NXeoe/9Qsi0lSgb8LfwYN0TZtuHj3xHfl1Pv2WQ4Vpps/ZtDwyzo+k+OKQSu/KrhOVtq7dVP2Z129Rm4322MrAAbs59aJdHD9gZ8d22SUp/aIWAqljg+rV+yX3bU0L9ujcymfOfcd2Xv6a9a+8ZiuDn7SvHvq8T236ONZO9ZXPtTc3mYObY0haBTbwGs5OKmqjEFpw0pN2J1U7xDEzc9sD5d+0AaDyU1zYHHzw5MSwlHzNvvnOcZ0PyCk+LDBsaOV+u7s31u6pMej1LwTnbul+ObUeizqh5blHdtqthTs2b9P2fZ/+C/ZXf+Zv24RuVfmLP/Kj4h2V0FsqCcloY1YNy6TGcbx18P3MKbQnQgqGUDIkDGckMOQEhfBA9RBQw7SEZfMQOP4RjWNJHp8H1DS4Mk7cTa7N+AlrMUXOkLIl5MM9iqQZT5OgG9xhJSDDwyYzgtork5x4s+FMvk0az7sSkHC86cbuUa+yrI90xvQt/NNa2R9Y+F290vu8dvDpLAcxWB37Hpu+fs62nfw9zb9flOJop2M2RDBrmIyPjiNf6WUZZlgDPZxSRtYQfDERhV+/pHWIMVsaedxuj37cFgenbH5oyq4PTtvVwXGfy7OCj9wM84fVo9OAcaowby8+ffa7dujUr0vxz9h63y5tRNpr7xz6ETs3PGmzq7oh2OOq88CFICOqMu6QsDsgM7FiIIDD0i5kLQkPongqvHJ0j+KjQu/TAISSk0ZeJTw5M27ffPe4vadLQsfYZy0h2bzDL1by9RmnMrVfjcDhh7bZWx9ctgO7pjR367F3T172BcR9B561LynD/9JP/i2dGTBif/pLP6A8ZIhSKqoszgFk9OAjAE+sHghR5baqcun5AaGv2bu3KGohC9Si8MBEE/kbxLBGOaq+WwRCC8bYGAeEsyWOAFXP4FW8DZoK4Y/guB+brCdNnGaPT3RNxScPkyZFgTbpm2EJCx6BDWyrGnZW/GH09NGv2cTZ/9tWJj4n5Y9bdLOY9h79JZWLPoVmWF7FEHzySXzaYa7FYr3S0/frWTZNOZC5MkJA6W113u6uzulw0B22MP60Rhs/apem99mV0Wm7rSO/dDUHtcpl7VV960XxaYTEOF/jzWtT0v6Fa/bye79p09f+ha33P2WrGi30rV+3G9Ofsde3P2qT+kbFe/5KgI/gILMUn+e/J6jkaFrF7uS4aUAr6gOggRJTeFbyuptNGwB6eIbvLASiHKwofvuDcyoobuxRBqsl7dcqKb03awWcDbCmyf8bR8/b7u0T9uLje70Q3jl5RQ2EChlN1dCLg0WfPfi8/Z2vvmnbdh+0T+l7ABoQ9hXc0NFKP//a6z714HgxcH2zkUgjvTwlTWq9bJcuwFXlpiJhnIYWoPixmA/5yMMRMgxMxwYa6DQEha4Z1kDzCusE5VFzaELDnayaOC5PJ+rmEBE36Tvd4liAqfgwI4+8DjY4J21lp8Pxa8QGOBpbBXHeHvP+3W//lFb8P6EePvbGRc6hpFI/HX4S/iaH4IsslNGgFJ+VfdzAmjJKfR0JXqph2ix0x+5J8Ze3zNrN8Rfs0sOP24XZ/XZNJ/ws6ZUd24zZgMQBIRz8yQiUmFveJCkCFHpZde2Fy+/rvMB/rg/RrunUoJfU4/DNgiju3rF39n/SVlRX+/UGYCMrU2ZsJKEkpOlpuD0hxE4OwJXENcJbPc2ANrzWoO6+zWsRaWcU3b7Y3uTT2QAUQREc5XOv1yt9Xy3lj8oUStRkRGRERGPw/rnrdvrKfGwakgBq3NUR9NlNffRxce6svfT0F6x/cof9xpGj9spjDwuv1xb07cA/fvWr9rrOVT8wrjUFNSb+CSORSIiQhMTKK8uTDbw0Ao6DnCl/oDqxjxi8IJE+cLJcA19Qxy/hRAJDj1cxF+RSlB6aKLWnsKjibYY4q1aAfEXUDngFCBEqL44mTbgVYQPYqvhQSOpGeJMH4GZYG1rNVgGEsei3rBHftBb3Dr35qwKM6TXaoBb47iiabr1MK8eMq0/v8tm+yzcmwAIOLnnNiIFGRHsFtIC3RW8U1u6N2M2RJ+zivqft3PaH9dpuRnJox6HqWp928o1qlx48OBUKLv6jzATM+srwf1WKz3d/nzn1LXvs2D/QouWjtja4Ty2adiH2aU/A2iWNJr5oxyb32IjWB+IDJrjJFKuLpxUUiVES+Ai81Bi5ffnAeeiRvBr+AGVAsKyfgm8WtFmAks/nwIyoaQQ2M50NgAgxKJ8fyy0mBRQFRe8LhIQqYe6rQMIVbFR7+r33FJrTkgFqnS9fPWVPP/IJnbyyy04vLNhf0XkCKD8HF/6T3/2afUO3ED86MWZ3NOXgWwOPghiCSUmq4qCk+aSMXhppshEIyUJOh+vhRhXBWw0YQVEseZ01XgcnIHACW/F5YqCswyPMObU+CvtWYB1POxz/JiSO2h5WS1YTBqzGTJxIk7Np4ZWYzfCEJXbllwM3xc43+/S0jx3/jr7a+5Xyaq9s6EnCTWziErl6fd1/oAYAvzrpkv8qH72moxFhKrF1neOs1/UNwUG7vOtLdnrn43ZedeaO3jgwpO/XBrUxLTqjVD4+8MaHMqYceSggbXl6JDNfJrJQ+fnjf2gPH/97tjL8KXVKOupu/ooN7TugUahkuvRNe3/3C+r12fGnsxtUb90UluHJJ5GU+ArI48YtOqVE095hnfvIS0U1Zvpb1yEw0RIUghYrIgmuLQF/BA81VTqnPPjoI4ASHZcgDumQTjYA3c+ULIpML4rINuKtanl8qK2Wt1fzstu35mxmao/uZN9vd1R4D40O20uPHVLG37Wf/crX7VV9fXV4Unu2tf3YlV8FF8MnxVByxcuDfKI2SimrqQACFpjrubyUPybLECaxdhB0rsyBUipheIKOmJ1CDIAXZnJFYxANT00Y3GosaFrN/cJaMTt9QVtyusFIKaqQEyfTXQXIkViVnY6C1Oat8HE0w9Y0LN5z/YLtOvovbW1MQ38t+jUyuBll5U55UHqUn0YgYeQiPT5rBf66TttxN7YM2Y2x5+zsjo/ZBzsfsaua1xPHkA4LGdfXhZwXwbCcMwErJU+GLm2dK8jOqAW5wf3s+39gB078fVvWF4c9eu+3prQMP/SoTTzysN387mt2a/wH7dTkLm0j1hQiK1uVkvs4qvgDJ+vtyPCY7R3dY1dv3rBFjZq4I9P5Fvxm3rZkdEvAfeJtIWriRV2hAeCaMD56wpQa1ETc/C0ASjig1fhYA2ihqT0kpNIwpEa52K2lCDWC8KZD4fT+XA4yPDat1vCuHddbgf/+i9+j9YRe+z//7Vfs106esyf0ipFThdl6TLULZZViyRu9t9yKggx02xNPfBR4gcntW34zpZ6RwS/EDFz44Q9+xBaZk2Qk0EnJMuLUn+OHZAS7yZEB1FVUHhLUBQ0uH2o2pWgEhLMBENfwKf5WcBVfgis7HRVthVp4hb/Jj3yi92eOffD4N/Wt/Tu2OvjFeh9/zaLFldUjv9bDr/bey4w8u6t9I1v16W7fygnxn7Crs1+wk7ue09d3B2xed0nwDf+oelDWAehDOROwFL4s6ojSz0Mm3DjSA6r2stDzKq7PnPx6Uf7PSSEE12lD/dM7bddLz9qVY2ds4+I37dKL/51eCeoYMU0rvMBhLFOiKJ6w7vekvLeKz4g2wu2dmbabOpdvWeng8+O7mlq4cbFJAD5/BLx6Fli3oArn/g6O8RvSWZus24XprIkdU4BEodUY0mo/C3FuEISa0F6dXUAVhhSf4F4WT/SudRml1zCds8vWtALbr+EbarKo4f1TGuY/f+gh+xd/+Jr9nG5T+fg2rd5qgxFrCIVdnf8ZpexwEpcUuClHFSYcJaBVzEIly0cMySXAFS7eNJkH6SfNXsEECB5AkKdJJRiRu0k7fK1YDZSuASW8WO1xAA6yD1f6Glc0EOmRtM3sa+KBEDhAw5AsVv73XjtvMyd/SQt/n9YwXUeY+dA7sVpt4qOT5oAO3u3X+acFQvX4/PpWziuyNc27v9dO7P24vb/tIZ31P6Rdd+s2RW8vljQ8GsS7UNQfT4fgTRnDzTPThywB5VXfy2eP2KH3/q4tD39GMmm/gs6kYOSx74uftlWdmbfw7jvWP3HILkzsURmKLnoLmCSbcD/gk5g5R2NuYV5rW0v6QInXo5pSMOdBrkyE88PfYOxhJZ0Frxncihy1sEEdzlL9WAMYVAOQI4AOPAE6GoBEohdn6291d1rW6ZQm425oGwq8qkTu0kGLs5NTulb8mk4lva66po+F1JAMqDAuL6/Yn3vioH396HH7ydeO2POzk1J+vbgRrUeR/CW8OwWMKCj+MIFHuLuq8iIc3GwEXB8LkAajGkk4p6iUzqLBGI7pJbaIAVeYGJmUOBqYQdekTIputrBL4XYLbYfVXIvM7QjFX+O1piFXxJPMc1bITNEwSbeZSOQzc/99Z47oWK1T5RNencyzSQMAn9yfj51zfcaEd3UV2lY6hKXftYXJP23vH/icHd1+SD3+iA1riByKr+E5rUdTOOQsguY8P3t/EuBhhOPQP4p8RwvPj86dtyff/Vkt9r0icVULtMawrv0Le7//+61f51Ge/YNvaW/ALVsZe8KuD+g24BIJrGrT6kt4V6jo+VvR/oHllTvKY52KRC0SnLddLqszEHUHgw5ARiW7G36AG0gtTkbvw9JhRtqYZruWiJs2AHz1N6IPc7iyCxNVJdz+BC5ty+E0CQSnX1uAh/QR0Oiwvry6rk0hmrvxAQeFxalCfO33wdU5e+vaTW0uGvWzAz1/SgJTyJqvkg7jwj9iUeRCdHARxn3kkWQKeB0ejULAYRabffDXCkW8iiIMDGRq/uHPpwcTl2MEFNKQPZkkdtiFZQG24rT6ki4oKpkS3GY3ad0tgoAlffFJWdl9CZSegde4fuKQT7kaaW/jj5deeGJxwWbOfl3Kr409vPO/r/LrW3udustCcio/uXV367D16gq0LXdv2clH/pa98dCLdkmbbdhqOyVlYa89HxW55IUw0oQUkQ5cTRNQnpluQpn399ikRhEvHP0V8ZMcPTrEU1evrWnxeeaFj9v0wb128dtv2/LV6zrnwuzm4Hb/poE1gzCyg23xp9UAJq6jAg9DXefn9UtfFDIa9sqV+KA5uhOGk2fNonAqVju88leOFnzyj/gp5xF9wctenM1MRwOQvQLVf3R40BlV23LFpVSrws+jqqC+6KBiPKejnq7M60SgDc171Or7OqK0kCFQr94JvnVlzu8AJD88o6iE8niWkaaIBJAbH3a74pYg6DykZDJutJwsL2Gp0G6XYG9IIhZBosKUqCKuyqNgTPqLE1ndhKY3gx0cwQ2iwI6whvuP6yxSVGyafvTGM6fkBw1enim4rgMyerYMqKGK25fUH2dGVry6OXh3znHcA7d+T1/0fd5fz7VkTiEi/XTcDPtblV9zf833+1Yu6KiuHfbGU3/F3trxiJfEhL/CU0fB/F6G3It8FDMKzBOHQnmwbODgJKC48ZYwwhlBvHDqmzZ281e0Q/AL6tmXbF2vmoe14r/z+Sftjl4333hbh44Oaev5xiWdYjTsewTYKYhxOWDpvvJo8SSsALFSJoLEx8uiTKEreQtZqyXibrwdadOAVhZtPnQRylEdZZapqXW7Ru5oACIIUhqAIc3j1XoqJb6iH+CaOl0FTq/CsMdUqCsrtzUMjP3+5IsPv1Q5WPUf9U+21LPIzaeZkPNA0R3X3eqdI0QwFYfCQrlx809oFJMv/IlF0UuXigyPRkAKIDSPAxyi8khonwOO7UZIjidA4CW8SFLgZK6HizE2Ju3w/bt7ptxNji2wlLkgeDm5mwD96PmtTzcRjdi0DsTo17D41K2rykuVk8LhFcde42o1AeGV1j2buXra9dExnKgVN32s9DPs96gLMOb752xx9En76nP/gZ2c2GnDjAxV/qzo87qtyj+PNGKOZyQDVl5uAtb1woEAKhgLhhzddejGBZ03+P/oXsBP+VeAd3m7pMNBd2rRb6t6xKtHjtmGjinbqjdP93R+RUvlCYYpfbEbFoKlcA1wq9NrSIDIjKZJeR3sHg9NbxN1c7djdw2mDlBHGe+N6Rg/zGYNUJcGoBCLyZgaAO4FZOjOjEz31jgzqjuuLDRXRW+t5QIXATT0oeenckXLI2yvFQqjQRHDgIuTMyNc/7JoORmKNaqFx+toIIm/W0WaGPZT6SKs6vwSNQijAREpxleR4RORux1B8SwkzhM5vAEDC56iiQzNCELuwlpYm5vEgf+DmnZcZOhmKrBH4lIKjYM413XtmhZZ1csOagPNoIbD+rxF+azj2DUvdYUSTeS3+0QXkrLg6jfy3jirj30eVb5pHpuJaAiBTBzWkQt+GcTicK922y2OPW2vvvDn7YJe643rNB5KN1/lNdll7JnGrhW3SijYxYOlH40JewWe+uD3BdCogoqmcwbvqsGZfe5ZG9+1za4fP2u3T32g3j/us7i3dcYGVxf8O4GodRXXTEaxCY0asxmGI7pIengi3BNEBDZhCFyCO+iAN8Mc4cEeyMj8nwtCx/VxHYYGwc/xdF/9QA1rn1yhExHzqIgntIrIx0C+JTcxm8JVQuKI7GGxg4bAE6CIEz3T7oXqQD2wZYC5s8VfPAoJF0/9HBdYCQ9Q4VNYZpBHWsjASDhOwtTiRNwojLySm8soCaKhijBsiLWgIuWJRo3RDTz0c14NN/5NfgwwNwvbFK6AKi6Q2kzStYHlLWlSjLpDxi7rG/f3b1zRusu8Fnf1TtoTVcq/Siv+AlM48g5oca5v8aqu3tLtOTQAGS5XGuoNR3R5/Umg8NjYs9Y7bV999t+386MzNqHLYzeklL7F1uOvkIs88ldprBwRJm/IXOcHuAljoXJRr98OXztj01d+Tfv7d6sj0Y4+nes/uHOXbXv8oFb9dd/lMd01oM1EWzgok+2+vdtt7NZxm9DCXcgVMiXfWsKGaAkk/hTYC4mACiLZEhFwDa9IqmAQA7nr04EREiSljCr6cICBrtJpD+uG7THtt8F0SwtwOvYOk8hMAaZ09dFyewPgFCiFovNxeRGsmUBwKnnlyJwoNlmB03kkXgAcVpxVuCe3sHEWqbgNWoc3M7GEVdle6Gu5EBEkcSdMtm/UoBaLGT3iVh1c2q/Fq2FdSjE7NKM3GdyTWKYtJLHEkcnF3+3n4SWMEU4L3SY0yQfaphG6S532ZmEky9NVGC3rEpIVXVPGPQRxDyFDNP2DxwM7jQuo3BGc9/89eu3nd+55zIkUNqgM+3Nrbx0q2Po1++Ch77f3p3b7opx/SASC868xKy954eE1StYRhycpBPrVZUtjxb2B63bo7Gv6FmFaSRJMm9JI28yTh7XqP2w3T1+wxbOnrWdEvb/CGNFsqEwHlv/QDl99378Q9FeBRTSaUP8pLpSlGValAcFKAmp5GrBMUOFZJxBApCNgidCwnbabH7oGvOGkKDkIZFwL7uM6YMdNV1ymd/cxNAAzyjSusfa5ZTcmCSsZ0CoUgfq5hZ3+Aktk4P4rwoCGESydmcEwo0JEiFKKu0IKNvTcjuc83FkegQh+C02GEqzci0aAYZMWcjSaQVm26uOWhyYmbfvIhIbRY8o4DS89mpDEncmn2LIq04wvge1yJLxpfxhfcJs4SVvxJj3ysN5yl49k9PNDIsgjhVFZfGCLw1sA8jPS5Lxg7nDC3ePg5gMoyt9ueP27vHWbHdeC35BW+lFQcF2hG8jI6rxl1053teIGouNWEhYaen9e+z1886JNXn/NNnRfIKOVexr6D+3eY5MP7bbl+dt28/2THjPbgJURngdbNUVYG3jFHjn1r+yZuTN2o0+L3yGRNh9t9Q+DVoTPR0SrWrMiHZh4hpwO4JGECXCZBUw0d6Y/7TrdSRZ2ErVCP8yHrq6q057UIv5YmQIUYTtIN2kAImnDeg04qyu/OTe9Kl+XqVOwABe4rKqQIyAqFRULP+FY2MAQy2GEe0jA3alWHJzi9vm9kJ3OaYI4/CCFAd9/Tb/nQsHJcPfyCHhNpzxAKfSvc4/0fcItO3p9zs7pE9KNu8xhZVQ5nJLhszc6JbJiJde0M9Rp5Un4/eykabebNFWYgCl/BZMj1loIq+X0NwNKnyu/I9d56sn2KhALgGt6j7zeP+bf9Qc+sdemoNYAdwmqxmbZJnR2AHv42QAErJU2vAju//HwRNTsfB8D9EV+z2vcQVxopM8iOXD5qPYZlE1KKLjM1GMHrUfb2ufPXrTF86etd0QLfy27/ZANVeix73nrn9onL72rMo8tx2Pawbdr8abtv33N9upy0hktcveoYVlSY7CkTW+sjjEq8JGBJ01yeWJIkANKwsTe/Y2ElmBkhMQf4OBuhhH0Ec2KRgAzY8O+kA+pl1EXHl0WAakwgTnIIZ2TOmhBDQDyAE67ciCwE5BsBs0FA0thFDpKW1AKBwGcDm+pFMmcWKDFVLAa5OAKHnEmrs9GkCITIHdu3In4izxOoAfxEF2JryJr0Kn1KRMlnTevd9gsqHGXXF6L1lxBr7Ki8M9k4K1E7hJWQJtaTT4dSAq8b3ghiDyRFMokyqmmCQbpr/NAhI6ugzO0jXtZB2YO3nrb7vZPaIVJ77UbBtrMwxrMkFwHcC5esnFdZ31L++L71Btv5Hv+iiZi9md5OD8YiWk2rL7uAog/h8tTyo7en893Z3UA6cy1tzWn1/cDwrsrJe+fmbXx3Tv0wd+izR8/pTZbVZ7ejCuoq8RSRzXS48tGbVJ6QQeb7p/9sq3rG5bJWyesV18kblGjTwOxrqng8uAOuz62X98NPGwnR2Y87iFt8SVX63QgQcMgc8Pb6iQkQpvPwBHEgRFSwVoZVD6lzPH5hmebdHdInTim1gn3Vo+uI4BAZtWwx48B840jUoTIrxRIPDJRsl3ItAv7kDvCCALJUeIRNBXMg/F5AQduw+0htPLBw4mdacbtFAVccBREhhB1xB8OF0VONw2PVyxH9GxUcCgKU4p1VYw1VYKYEgR/V35QyRj/lbgEarB1D+1IS7I98lZ8aLr9CmpYTT64WwI390ji8pdpC0Yuk8gyCe0cwF7T0PrG9ke09/+s2mspUJWZgQ0Op/G2gRWfekfd0nPg1OtqOFV26mWrjTYueEjvdDjluOsLsCGbN76FqQerQeGVptdPRZqNAycT0xvvnb9kA7rGy88iIEGavo3u26svfQdsQQfZLF04o95fc38dVecJDvHLszQC2qK8NnDYZq//ge26/GvWp4NH6AHu6Rrye9rL0KtPlMcX3rJHzv6UfeHtn7Qf+uC37aHFObvtowGxzUxIuUu6qqjwU2r+zyPcVXjDkawqkFDDkPh0t9qUBSNmjtTfru9r+NoW5I/cADBPxGyb1sm/2hbM8cLJZJO4Q9kUcQzNSFhiYuPHwg53KFwNo4o6TgG1ukuYk2dlU8I8DgExxXKn4P4nO6YNVbTuaKC20CUtthsqkgyy0hCwLuDyCw6PKvoWhk5SP8QCNo5faGgQ+DVlrglqF/xbfnXQA7kiCtIQ6SDCzHfCkKsksSs/qDgF4vyuQ7Y2pHfoLAZqYbQpOPR+HLcagSYvcujuwB7bceJX7Mmz79ot7RD117vkJbGVtGG7XFgw8AQDYhFWx8xp/WWkb9x2jOhePm3X9V2ipWn3tMhNXDtunFFZ65Nbve5k7s8bndHd221Da1i3Tp6Fu3RZfR78uxr4aIYvHqu6W3Bl4KC5QD5UAABAAElEQVTvIBRDYQfNXTUQ6706j0BHna33bbddV37Zvu/dn7FXrp+wRcXL+gB1MpLEsxGXnB4SgVVQeltFatC1BrTybAtDR3kDwAE+O2Z0LZ8MJ3Wl7rahq2nbxJCxmFm1IjND/X5GH0xrcx8BswBBrjKjJN5hgIsilXicb8kJB8mN1+Uo/FIm9yqwVqKCXOE7t6Any0WQtACTL3ZlWjyNeMEm3fmjMrTkQ+EnRilXN9sjrSKrHSHL5rQ15oO7nKfQ6yQFJOWCU5WcB2DLlV9X9SXnpcM/rBN/v66Tf7WyTPm1mZVVFk0DSFzEsVXrB+wCfPLb/8wOXzzhjQBlwbt6l688wMd4RRUhXt+urHhQ+BEdPHtgelr3U2q/vt7KaGzhcHp/tv2OafPZxPwZtRlDXtZb1Gn16xbgQa1hsfi3eO6s9Wgaco/pS1v5ecQtDzU8WhjcqhGf73twaZBIDVxpILbe5QOfNTUETyGJvXTiJ+0zV9+1O5KFilCPBCDL+icens60S6Se+IIT0bRI81E83gBI4Ud1NN/2mSknrep+F0alAWgqdmC5nHLOaKfUTp3Qs7iqDzLJuAwAzYWtBSeiKLoSqHBHLwms8NtooatQ0gEybhi4FY5MjCjgIhR6ZXe4P2E1HeTOwHGdSg9SnPE6uRNWLOSIlLg4TbDcSVdEaAvt7vV4uwc5NGW4n53k98PpFo9nowJIM0X4ofXfI3JsT6IfyyX6o4+8ZLe3/0nrv/2eTtPh0lcG9mHgyShgeSVgGUd/r8pHt+5watDHvvZT9pRGAos6UHRVPXsvr+gonRRaDi/f9IsnjcCqht03NMw+OXfDrum7eu0iEBW9tRRVNMuaWkwv3tIdfxf1eZsusNXVdOOPHLI9n9GZBdoMs6htvxsK36JNUHVkKflmtiJHDtJY/RqCeW5qdLShm7H0gdNa30F79szP2ss3TupWIX2B5w0X9EmDm7j0iH9Pq6cXcGUCP8gKYhBWGPdzkO8rytcZvQFg9L65EaLMpiMAMhczoVN692gowSk9WajAm+nCX1IXlgKr8EhP8WcBA0w3ThIaME+r0wfMla3kWKIETqFzi0ZA/GgJ9B+ShztIS7MkEPEUSx7Q8YWp4A7iASfRekBBcquKoRIdnA60JsmHuCOm+yP9UfnTK3jZhdj3j6SkuUoNkQrG+/Wb2jl35KU/q1ds09a3dL40AnT5juRxrOl06OXluhHg24+BHt0b2DulE3iX7Zmv/UN7+ejX1btu6NNf3dCrysoiXpU2OaKBDZ6UKXVxQ2swlxeu2A2txK9oGrLOkV2io2R5VTetY7171+c0AtCnxnrl2Kf33+O7t0mmLbZ0/SZDkUi3F2Y4N38ihKa8enuxdWjWtg5vs62DM+73tDYaPqYbW7WjkvWNjZ6d9sLZX7aHl274moA3Ah6JJ0qSYgMIfxW/wypfhDe9uCscaBuBXcqUE7V36w6PKV22i/FRVYOk6dy8ASjaPqK9AHv1vT6bgVCyMO12Gxiva0TgORnO9l/BywL31lA4bnsYDxmn84C6coS3gavsVUT+5/iFMGk9JMQSYtC5jCU+8IqpSSpGlQiJ09Uu6DVVV6z7ArMhaNr3JXigQCT6MJMxdk8EL2u4SffM7F5749P/mVba9V3B7aPeCPg5flJGDNVmVY3A4pI22JQ1gUF9HNS/ZVWLiZN2r2/SDr3x39hnv/1LtufGZZvXugAn9tDAqILF2kCK6mILpmH+Ovf0qQHZyluMUm7ERfNAAzWuSz63aFjOq1kq/Jp2/K3pamxGALzyvKcG5H6KkFG64m/t10ahnTp5WBunzv+6rZz+N7Zy4Tds9dZJbwh6hrd7PBwk6qMD9aPsONzgg6eNm/aJS9+o1gF8PSCzv6THK1NGSFqomyVNLWGJ8xFs+PAKcN/26WoPAB9mbWbu2wD498vK3H07Z31RgYsGnVcmCK4hfyQAb0mQB3miCgKIJQycSLDsTHGBud9JSkgFL5Hh92jh5w7nhROA85btgwEHBp7IPNyfgSxc+o8SXmgJT1OTFAIFwCd4JVYXG/SCV5x4i4kKmz7sJk6rG/kSv91ucvjjuJNviTkFaLAMEHg600+Layd2Pmzf+uxfs8Xpl2zwxm9KGTTP112QmRIUk5t6aQRWtS6Af3i41wa26phtbade0wc6s2d/zj7x9Z+2V97/pnruVbvRH1tWaQgyjykb4ubBAiz72zluzutOiKPJQOz9H9G7+kBVgBb6NnTOJI3ArXNXbPLAXg0AdHy9z/83rfKKR7LqohtGELdf/9eKdNUmX/rrNv3Zv2lTH/+rNr7jWVt869/Y0qlfU8Oi0YtuF9oq/DBMR/SmqGfGtt36pj1365zd1GJpfl1YJURpiTqHw1NX6EN6fzrYERth3Z1NFjRwmU/79c0DDeOGRlr3a/jKuKiTOYVGhpNdu7fP2pQO+uR+gGF9GxAjASVDCgSel5BXVCQXwC1PRSTSFS2CfEWeB10KKKW08fqJOp4iVXyFUf2dH1kGgiAeX+JAI6ijFauotOO58sAn4wM3BAj+BR5xE4Y4oopEgR0SuBgpi4OdHnyPP0DdnxVZkcxlb6A24mpAuzhh1M0gwWZh3fAT1pRc9F1YtINiT4eOmdLpTedmdtvtT/9H9tR7h3VG4E8pWwd0G+/jLgv7/30brgYFS8tapFNjwKUfNAK9WktaWtW11VpF71u5Yo+9+b/Zjouft/cPfUo38x7QMLrPRvSxEBnMZ8hRAEVmCcR0IOTSUzjs3e+XYg9w23DZnckuv5Wb84538/hJG9BCdt/UNtu4c1vD+LjTInOhslF+HXO/du13pPhmj/6NX7Cdz32PDepwm359UnvpwgU79ubr9syf+et29TtfsSuv/m27q3tO9ULAesdfFhs0BckQUsemz71pR4Y1iqCGSM5QemJDbuximm4HtQOa+E23kNuKHi8H+AzqA779uzRKkfFp8X3avJ7/QcYxnVu48omi+0k9UpRvv/WeFmCW/MRftpW6honG6y8P/UJxEAMvNsXlHp6B27CdJkIasQe9g/VwJW4FOTTDM0M9gytgycSG5b1GlfkE0KjUGYrTDSD3uAMP//Fz+soDC/5LePALno0AmDIcyV/yKHaFD14VEfTtP8K7/cDrBv8wWIM/sjXiS6fDUl4HBhoR9uld+h1d8npOSntn+ytSWp2Bd+1faU6voXDfrD4c0ln9wmPV3PdRqBGgQ+nTRZ98Ncg24TXTdxVbdafkwjHbeekN26Ur5dhxeGl4wuf1A+rtGUK7Eik5GJLKE3FYAOTDogHFefjC62oEruq1nd4QaJi6LmWfPKTXeMK59Oq/sr5xKQT1tqsRM8l7V7dcDz30A/bsf/HPbd8rX7SBsUldJqwGQ3EsqOH6e7/46/a5L32fPfGlH7HJj/+EDR38lNK0w9YXLkuk0AlSxpRoeO2qNj8dtA8GJmxCIxxNRjw/SgJCChLhaZEdzq7SbQps0wvSvbSm27q07+HHvvhJfQjEdysatfPqs8XUhO0hLWj5BeD05IQd2DHjbwIiATUDJ3Dhi0JlCj1xhV1xN0GtHGDQMC2BhJWGpIFSO4XMvzc4CW1h4PTR+mTvQbh4esMVNEHujAo83TGH9M+BHT/h4qDcg0f8mHsGrs+TyNkq40WjwtmiD2Y4/8B/jsupOUL0eVURE3fFs/CG9kF/hRYe+atlLPwcpwqO+F0OZEE+hflP+Kq2ni7khU5wRgJ3hdcvBWWPwKkdB+z3vufP2nc//1M2t+cHrVdXbA0sfEVn+rNnQAok5WIsyQLhncUNHZelk6I1Nx8Z2FCDoN11A7qOSxd2bzv7q/bJ1/6R/cBbv2H7tOV6QcN2bh5mkXCLGo9smKlHXivkyBFAj04oju285KPKWVOV25d0i5X2AfQMbtPmHy1MCt7dFLiG/IM6tfr8V3/TXvtf/0s7+7XfVjxRN6f0Tcw9nSX4q7/9qrOYPXjYHvuhH7cn/vxflzD6zkFbxbeU/RGcYcgrwmc1ChjT2sWC4AMaikc7i/CZlqY0EQ9pc5N2hdIBqEKajmU1AA9r/j9b3gCkDjdxmu7GCKAJrt1kALuJLly+Yl89dtomNBWoTMlQKgZKSAaHGz+VJ8AZFrCCI6CTO2nBd0DhQzgRJaz4K/6SK8NBcWwA6XZS9xQWxV14ghrOdGVUTbyCBPcaLYGF3rk0YCDCQz8KGl9Raoe7pAUHPPeDDn74gFamxVNBP9QRnCPG7sg0hpthCV6mXK20VNwGRDLTy7PPf1293lVd2HF29xN2c5dugB56Ql/Y3baB2zpFeO2C0qe9A2oM6B03dAb/ui5+oUPW63rVLzGVkmzwubGA4ze+bfsvvmW7ljRKGByzazpklq8ImU/HJhuVhwRhBMDrxHF9xnvw0ne0lnDbd+vx2pKUry+t2JQOn126tWyrN67pewBtiyXSboXpq/46ou7CGzok9Ods6ezX7PJv/TPrP/Apm9x/SOcc9NnK4h37p//2d+zHPv9pHXEeNx9dO3bELv3O39UegwNKA3sAWJVQNDp5aWzlpO3TdOn00G67qanNsBYiGc1UWVg5Mk8T0LDTCUrTTRE1/MRJmq8vLdv3Pfe4vfj040oqH7Gpxe4wgQ140zUAAqmUG2o5t+pVzsG9u/wkH74yyuPCQyKYSRKfSIcTWodlRiOoSytHEdyDHE6GqCoSjh9TUpZzTgfxgEgFSA8afKDjFRJ+3JEwPyBE7lA/+AUpRC6m+BMVjYa7ROZu8EpIiuIcxRuRwOG/aUJUxR2IdZDwnSbzQCGczQMP7jVxXh5X8EZIUOnlvDFITilI+v8Y9uasCCHyzZinjJ3hnNMPIRtyBunlxOfslC5+0UUeY4+8Yjtv/BnbefWkTV49pqH+cSmpTgLeMqoRBL8hrVirt1R5clqvf06sV4MbvftUzmu2+8wv2o4Lv2NXd3zG3t/zMTs1sV0Kr95Uc36fXiivEJkGiNeKzcLZ2ieFvXbFbp2/YhNqBG4ff8v6xiY2T6KnX3z69KXn5Pf4esDGwgd24uf/WxtXAzC176B98sXn7X/55V+3U+cv2sfG9U2EzPypY1osU8z6biDeCJAfIclaz7TtvP0t+9G1efv92U/b2/1TGhHoZCLkpnJImmoKKO+m2e8cP+ShypNv6R57aI8jM/Xqqv8NVm0jgBC+Ee5MaUU4TeSbbx61eZ3qO6QjvTwyr9yqyk5WaGUFuObVDI/KDU0gOpbc2Anz+AkugiQ8cQE7RQAKXhIEL4DFBeNk6ZQR5qAah5CCR0g4g6dTBwsnauI5oPEIXDUjKDJwGPk/9yv22qBWy+t5GRh1sdeuQoel30cxLTwehNAJNomlKNhmbKISK7REGgu1KKSG9poecBvPlfEZO6nrvM7uedau7XzB7kw9rxuD9ypb2AOwpAbhxv/f3nvA131cd76HJAgCYAPYexOrRFIkJVG9WrJlKbKtyI7lItuJ10k2iZP9JOu8TTbJpjltk/fyXnYT78umx46L4rgocpFky7J6oxrFJvZeAKKQRCEp7u97ZuZ/515cgGBRszjA/f+nnDlz5sycM33+2iTUouFCh3rS+gaABJ+NPrDteI2ETD2GUa1P24xdj9m0jk7dzTBMuwmH6/5+7jbUphf1AJp6DusU4HOOj3MArsQVSK6629qtfuxYXQTS4xeD+DHgRHBfGSMcOoaNteOHXtD1Yett5KzFNnnmLJtYqy8bqdGZMXG87Xj2Mdvxrb92GgdpWTQogBJS6KBXU39sv805tM6arMF26xPqbaoHviVa4dAY2mjZqTORbvJGDvyNHUtuKp0K5w6AETr1+OF3XePjf3bbnqwHoDRdFWWoy6sQa7B80IDlhD/5my/ad198xabqNl/2G0Oi5yASmqgNxCosH8+mbjBjSbfzBkVwexwpmdRdDuPkchzgdwaRbMEZcAT/8CYrgXFOHnDBC1+CirgeQvY9fgArcMnp4WXxk2dAmIJizPJXLMyEL42lR1KplOShox2qzKKIuqYxpN/Q4xUztAqBh+Uoz5qrvIgr0JJ+hVeFs6zKCNbBUxxFTlZCGLuDkCECW3aPKs98Ybhex2w5JdioW4pGaRPPCO30q9dvWJc29OgjoHTnOdbLvny/iESVuaZnnfCZrhO/0XZMudy2j5lpW0aOtymKf/3z/6CDO/ulNEYpDr2BYPyKOm1Hpil8Vd3xQXTTMwoTXPW36JeiOa4dhscOvmIjl9yl7cWTrEtfFOrRZ8SONq+3oeMvVOvP1mjtCQg1pgIV/OBicH3S7Ph+a61dYGtGLLG1wyZYM5uWxB42DDHP4UoB/uEpw5uGNjiFRRXOx/SqmBHEUwQa/4NHuuziOVPtd37+Yxpa1QhG/bFeldRrtePn0e8QAAA0CGuvfFzg/NnT7d+f2yA3SoEuBxCZcXeoAJ5uHh6758782G0My4gC4l90hWEAFjIoT/fL8Msa0CgAIxgXaqz6C74hkuNO/hDjyQR4pzAki3yW4kWcCnLG8fY0QKyE3U0Y/nFYgKsXjyNuB+OhuEGh1UjQj9kUXY3V0c3HMYZoV1u3JlfDGrYnAzzG8+8pBffpPhPR/cZPlaxfICdJhAWglMcCfzmOEo/FNzFosISyTisHdcTT75j89g1v1DVhYzRsmCPB1tem1bWv04z5cCmH+p5Oa9CvTh/VGKZ3rd6sMNRoUq2uu13DihdtQvNaGzv5IusYppN63pr0pp8zAdz8wxmAUxN+cIn2Y126O3Cy1YycaUe2PWCHN+zS7sDZ6h1MtLoZN6qjcEQavL/zBdRQlIO+SlwzxUYe22WXtayzC4bOtR11c2x77Xjbp7MN7eoVdKs+sFcBpUXJ0z4O0/Cbi3mROU2b9GmAb+vWxOPcmS78NNjV7gCsRHBSBUCEpJHmz5quScDwvcC6pEmD5AqmuiCQE68jCKvXZzE12YlLhVAatITYPMztOD0CAW51F7UHt35oNypa8A92wmB5EFC3RRj8PIWQFnik3LgoE+0JnpQsmk23fjl+8AEKBPEhxMmKzpIiADLxoMCEpxtPTmkNURd11mh9Vl2F/vjOZt3cor3kaj2g1DfEEpUfzOqNJiA742dAHFnZL7YAkxEiq7sKr+BROBXqcaJHqjuhSscyUmEzd1OnGet6gPWjbrOk160x/mHdQ3GsfrTP8Kc5BhoHeg5pey1vZtbZOHTZ5kettnuPlgB1aYn8ywz46VnyPh2GiqYTut7+hA4H1YycbzZqgezqYUjoX+3mNmGvKGVJ9nZ4xZES1FWsmgw9oRulhh/fZ+d3rLcF+sLykSETNKQZa4dM9xEsu9oG6cDTIKVRq6E2823DtFIyVKsmj6/bZY9sPWBjJIMc980Nua5RPs+XAnBTEZ7D5vYBKYC0lXCGLlaYr+XA9XuanagcUbCLqEJoZQ/5ju9YoYOkl4Qq5SNGpaAoQ4YCqfKAplR2LopBPgQbRFzh4EU4S4AxeUEQxGfKIm3wBuUB3iESyhrdCdejJaBawXDun0s/vHuDCsZE0kHttLiX0pIjZicGUPkThMcMdMuLdOrVVRyhSa4dGsvyCbVOtR7hgimeqlR5oQUiI5IzfYlwmRz9yTAG2BCPfEebWyK2zDNgS+Xl8FliCZeHJ5R6s4RHCfqHWuSm7JnpV/UOuOX2shOUwymZoEhoHU9Ys67uunL/apuy67vadyDBkjDm3f8ijxkthd+pWFDGMido7ZWuVz5qAsJ/SoY6J2UvFEcHNVgPV8tJ+Tccb7YRr+61QYdestpR11jN7Gl2olOfRoM/or1OJ/sOtB2x1k5dziq5SAabUHmdZJPewolNNmvqZA/2ifIE2M97gApAFVQaabi+9rNs3gx7dtseG60vjiQCEhXwOfAqFJiTCoVOJcKhcH7upaccRVc9hgUG6yngUPgCFlJXDFhjbFcSnhhpYRRCBL09Lm+5U1qMHVECLrXg9rjqWqmpn6YNH/Xa8LG1tUX5bPcxuldWxUH58a0aFFJKm6EPqTIN4koghgQyPFDWRBe+rFPoI5VqRZq1mWpnxxBp8VE2UrsqD3a2KUQQMCe9ZafbLE/3c1Ld1v8jgvcP1EdoKW6iA0DsIdfxez04nS5l3Vtt6A5QEdyDIw7ZPdBh5Md/SsidwQ8wD9MrfJJbZeeeehSVIHoo/lANJ1q1a29p8zZbsu7zgtFHbNkAJP4GAlPks/yOdebMsMJAFBhKTt19MfQoR5g1H2C1i6173SqrnTDTL0bhdgF6Aa/sarF7n9ti29s6bfzwWk32FdwJuNTyN+ujJ7dcfL6NGK7NP6qYqdF2gOIR0i6csgxIARCByQgq6lLuV/v+U5oUJBGvuvL1WlH+dhr1yIPkSOVf2p5bgiEMwcz1aiAZNgXfUDWCb3iWijy5RYgnyzvgpJKqIlNrXUlQ35QfSS+XTdAaD9VYsYfWX127Gg1vNIXitBwVAg5XsG5NlhguDFW+h6lLxg/DB1S5NSmISkjb01WYdwgchw6qaIvsEHVx6xS/SzvLajh0Ipjjce0Y/Hke5PQ0wTUQUxm3vzil+Zty5Ago+agVjdz/QChlzRZTdvJhkIMhav2YxKRBgj7OiRyVVi7UgYPKRWCIFuJ6Dguo6FcGEsosZjq+HA40fLvvsDYWNWrtf8mWH2peoE2Xd8yS8Iu/vbjn0c7gkWgnZWWUjLtJ7+gMpRQcRV4LSwLSO8bzl+oOPRZ+qm+D1EO0IePs+Nq/0oqFvpx15XvteON4e2nTLrt/zW59P/OYLqTVMeoo/IkCUqEMuLdz+aJ5nlY5d7Pkq1gHrAB89lEI5s6cZvO102i3Lllo0P7uSuOsio9CJOSmIAu9DvVBMpwnIUyeElB6VX7xCDBieGqpnffJXbxLMB7uDFZE/0fZaBmGKknawuv0QAsF5v+qsGo1tuhUGoKp+V6tTQ+yw5qs2q7lzm5V6OHaVz1aa8rDpYlrhIRKfljM3q+TZl0SiuFSAuO0KYQPqKAIjkpIgvYN6ZMNJeXG5xqk9XuOQaCGHIO07KVQurPJYMu7b+SfFZcSRIIsvQmDZ9po6HkthZRsjldOFDmfjQ78ysJjAnU+e3zC2vQlnYP6kd9hUgbcCsWb/LDc1KnJuE4pRcai9fJvEn9GiE+YLk26sdTpRngdteCoLYEH5J8A3ok/QMEzKRPFDXECivSkF3hc8EdF/IW6uLOp5R4Jv2bhz2bLDwEY5rjUMNC7KJhFnjycdwALYeRDPzJTydgIVvYCBysVanDsqA4UcNdkz1afS6ydeK0NGzvJDhzqtqe3bLbHXtnt528aNe7nnL+nEZFBAjyl+79o/Gibr0l6TJJVd5zkMXAFoEJmGDByxAhbuXC2/cMPntYtLZrJ9gTIEJnP3kXJyg/eZEGBx7ESFooA8dRHGjXOaZUA8lUT3wikdFFxZMoFgzeAVEYs0Y09uAFnJVlfRlWlHa11UfwrD0XgflWbTzqZXdYptVoNAdrYtaXdXtM0vLlx+mSbP36sTdSnzEfW1Wk2Vmu3ooPWsFsMb9OOqz3tHbZBNwU/f6DFtukz0NN1AWO94BAArwvkmcxSSnp5Sy9ayAuXNu7WxytpRZN4O6xAPR96J8MHVTGgUtQyg0CjmKgcbaKrIrgMFvxCYWP1QQzgaNDDO+CoES27lA/on6d7IK7UnM80nSkfq27lcNHAd+aBhwedapE6dPHGvo5DtvVgm61rabW17ZrGEoFT+CClyodz6ckQj1YKpQIWKCE/MCa+nJ5aATbxwY4KAywTfx3acDNTN/TO3Pmwuv3TVUc0uHJlQwpnYMCBwLOhh1yqt3ai64C6d6/ILkGFSJKgLHlrH4MbfXDUwwj3jARvf+YkVYZJvwzSl5asXgeGGudazfg7rH7qbOsZMc5WSyc8umG/vq7dps+5qZconlK+Xo8zPFjpue5oP2wfvWq57u4IXzqqrD+BopyYEo0DVgBESRX04sXz7e8efBqfkOky3BSshJEIUgje6mKHWsAVgJ4IjvD2pUZVKlrWj16xzC5acJ4dUQvMtwVLhoglVy9JUFAQjiCkDaqwm/c12xdWvewt6DBVXu/CCijAqVwlhLXypwVec7DF5owcbv/posW2ZPoUGycBCBcqZmlWWJfIfZ2U1X59cfb5Hbvt3o1bbIcEaKpuY0HAQzb1pDGEfP3YnXVEeX33nBm2YvpUO6R8si8+CQOACQ6Baz502P7xxZd9DZjkAxy2YGcY0qzeyDwpqp9dOF9zGbrUUpXFW9oA5mzzkiDv+rtv/UZ7cu9+G6/Zdu55QNnSqu880m3XSuivmj3Dpo9pslFSaH7xacTT1+uoeNCqMehWKcJV23fZ98ULxqmTpAhQUDCiXV/iuUE71K5bOFfDH22ySYUQkQJXq8p88PAR+5vHn/PelPcEFU69Y42cvQRsMpqvq78bDj1gXQ3XnnnXH/pc8HUc+ehhO3H4MXVB1DNrWKQdgboItfEabVzUkT9dJzZIdxeYziaoYooqKiN5E2fFb9PypXEPoZYwVbGi0lAzpHDnIT0K9a78NGKtvi6lyeBX9R6sj5PWjRipW5OG2raWw/bUpn22WmN+JkPH67PF1Bd6lbnwx5Q9bXZPtkoZX7qUk5iBV9UVgAf3epySAki7iubNmmEXTtVOqBbtstIMpdggAzOo5SkNfOXAW39e3gHQAULDH7KCmDO04frxWZPG26zJExOSM3qzd+FEVAB1+jIutERqHC8V/4gq40FVzk8sXmDXnz/PGtXalYwop4BLHm7zLEZh4tvrU5qa/HeJlkm/8cLL9h0JAUoAYaMN9AlM8CgiY2fGy5vVYt5ywSKraaIy9W1mjxtnm5oP2r1btrnAevdd4NCEgDA8YOjxzrlz7PwpYQa4b2xme9ra9Gn2FmuUouhRRWWsf0Q9B8wvr1xmF6tsy4U+5l/0Y3h6/nl7oWpORDwYP2qU/1Yo/i2trXbf6vX2g+27bQSKV7EYLkweNdJmjR8Hmj7NYfUqUA6hZxPeANNn6JIAzdQhoSl79JnyoahfNOvpmpgTXSFmOshjHY/aoJGX2pD5n7RBk+aoG6LbhPQxVdOV6C7wscfpY3bKnrx7/mP6lC88inxyTjnLYjqh0jgwVJNHju0Cv7ulw57dtMNe2KHbjlQW3Oc3VHk9JqGIsatmknX+jq4eWylZnC+ljTkV4Qf+lBQAyBkG1KtLfM2FC+3PvvkDmz9utLd2OS9A7ISXHnhFzyzMoeABgPQVVBZSApjjWt9NCsc9CAUA0NwkP38HTXlMFZvWm5apKJCYRuidqMsr5rWo5WxUd/Oz119mC6dOiVhjQUYXeQZ1NePfBlAA4cCNUxfsp65caVNfWmv/uHqd5gZC982VgIAggbExQvGYTqrNeOElu335hfIPvYXKVjvs5R5sNy6Yaz9Uq0qFIDHwwAbysE0t5k0ariyZFuhPG0A8u4lwOai48OOfnn5OuxCP2gSVYVC6Qfh/6fKLbP6kSZ5N6MmNV6pYwAkl4Z5GJoTAMUyaqss7p+sMfsembZ5XiCVe2D2qslUd8h4AOJ220GvjGvoeyiyaUC8UVzC0/pw3mN28STsGH1Lrf53cLMvlFKWYJ3lDOK0+hHU8Y4MaLzVb8ts2aJpa/FFj/NBQjZQaAsZw0o14wuw69ZLzMWzYIR+eN+WD4Sn1NSnPqDZDVNLzn5IVf+rU8FBHd+5ttRe27rcXdrX6MV6+5TdaXX5Bh1Zfb89dYJPjSrmFN8OkKFbvb7X/cvUKX6GrvvOPaCmWoyh7nJICyGOuVJej/lsPhy6ek0wiZFTvfC7Am3pCynsBZBLjsSKDKGg0fTBRy0ZX8aqWl+QXK2kBiwV0kMVLD1YfWJI7KOGfok8n/+ebrrKJjbqqKqv0XuGJG02qiMmdwnmnpD0LEgYqzLsWL/KVgr9Rb4AJwljPPTqixZZOxvX/LgFZOHGCLVLLzW7LwRwXTonoTWVBYYzRvMttc2fb30qxzBDN3ap4tRKWds1ZoGRumHeeKmvYrp12f+WsIO+YhzZstEf2HrCF3JSr9OhBHBAffvGipVH4NS+ijLhwhii9nuQTIqEzpFGiOCmszp5ue2DDFhslIXK2Kk4uECBNPIxI8MpMVMIxE6TQI76O0Vd5Ju97Xtt958unXEllkU9iFTHa3mvabnyCrcZLf86GnL/Shk+YYiPUFW9Ql7xWjQK9R4S6oFNYqQf8+N7gMSmqo+ryd6vH0qU1+y4Ngbq79d0ITY4SZ7DiByUXen2UC6w70nVUPbp2W72zxdbs6/ChF4I/StemUffTkKnE1d7ZAQ98oywYAqxcuqg30AB9TlkBhFb5hM1Si3PD+bPtER0RHj9C97r5OKU8VQgMZQjJMUt4phokm1cM+SXmFhj64wDxMpTOWeDlmRcY/uDPBRh9fkSFN0pd4F++8UoX/tRqFmlHC/HAl7R6Hu4Kg7DoST5x+UEfOW7QxyhbNB/wr/oW3USNtXPDeJsJykPq7n0Nodb1zcN1VLUaHQn/VfNm2/c0DOjQkKWOoY1oa5EC+OjCeTZznMaoymc1wQ15GGy7DrbaP7+0zmbrW3EMtZjR36W945dqonPFzOlOHpN7SYHk9CY+eA4TQQ4Ab7EEPrnykOvFbTttXWuH55u4oQwcDOCqpsRJL8YSjPAj6mwdnt6+x0Z2PKiZ/2Vq/TXmLrhfAu/fJmS6ykt3hNuJ4TOs9rpftrFLLrExY8aqVytFTX2RcqWlx0B7blywxTeUw1BdhtLAEWdKXTxh++4xKQSUwaH2Njt8SMKt8mXeqUNKtlmbv7Yd6LD1+9ptV0eXNwIN2uZbr5/zKPIpT8/t4I5kJNYDX6dVl52th+zHFp9ns6fFzT8QcormlBUA+NMBoXesvNA+/8xam6LDQUeZKU0EQLDP9EEQXA2EURGCgOLn/wDKEt1iFv4DMWWCntLyZCiQkJ6/YKzjB7c0rNJjQuqXr11pkzV2D8OF2M2LCQMPjiT4+9vbbV8b2vq4NUmAJqt7W8sV0zKV3S6EMAjSEHvPsgu0SnDQ1re2+2fWXbvHNJgkpPV+VldWP7Bmg2CXuPBVtsDQQRoNqnC3a533Dx9/1hZrZp7JxoUaU6MYMNWEF1aSB+J/edWLetP7Yb4lLAUyd7BMk351avGAqapAIg697Ig+s90l3qEkGhSHsb/zWDxF8YXJzBP28CtbtWwYeMrgRsmFMu63cKsXPL3Co0qvTl3uKS2bVK06tHqj7rm253rdgbABGeHXp91Np/JOjLvERr3n0zZu5hwbdGC3HXjpCc/X0FkLrXGijjHHo77V0CblQLnQGKoB9qFVhzZ4tWoVpEW/Vp1A3L2/xfZKQNvV4u873G0tesOI4RL4pmHqGckOX1KLr0AlR72tzodEC6H8mCB+tO2w/dalF0ohgU81OxRGAo3vIAsVnoXztBRASmipZnQvm8LBFq1pq8CR30Lw3e55FmE4MCKGXFcY94Ih/lcRWNVZmankDu80d+DjN08OZvs9LbZHl0TcrmXMpZqsSpU2TyIJP7Tu0j30976wxsffLZppBRXjt8VjRtt7NGm4YvZMF7DU6ic8CMgxVViUxPsvPN8+++BjPv5FwMABlRQ8+Z4gJfD19Zu1t2KcLdRQgIKMUpXQFW5a6is2blXr2u4biG6eN0dfgB1etedAZL9SWzX0h5r1/+HufTZbt9r4rL/o61IvaLRakSm67QkDPZWtf+DFYGvT0ug3n3vZXtDKARtSWC6coEnO+ePG2FK1PudpGIMywLyye489p8rPvgjK0zNMABk/FUPUGIe7ASd2tduYg1rRGXqhWn8J0ykZIaLlP7zRTjReaKPf8wu+tr7zr3/L2u7/gg2dazbmqt+10UtXWoOGAX2ZVDdq1APANKtRWLt1l72gCbw1u/Zrp94RDcv0KXUV8AjxFiVYI/sw8WushJ4MoXz5BX7EDBYJJv/oobiJB9QZDDFYLWlV7+1908bbEs0PnYkJpXaKGFKrNFIz5rddvtz+21fvt0un6kCDFIFGTaqwkAnJ6R2tcvvaPukVQbIolzAXDZIyCkilSRVym24nekh3FLI27RoUzRe1H7ThxyGKvdLGJDRUFQg/fqPk/24JpZuChuiEBjeDbNXmrfanP3xKvYVjNlPj7jFq8SAOJbdJBf8rDzxiP7e02e64RN1Rx1/eglJJUAzzJk20G2ZMse9u2aFKMAwOeNZBRi8AQWlTq/q1F9faL2jpbQSTc+qG5sLonBQuZobfc8EC+8C3vm8/P3eWXTJnZqS2N9dSL22fei+fF+6pWtIjvQTJ7sbR2scxQjT1ZVI5/+3DT9k923bbfCkQDHheOdhhT+1rsX9e/Yqt1MawHxNdy7QR5QnNazDEGK78w05acIw/g9Xd/T4El0DpPEL1pMMHrL7zCeuuu1gK4BRbf23y8jF/7QSru/In7Ojurbbtb37ahl5wi8387a/YuPOXWcM4rTyJ78dVFl4XKwhkfoNvHDDXckAt/JMvb7JvvfCKvazx/BiN4Zu032T66OHew5LmFaqwcxKFTlyfAE2ZynG7Hw8v5Tyklx0oaGPl7ZFdB+yP7rixuPu/F7B7pNKuHorvaSmAHN0VK3RRwrcf9u5xry6k5wvhpjsdM6kXIuDyilfMuDNdmSuY72F5SiHzxNvb0mZ3fftRu3FCox0So5kNB6EfO1U4wtMjXE2q4JPUUjHZxW+3us13Lp5n49WF9lab/ltmSJu7D1Zv22G/973HtUKg2101YcbOwGNxdYL0UQb8PqcLUtDG771Iu9GEh/ipdwRaz4sCrpt/nn1vqz6kwdgySxIrlzhOltA/rj0Li9dusB/zoUBQHuX8DBHnTZpgvzh/tl2p3geVkZ5GapFIExPyEbrgdz/7orf69dq1yRJiBPD801IxidS34ZKJY7b7kK7ckhIcJX6wZMjqwUgp0jFSwJgXNYx56vuP2g0bJqsV7PCehec9ISbZKuWZgivfJVBqilpRCdGENl0rdkJ3DLJl1pH1R3cFRsVn333N9Muse+saO75RH/78T1+yySuvsYbRTeKXhLWrUxvzJPyKWl6GgZ/MuPco70+v3WxffuxFe25fq80dWW/Lxo3yYSSrV9yWxVyAEAYSwRbtUBvylYclOmNoAAie8iJqpaGus/NvlubdLl8eGrK+u/+VsXu7T1sBBCadsCnq/t1x2VL7ux88Y4sn6Uhjr15ASJS8BB3gNrn09rkB3tFZLcchenyGQqd1f69OPs3U54/Zo17M1iKdGL19157wdivcewkR96XpuGSALJ5p3N52+LB9/qkXtE13kCsAtsSiPDAJPS0cQ575mg/4ysuv2AIJ5UKdwgrzCZEGwaOIqMIzNEm3QpNtT2sGnlaXcTFQMdtqUY9rF+Ew+5JwzddNM/Mnh+U40kwmpB266R+6ZLlPAhGW9xQSLBNPjMcf06z/D3bs8Q057D3AQM8JHYDiXFSP1uaZ1+jLULEYxty5/AL7vQef8PPmE3QnJGcZmD9gOZF8TNbHY2jlHtmxV/nTGraITboG3OTzdIyaDT8cNFwz643tW7Xzb77qUN/0Vk9DqXMxqQ7bdG1+wEZc/kmb8Wv/bE1TpmsXbru1b9toXS26TVibcoaPn2TDpIyTQYlBe71a9wPa+v7Nx5+3Lzy/UTtFa1Weo10QD+kMfhByQQq+VPohbsAFz7EBE3xKTzxKsUr+JVuqK9TjkeL/Uzv326euucimV6knpVgDs4VmYmCwvaCSln/HZct9XOMtT1leUoYr3jDWGRH8A57k1yuZXh7AI2zs5KOyh8sSsOunMLq/zLQz3kUjI8CMzS7Q2H2az5irTiRpFvZAdyD8WXVhX9QWTHbJ0dpxX6UTC6nxR1Tws4mG7a4/WL/JW9TQ7SdCyaRJo2VTJ9kh9SR8iOR4yG+oMOBiVh73V1a9ZIe1nBSGFeW4wAoMwwTSqqb54QFhzdqd+EXNXzRKWSKc/ucZYMJQwyKlh3Lr0JbmvkxS8sx1/IGWSy+eMNbnUDarR0BvYoTG/eA5LN6ixKaot8USp4J6GdI/FRNKI+z9H63lv+FHtmj5r1EKgL0dA8QEf7mt58h2bdI7YBPu/BNb+KGf86W+XT/8jm34+z+1NX/447bpLz9mHVs3eA+y0PJKgmTqpbC37W22v7jnIfvSCxttcZO2hkvJtWsDDnUQFR9mdgQd+Qt1TmJ09yYXWKAw5DR3By+iYmKo2+mtUVdQjNdrAp65rmp1wIE9ZrD19zztHkCOlANCd668wL7+7Frtn2/KegERiswoJ2SqcigQ6IQBAPHrz4RwWrN/1wzr+1UBO1XhYYRXVjHIJ9pUCXmPVheVngCZbNYM9s2TZmpugGuYxESkOBpXAOpOd2lZ7TltuEErEp+KDFjRcynIC0VOOIeFXlTLvkNnAmZo1x7Cxnp+MimdWeoBcGiGoUcQ/ACDYGA7oqHAFI3TH1VlW/ryerttuT7FrcQdNqMVfOAgTsKd0gKWnYaYr0mR7NeEJysNPulUAEkBKE0Uzl6F79aE4vnTplZNiyheLIJfpGXf2ZqofEm7HB+Xknxs1z7bKkUwTUI/UjylV8T3I6G5lxGSgKdXSFWPxBnlULQOsqYuXRHW84r11C3R+L9LPQGd7xDCwf3exKPCGdpgr7Y/Z8frzrNpn/pzmzRvkR1c9ajtufdv7dCTX7ETGvaPuelPbdKl19voKTNEi3ireQAMvKyT8G/Zvd/+/N5HdIT7iCZ/R6lu62Zf5mgcJvDH80bd8PpBXmXxn2Mq/EM4frkBNndXt/v8leZrXtrbYh+8eJHN065TDFGrcNzDBvI4IwUQKmAYN9981SX29xobQVIxrHTqEonhXfKK/pFRBdP65UbIKgXz05p05KvFvv+ABFXxoIdRhW+3FZ4DmimlqzpYQoqAzZYQVjNQgmnWwZYNav2ZKPTxemSvh+vhqfMQzbyA4ZTcbgnSNo2DUQAonNwk1xgNF9h9x3wClzp4fh1XCbpTYXM10faPL66zhRpWzPMuXqKuBFdVyBQcWv8ae3rjFrt/606fp6DieFql6MxRaVu6FIXC1kl5Xb3wqHf16a1Uyi9u4oOb5cKLz5tlS7Wn/52as3hm83a7f9N2W601f+hmfwIbjBJ9vdLNaOjfGvLMExY1Hjkogeennp8u2ezRxarD9XFS7gqsbhRTx7xPHNqk9f7zbcpP/bGN1lr/xr/7Ezv4zT+2E7MX2/C7/twmX3KNjZk202qkwI6pgeCTYF6HlA7LbHv0UdH/91uP2l4t8c0cqWu71Oqj+lGx5C394KP/FOZ5DuQDFbzLiAQWDx6pdmQAzu/gJjShovVnIvGQ6vE7r1jhm5VIqwqG6nizJHJrXxzMYfq1OxGqJQt19fJHLjlfM6MbtKTV5HuUU0VwBJ5fPZBQmtQ0/g81zHNaxrwqOUvCNU+Hdf77J+7Q2F9AMB82RHgqKq18h74N91ff/aGtksakJ8Cpu3E67FPNpJa0peOw7ZXSGKtxlh9JBbWKwFGLzuh0FPgxlmcugO4vLSmmckUg4a4TDeM0zj94kJOH4fNqkWSPx4Ojt5wmpKfwT089b7928xh1QcMafcJTAFdY6BWx/fmg5jDu1g7EWvUE6IgUE385vDJCV3KCWpTH1ZK/U8t2c3X+widGvW3LgcVa5Z1hFKsT2JkXmD9lkn4T7ZqF59nD6zZp/mKjegLa0aa8hWOrJRzONzkr81uCKLcBH37qvYknI/S1XarMq+qltY2ao+HAPhusz3If0xeI+ABHL8xMFOorP6aLN0fd/hkbrE+Db/zcx62rbaMNff/vW9MybQCbM0+fKtMtQvrg6VGt00tzF8JPvYU//6J5rU3qac7T7H6bhN/7Vgi+ennU1VBfRRh10OshVGNwB1t4Jnd64ws3cnfwcjQEZ8bH/qo/a/YetA+uWKBrv2Z7KD3ZtOSdgZ+S1fN0SjEqgcUsmpShqhS3XrNS++vpItELiMXtjPBHETNkMvrJEWx65mC5vYgJiIROlWyUPns0UjcUsRQ5Uq2r2+Vu1LbZelXsMTrNx/IfggE9DSrghipLXq7AIv5D2tZ5RMLs41jFCQVEQcsWHlgcmicgVEx+LWolGBOGQEJzE84ecHyaHovjJSfkXc7044KSTnWjmX94dv9B+/bzLzvsyYSfCsKkH4Y461VpWeNH+BPu0jukz+QpS5DsRvyWdggi3OH8RN+TbEw4Uq70FFAWVOKpY8fYB6+42P7g5qt9laBZpxuZFygzMcvQMFDjbYSAuV68oUvXhsvePnK2tQ8fbyMOrdZ8QJP4Dq2xnuWI6cZr6W/oyjvt6Nb1tuf/vsWOTrrcGj7+ZZt8/XtsxoILvC68ytZdlJp6LvDY52v0HqZy+sFza+y+TbvtvNEN2ufCVeUyzkRKL5Sdl2P0S8EJxqE8v3r0yjcevTxBURhylSCY+UchHRYvbr5yhZ/FqRzGFhGr8aMU2MtWUVK9wk/qAaFep/VeJM30sUsX22q1utxPTsV04y890lueyeogzkTC3TfE6ePpjFHlo+C8IuZv+fsBIMXt1gSXKyKlBBxCnYSkEnUSMJZxEBqvUpASSaLAS3b8UwBAmm/Qj1OFx6h4BPuz8kErGvYjOEwBhCX8SIe0mVicrrH1N9SytuqwD2m4AiJiNeN8G2TPqOt/j3bhsbmo1PUv4Sed5MLCJOlUzeD/YPse+8rjq6TANDxRDyQIOJDVDT0xVwSUgyuCE7ZQcwS/fvM1vuzaqrkUXzkpEospO2Or48x9ExgzHbXqltfrWu6eYSv0fYHF6g202pBjGzUPoF19ftYyj4ldsfk46fhF9uqOddb17V+1Qe/6Pat/58dt6gUX2uRJ+qKvMs9eft+TEudMqMND1bBwC+/D2vT0d4++pOPh9X7vQV7eoSGIaRb5iwqhzJ3BuFWBhPsj5tDdEU5e1ao/5ci6/zod+vnA8gXFxh/8U72NGE7rdcYKgFTDBZ6aFRcDb7nmEq983WKwr8+HXJeIS0xI71JI/5U8gyPjdH28IuZv9w/MDV0jFQwCrbTQoAwP+jO0cHT0g7BlpSMrosNf/Oflxv1kc3fyjGHlrzCOxo+C7utHRWRYsVETbB9dtigeT+6/sFOyfn+CHGnSr1oaTmiMQCViXDlRQ56712y0P7n3+7Zl337xlYMsUlYipj/FgxLgBww9CLZWf1onK+l5ocQoCZJKv8AkONC/gW4M9wPW65z9sK5XbOeka/XRUH16+8CTUgbLNQHY11kARR6qrn3LRnt187et5n3/w+p00+6MWbNtbNMYP3RFvvnU1xApO0mRC1KtxkvtrQft6w8+bv/zB897b4Z8wQPPAUTFn/MkuZWpEo8C4eFJDpKNuLgxkSuFO/jmz5xv3AbM5SvU+XdfebG3/j4Jqbra24S639u/b59qWPqG7iPECYYhMt4LuHKZrdqt7aDa/uj8I8CDY66jPUSRQ5bARAIiDHHOwKRCorCZKmBJ74j2KFQaGJsKkJ2Fw+RmmQwySjQpViTNBR7CPTz4I3AIbVqT710M4NQEjtIPs8cJWUQS8UErh4S2asb5Xdpie+0iTr0lOtxa9RGEUPv6tb35A+fPtb3qhoPL6XDceTolO4qRCk5+J2jYsfpAq/3GvQ/alx592lo0IRpWV8LyZOJRNQJcIUvoUQKztS/kw1JcB9RtFvpQ3/0lanozphq64AdtKosRurHp6NDJ9sS0i22SfzjkmfjxD44NV0MoP1YHjqqncNN/tWFzl9qMaTNs1OhGH6L5KT/hPdTRbgd277Q9WzfZpg3r7PtPPGP/3z0/tC+8sM2X+djCGxqMEr/ggfOhkqdQ7H5UC+DdI76xJ0OAByaP8FZaRMeQowJCntxEtfZAm92hmf+li+Y6TBHurjN7nPEkYEqeyoJmYhx589WX2D3PvGztumGGTTt0rakknjNqXV5wKefydusAc5eiefrOtdhKZvGBocAIZmKKW4aqGYSFCbNG7XZj9yAz2YyPvQVUBOIXD3C6R0gI/AhQo2b4mTl2Q16j8fTl5qKHFq0WsHcgtCqBHQFeT+FhdYCTimy0+aDWefta60+40xveUlnJwy3atLNWM/vPapYeoUZMnNJAbopS9iYIJcZOP3jxRW3vvW/jNnuflMk1qnSjNLeC8cqvd5Y99+eBX7p2/WpdrHKfzjfs0bxIA62sKKBnFQq4iNK/RfWE9OqlADZNf6dtami0y7Y/6d9roOseclXic4GMCcAjL9qQ637PamcvtGlTptqIUaPicesh1qGTegf37bEO7ZNo0eTf1tZOW9ui24z06TD4Pk5374UyVW9R6ftP5et5T25/hxSdrYUbePzTu9Ie6XaYEJ96RfRKgx+3VbWrzozVxqN3a5WNa+u4jwAl1ttU4UVvoF4+Z6UHUIl1vjaOfPjai+1ZzVrWstzkJs+l7O6MfokD6V2JsIqbSl/8xMVwck/j7MgchiMIhAub8CIgYTxdBVn0YuJwlk428oUVxrBoc/RVKHwBQV/2g+V0ocnhJF3JhZbwyRlKNZqYQynDTl+XRwEkP0CwO0q9mTxbq/vdPqlryaZpci2E6lVhnJ4KP3of6QDSRy5d7pt0DmvJiEFNWYIV8RKl4ET4IWay5h/w/59Pv2Sf+ddv27d1krBd590Tv6ulD1qGZPQCWLm4RucC2uLBGAjgb+AGgRM/xNsDdaNt1aTzbZLuT2zobJYCmKYyqYILP53zP3HocRu85D/akLlLbIrG+yNH6wMjUujQvG/nNtui1n7Njn123+YW++KGZrt/d4c163PlYzXOblCFcaUvgQ+FEt6eX8X3PJCO/j1Pbs/dlTlMYQHeI3rcSrjghucpGB1Hmb6iJVZ22i7RNXkYyuBsmrPWA4AoegFBQ9XYTVdcZA88u8b2tB7WVVE6g+7jGAGRw5SH3F5kHUz9GwpkjQ7rdGpphnFvwTQhZlKKiSy6+60SuhEKZyWAVYDtugqrmklMHa0VhQsmT7CHd+sySIwQh9ZebwobpYN3TJBTcVx0OVYTnjPGNXkUKtAQNE8yHk/nF7RMyIWY7DHw7cuxIIFE8Dg99oqE/72zptpVsauHP937ShOUXRCpPJQeAwI4XfsdPi4l8mePPmtTdX9+X4Y8UdcZZ5IxXzUQcPo01Xla26c39N8fe97mq1dw18VL7PIFc1zZ+pJhFdpSWvMmj/ehF2lEdqWgk74VxeNwCWizPg/OJ7PGd+vCUS3tvTp4lOJXmcvhhp+edhs85gYbdP7lNn78RGvU2j+KHwWwZ9tm26wlz1XNXfa8WnxuFxqhchqjBooenHf3IRR6nQCIiPZEcZGRBJMCHDQ6IvG9ck1JFQgCrLxICpOHkj495+ZDnbZg7Gh799UrHYKJy5rUy/RY6UHs0zNnVQFAAkqAVnCqTsF98IZL7de+cK+N1cEFWgdnLFkl02kokHjCO3EDRH2a0Mp+7pvfs79Yv90u1xptpwowjFdD+nR768WoWVr3Z22aM+zjJKSrtVe9R3Z6B3lhIGQIDodrVqjlmrh6g469HvWvILPGHxREKC06s9R79gDQS2hVb+FKbUqaqV1ymL5k4hUdpaXjlsQh8CJQwcWe7UpvjGh8v4SMdfb+BIw8DFUFqVbsQWGcsGt1Om+NdrF9R6cQ2WHoSsfTh8pgiM+yJ5eKNtICSnFSDMBSFOnWoMU6cwF9v/DdR+wXdKz4oxriOY2Co1xzE1QkwyktzYr3DC3KIXLofuxeH9QKqi4NEn/qdB6gVtdn80nxqp//4rJO7vW7+I9s5MQpUgATXLG+KqHZrXH+C1t32/f3dNpBNRoI/auqp/TefL7Hcy1aRCt11zPvdhHBP8zIfsEN7TE8xY/uIlcKLpkAW7jFFFBWM2E4rbsCNYT6tZsu98t3qA/ll+RW2NMn5AAANAdJREFUi3nqfql/fuox+4iBsPh6qsKvVVf01gtm21ZdesitvGUZ9szzgDF9cKKPNNCXk9XlvnPKOFumrceX6Hfx+Ea7SO/l4xptpd6Lm0b5mJoCpgfA6bVn9zTbtn2hdU/j8JRE6gXM06GeW3Xabq0Of3CohSu3vVsoGil4/miZ2QHITDebd96x6DzffIQSofCSAZ4ZdU7UPc936kVDZbpAIzRbVdh36XTXDL80s7fQeKUTHId3/knHc7fvb/aYxd6DmCj58NZM7g/pqPZ0LfOx1h+GNAGIngt+fJnoExddYLfOne6TdttFA4LOkin3HvhwRUUDLBuUrhNf/0Wn4b6uw1IY0gp0BbzBM9hRRMXwIxZzBnVyq1cJuO01xD8aOuS4PiHOF3S8B5DUiiC0Ndi6W23Q2Hfa4Ok67TlhonZ/itfi1d6d23Th5i67Z+dhXxoeN5Qr1MNZEbo/ykFAJ7vnRWVGfQx2Eg/u9C7lF3/+wzs6Yr6SX3QWMNGN8KcgvclJ7qZ89qv1v2LWFLtJY3+M98rE07NtSrX1LGJmHM54lE06H7jxKr9A4ohaSrqapSItJRgyX8m0Unhvm77Wo0rZrkk9uvqHte7MHu3D/pNbfqzLo4gYL1JoLAdytfTDukcgmJzl6jmIuQgw5jZNwN0yY7I9pvPuFDwfBUEg+HGN03C1bOx7X6Xx2ceWzLeLfGeWKlNFAfmYWvi2aFLuZR1hRmmIDC9tL3Th5mbYrbr6+5aZU+zq2PVHgCtxQRdmnU73/YdnVtv9ng82AIXJyhAanowd6fYypPnpKy/SGFe75WKlI30Ek5aZTUkXawfnJ6+/0n7nHVfYredN968dbdIS5DYpA59DUJ7oTVFuDHc6JTybte0ZXgUFkKcsu/BiDmtrLfDwtZzTHtz/AxzeQwwxcdboxqlB+vqPHweOaTgSQDjv373aTkxdaqMmTrXh2gxGmbce2Gsvbd5h9+3R9xdEb50E64hOQFIn8nqhyiF4Wv7Q+jt68MoSFIEceHpA8A+Zwg8q0rvSXs2Nn4zH6y388IslayaDP6zNVdz1T9c/zW2FyGfv+ZooAMhjHZlcXrRkkf3ElRfads0FhNYuER+ZFhkReJgcCabvNwKU6ghvnxhSASUd6W9V8FSAtJyTtRX3HgnOzv0HvGVOLWVKxQVHFQXB+fl3XWMfV8u+UePyl3X9Od0xDtdsbT9iL8pNS/lrly7RBM0Kjw4uCi83yfUDrbGnyoMg8UfPhBaWLaZcHHr7RUvUi9Asr9KHjtzAFcb9Pdq2+tVVq+0jYxvtflXsx7VRiCrkecwjyE53EQW4WAe1furCBbZJdLNXH6VEPU6t8yHlCbNciuBTN1xhv6F8f/qSJXbZpHGiY5CuHuuy9eLBVrVIBzhQNX2ivf+SpT5c8mGKYHKTSnCn9tGjAMpDc8j+7MICkf6CXg232Kcft/2W4YTnCO5gXeM9aZaN0lo/K1GdWubbpDsUH9ylu/5V9hzv7pJg0QiAO9WLlEYpPdHVCybGgWQPc4tbsZVMoDm4Za9mILePIMCpQ7u1DHyHDtddvpyrz5lTKq8P1dCert9ZnwNIhDA25BINrld+341X2+NrNtsBZWx0w7A4HqUYEYWsOJ0x/XAnIecdC5GCDDPvgUnUBa8TQss79RaZzBukSZ9uzYz/q7rQv3j7u0PrpPh5a5uUwFjdt/czEoZL521VF3K7Ph/W5jvnmjRDPk+TbCvmTLcF2v2G6S200uLS2kxGbti1x4WVy0VyQWWeEPc+9VZ+6bILtX4+3vNRqUQ8AcGRmac2bFGF3m8rdKx5u1rpu7Vjba4mLceJVoYClTsdPf9CcJtu/X1J8V6WUI7V0iBcxxCe4nTrQksU0CzRwe/6xV0+cblPvZx2bZFmSWqC0pmpI8ENusCUsqtGa/J7estOPykZ0qKMBliuECZQwL1so8MVfKQbkGAExIGgYzrSXD/Dho6ZoP39Dbq2+5jt3bXDntrVZnt0F9849dqqC3+kKyTmacaEPe1khyCn3uFImXiRBEJCYPLwcBEW3gWcnF7mJbAIUXhQD7nsY6LmzO589/XuH8q12rJfEe2MLK+ZAoAqZiwZCkzUGfxP3HKt/fo/fN0vNEBUA0sZ/QYGRhZHZp48Tw7vpRAKI+9owvPA3Ig/omMuYLx6Ad94ebPuBHzRrpOGhT660blJSgABvkS3+ayYO8s6tKJAfE4ijqhnG2owvXdlSfEJJ3G54/5LTz6vVpc1ejZFiTIVMvSxS5JbeW+YNsmu04QdhvBerb/8aP05p/AlfeRklvYqMCYnHy/rWq5vSwl89JpLPQ+VE4dUKHoB0PJJ7dD8la/d79/yS0uR0JGMDyVEJ3MUKAWEfPZEfhMSSPGuTCcEhHzT+qL0Htu511c8PM9KKE+rQNSvhRgqv/CSHlet8duAKiL57H+rnWiabzXDR+qU3DBr1wUfG6TwVungVRNKX+WWeoiuiCgH/XrbhbvCH8oB9wfv5MZKrqJfcgaPKNoe5iGhQkYrr0rhB5R9IBs09/THH3uPTZ4wvmrdzFCcFetr17eI5KWhwLWXrvBuzS51J/3Mes64SkYOJGuKXxSgKrm3FjT/8ZfGdMHfgSVhquCqDGx9/Yv7HrM1W7arsocPiHghZ+kiiH7eAOHVRB6HjMbpKrEk/LT6oQucsxAhCJuhQHX3o8/4absmrTowRIAWBBKty0WqXNbx45r15/QiSqNS+MGR6HpQB3a4artBwslwBnxTpQS+unaTPbdpK6Al4ODyZ1h9Eaz2FfzC5ctsja7sYi7DJ5VCzQ7QYhGtN8IPneSPn/PRK33JL7XyWTIOCy+J81VNEpJPV/TCBT4xqyp9OQ63A6a4Dq+3n7xTXC4GPTGI+wvllyJhYaip+/1Nn1sfWlevXqdu4d2zR3tQDmvOIMUHH/ynfoge4eMX0ijZCXdaoTf+eAU7iZKX8MZeIsSD4qOK8BNFJsStLvzsJEU27rhokd14JRN/vRsDR3KWH3ntPcuoAzofCqjCYu667UZdIT7cJ+hSt9v5GUADQ+EfJr2Dq/ypiurA4qgXGKFwl3/esbJhTwUa4MJ6r3/lVmF/9LX7bOOOXWohteymClI5J8CMPpU9hAWBSIKPsFYKQt6b+OaTz+kyznWad9A34JyOQCJjb9wHtS/iJ5YusDk69+9KoaIXQpaAgwYuofzyC+tthoYftGaky0QRgkwLebcmBbnKjBWHyjyAJzHzKu3Qu2vRHM0H6LSgejJMBBaVOOM3ZUP+XCHJnnhX+AWkxZM0U3ne8/QL9pBWPJr8QJJA0kaKAjpRk3m4NRKQ6EikOY2a9FUP6vjgBuVXi7wIfWEU4VUdxdaVXnwotOPgAX0T8qBt6Oi24QJjqS9N+DEcdMGPOKkzRf3wyiOkeRhpuNstbsXmRvQpMPwKO8QnwgmPRt6gwaTsBVd4khvKc4TK5JO3v8uhuOUq8TSHPdv2nJNnG3eBj+4lwjFerdAvvv9dts17AVQsMSQyJgGnZTJaagQj/1HR0NKEpYJzfgtRmRvPqARIJIV5ekqIVpqvBnPBw+985dv2wiubfZaVlh7GJxoSTSixVPl5Vwp+UBDhPD4K4ksPP2l/9eQLLvwwGEHmJiTJkuKaLift0vVaY+yG+EFH8gVMntdkhwaO+PIlI4YN5AFD5WBcO1XjxYd1i9ADUjYY6CN/iaaAWx+tEP+pfj9+iU7EaRjBsiNLe5IJN8BXM1RY0qpWGaGFtOAbPb2H9Dm0v9PmLz4KihHn/YmdvHs5yM4EaMpfeAfFDJzToWge1/MaVm+6tdR3fMhITeL1Pv9/4niLDdHHNns0Sdm8X3MdB9T6i7i83CEluZ2JWTjpBlIdCEB3BrgQSF6DASbZ9S7scKoiDDDPN5aSKaLIi3LnIx/PaNfsr955i03UMjB16LWc+CtRovqYO15LOxUT4b1MV1397DtW2nodcGBvgAtHTBg7Z7ExHM30U2lUrvijojEe9u+2qUYBnwrTC01uL2RVsPQWkCuD1OWje0kYt7hyqy2bhH7z7u/Yl773iLWrFWW5Ja3lowhIA/jKH/5JUUAftO3Q6sKffv0++/tVa3Q/3jBnrrdAZEhkwGyWd6ZJAH/2hst90o0gxugIUMpnetOl3qrTeV/T2jtCxQYdECVaoIEruudxi9Dz62ytejPUOOIlmqCLH34YJjd/9Z1X+QoEx4H5vDSGXhBxwZ3yVi3vKQw4lELq9n/zqefs//nhM9akysw+AoQ8zHYIq2BRRKW0An0pn/AbHmDYRpzyKGK8fNn4c0Q9gJ6huhNQV4JJJTgM8G4kZHyrb4iU7H5NNG/Q/v56aVovn4gDetX8O77EP8cf+en1JMGC1O0BPVZ5hJ/bozu3ezj+makQ/qgiCgB4OUJ18Pk9LfYrN620qy5epjAmV183sTzza8GL3JzEQmWhQPSyj7znnfacDpts1tXKzKpTOagsfCNty849Nq6pUdt8dTGmKkalAQ/wHWpF6cozDg8FmUFmjIfpyVBeTAvCZOzs8huuijdMBfG/H3nOvqdbbd6z4ny7RMt/E3S0lZa/L+Mh/tCOLX395+GXN9i/aQchXXTO8iOrx9S+Qq9XPk81pLl42kTfx7BeAku4k+QJldIjDjPvX336Ra/uOZ5EE9DMB7CXgNNr//LE83atVivoKThPwV1U0pDroIhP+IapdQf1zYBHntanwXTfn2b+x2tzVZ1WApwKf6SUSu88jDsU1+oOxW/o8own9xzwuZV0dZXDedqB1+yB2KXt0Nuk0Dq1X6OSt7T8tSqLg9oTQQ/PRVw8GOR15lXr1GRfZ60+Wa5Pbp0YpInJIl+C0RLgia4jUgBm+9T1Z//CaNUlBAy4NPannuAV3orn7gADYConBwLO/Up5z9Ms2auFy0+0eFoxGH44yugmLVr+fVJYF+sDH3dJJjD4e52IcK/1SzzIyXQSXtM0KWg0/+btO+3jf/z/21Td6we3wsyytsSqq9vS2eMzos4wKnEy0Q6DJqnr6xNWhGX+bk9x9A4Clt4BNvmleCgaKmSXNolwlHa8BPjSmZO1hj7V99U3aksxE3XAQH+naKSibtNVWi9pY84zmnE+pNZ0glppaFKdLZlEfkYjY+9mDT+oJEEhQVcpSvI9Jjg+441i9MocIuSAbqcEw7mEY7ZfwoUpQ+c+4aH+j7YkD7KJopVZ51btZ2iXwHBGYZbK4rwxjTZdy4zjR43Qkm29t8jkCZ7R3T8iug/oqPBm7URcpZl+9kgQl+vAoRFaksmrFvRwcShbp30JFCDBunrQmwaA+Oy+bFIvADe4aP3ZTcAF5Dftedbm7for66zTZ7y1KYj4xlmHzj12YswFNurWT9lD29vt4e0tNlJLf6TvNICosGMNbvwch6cFMpkyv+DlQDG43F4tXH7KLGiSIe+Z08NqxAT+1usOyi/8l0/ZPB3lRlF53UwRB/zuq7RPjuB1VwCQRAHQlX/wiWfsrs992W6cMdEPC1EZeo2xo+AUWYluhAimugCR/+hfCDcR8NMv+GENbtnK/BMM4Yy96L7y6fCDWm5j9yITWiNUKQmjS98h/zZ15cHD/v1GhaMc+GCGG9LBkAyPZJKVdJyWEFAVxoNQjBIM2VPUhCrFzN2gdLy5Zx92lAsMFNn6hXQQ0A792MCDouBeQSYaURSk3yO+cD6Ai1Y5Okve/di08LjwkxZ4c5Pc8oY+JkG95BJYER48qBvw34nzF0KsoZPSu0zfBrxk219b99BZcS5AAdoFeOJYp7YD1Fvdbb9s924/Ymv1AU7/6CZ4iKxfEnq5Cj8Pc6f7Rn8HSEGE+n98FK/MUmZNBUWyGPiGic7g0HO4ePcPunLsOz/zfs36c9inEqIAHYAlpTIA0AqQMPCq8HytnS6IyvB1l15kv6Mu5J/o2uWrtMOMrb0+7s5mBqUqnBwqTzCyuD16AOszzXoLyJVLiKFnYCrPBOZ4YlT3D0gL9jM3AH2ss0/SWB2cKJvjtETqIaCg+LT3RPUSMB6mioYAhHxFhP6Kld1J1iOQo7fwiSB3OkEplzGu+5HNEMHJjTQHiORICIMvle4oj8wkyOSVQpM/MuLjdXmwU5BrztMkJxS6DEGH/iFr8KAwRCAZlCGz171MokEwufGydVwxQHBuS48snofgLz9O7sGNA7Ujradmilp/3eWnj334ioAmzPjo56CuHdbVrrP+3Vq9IFHiKH4SfPDkOHFjQrjbHJ5HIsM9ApjDBmKDtXjm4ZGpKX7icQ5CPRmtuvW9rXvtr269Ki75BTp6158ildfM8oYoAHLjgqoa9ZHbbrKNWjZ6SJ8ZX6DDJm3amso4Mgl5YqIzPzngqCsJBJ6KqUdSAi42CCOJkFIwmdU9gnDxjO2vo9BDEaGNFvLoIFUiuSkYJwm7/NlnT+UPYXoFYiMtQk9inn7Ah7tYDfM8gCeAhEiBxkCYAMiUjD9Js3C4dwpJjpiWnAJ02FJI8MzcITzgT95Kwg35PloeVIbPyZIiTCBFWpHegCRhLeGMtpghuRK8EFECwSmHLI6bB564/a1ho/jdXNNgh4ZNsyZd+HF88GTFpRcmeqSUhpzYb607t1vHq1IQKFeXf3CAJuAKjpR+TFdBhX9BS+5XaY/u7IU1GZLKTe5E+EdJ+Lnd9wOL56ju3yjQNPwtuJlHf83tvWfZXvMkQwIIFePpYdq59Usffq/N1BdX9upabj595F3AVDBeJSIbCz/hyOyB6fJIfvLwQicpArNfqgz+pnnTzzeGULFlRzDTRBmtCJtJeENrWpokLmPTEBbSyvFiD+7e6YcmtRQnkVxkM6M10Z3wlb3JWzKORA7evX7y6IWzGlxARjVMP3DlaToewj3/EW/oIhTpevIx/4EHOVy0Ew7f4bnDBt7L6uUBv/ml+CRRo5a+TScBW+r1EZMTWvfPjSIOrplgHbu2h3snwAMy/v3tFuEM/iHNBBPhBOzpJwbKO5gQXtg9XK4iPIKJaSF+cMPDHIQ6zYz/Hn3Se5r2wvyi6vxwbVtms1nqcUVMr+vrDVMA5DJNqk3QVuHf+Mk7rEMTUpzsY3zk3dKcg4md7hcDCntWePj5D7/w85KJftjd3yugPCk1mgu5WQobPKRWW3hZaGIjDNNlsWSJD2pqI3FT/FhZ3Q/c7h/weQUHnjTS29OLftGe6JSvYCt+VeMBE/NxsncADdl0+wDjVaGzlI8SjU5uRoPzMsWFN8nuWU78cYeCgjuVVyH4Ufidl8o/Q4ca5h5UFrvrtEV2sD7AcqJH0cISJjTAuC5Lm5tSHsvTB4Y0Azg0hHjuF+3ul+w43B6iFM/cL2rLhBaYSuGn5adOc0q1XZOgv/Hx23VfRtgA9kZ0+4t8yPKGKgBnlsvXq/qwyGz77Cdu1yaOdsmKJpk08834uu8CoBRiuBcIhSsfL4nk7wGZnwMA5D+vgAi/g1HRdJHFqPE2baIukRw5Vgog7BAMFURAsUKHeKHyJnuqvAF3oCPFCzClFq1PZZAqvuhLeCNpgUYc/oMW/WI++n07zVEQIv39wiecBf6UZkxOBBS0Jdj8XcSDPuImPpWEMcUPeZA/dHneU49A0RxPiAM8Pa4hgtlZqy9CD5utHkGbuv5cikIiGA1fNC9AtCJ/OS2R7iLMo5EXj+zxC1TJEmECRAQs4FO8kFxyVRN+9ruwLLtae19+964fsyUL5yld5U3A5xSAhgKpEK7UZ7Y/e+fN9qi+fc7SEzPwaM9UHpkls+YFE+wBX4wX41OJisLPKoZ7q3Do+vM5qdlTtCY+dbqUj2a9e3TKzBVEqdI7DsGnyptaKa/U4PWwUKGBSf6efnILZ0FPRktBX06r7I4jvanI/id6oXnAPwEOGDaBlqddlb5e9CsutHpeS/ks+YkI4sAn+ACc7CEcL+gkLMLx1g/vYToSvG9Ine2tn6k5gcMuc8zhBMOMQFj6Ax58Ib+lPDhOgBXEA5BgIqw7UjwcAESRxsovGbz1K+EoIBOE00AdZkj5xK5m+53332jXX3axh0PfG9n1T0S+YZOAiQDevoTG9kd1ud/zjqusVXvVP/vvD9lV07jWSdtpVEG8K+5lnReKe4jz0c9foZROaNatmBwknH9mu8R4n/QKYO7Gf7C2mrILbff+vQqvsa7OQ6qH6dILpU8k/VK0MlLkS3pFXaRWCJaxMm//yZrNUzrJYWIwBqTochZ4YE7CgR1DOEZ5KlX+4NXn04nVA1wDNtBVBbgSh8NAi0zp4Xb3TTg8nhy4ZQ+gITAXVk8xppH780HTGtWDDgnT1vrJNqtmsnoER3R1+DCxCzxarSEyuNEWIQU5Qxqed7fqEf4LmAga3BE8xIdxBbDs0Tg/FRJho7OERmAEUa/ZzPXEzgP2mXddbne86zpH0PfNvh78uj7eFAqAHKMl04WiH9bKQKs22vz1Q8/ayqnj/aYfmJ0YXQi8s1m+cLtMCYBRFSFKXIjH0wEJyXChKNTT0FbSIx0H7GDrfh0p1Weuw1Y04VBrlAQfGkBDkgFVwBPteLqSUbjrnCLJpHQIILL+izBHV/JLgYCSjZRYcLiPP0gTU+kffMufDpsilAdVdaWaXRkY8RSYcryyB//CIg98ohvegC/iDq9SWG+4AOuxQkRF1e459QI2Dx1ti/XF38mHn7TumklgDQa4JPwV6cXEU/ICjGl7TE/AvUqIYGwOE0JScURXwf6IIXm7Pzv9XtA235+6fKl94sdv9nqWHxgrgN9Ay5tGAcAD9uGjBNjr/6kP/Jgd0nbff9Unxy+cPFZXf4Udbs4ruJ0E3ktWhVX4KSw0rQUMla3P3gDgLOtxWEZoatkzr40lPSGS+xVJeTJCBn550isBjHgFTIx3Ag+H8+ACDosrkRgGjMOCJOISxpICcU+IJBFCildwZHGCxxk8wVWYKLDJ7WEZgKwFRPJ2ZihC9g7RIkCKEzxDfqvB5nAe7h4+LEMB7NdYf4uGARM6X9LyX7eOCofvFgxGWcOvDGfBPvcnM5548Sos0RuIWGJFUPAL3gl1guJdFhUPGYR/rba637r4PPs5zfhzp/+bTfih802lACAoKYF6fWjj0x+9Xa3/l+x+3Sa0SF8c7tIR2sLA9ULqoq/7YY+WAkY+CJD8gwwFOwUdKjFCKT/BsMbvxqU0JOFR5eldzUwQvTKgCORXCLHD6ZFoEVD4kEUI8JQDESAMON3tDqeBfDml4MBEeM+unImekAgeORD2UzQpnYCoPHIM6yXsQCVpSG/ih/8sDK/C08NLQIClBFJc3hXwcvufvLnSq15KYO2w8Ta/do6N7V5jR2tGOIuG6GOh4CvhdCIdXciUEASv8C7oSp4wuhImgioIspKJRZKgk7e7OZuxSVt8r547zT7ziQ/YcF0g4w1bPHhVAL8JLG/4KkA1HiQlwKWi/9dPfsCunTfD1uvjiLVaGSgzXiA8UsnoXTijXwqKMBRieYUMAKHSxMknvBwQ4FChfKJK3UsfEjCBRVeTFif6eXz3i/AeP+IDHrfeXkELPAl36V0+iZjihbQ8LvQQ33HEeE4jsPpBQ/o5DZkbf6ej3M+XKxW3wF8ljRJO0og/4uR5SjSVvSNNibaEO74TPSE/CbZEZ8Lv6SuOVmhthC4I3aUJ2031c7W0r5OFOiLMbcE13BUgmFAHxBv+5Awm+ePCM7o9EHcU/hjk3ulxCsLPjP823dS0TPNXv/4f7tRq0og4tK2ouwn3G/x+UyoAeJKUwCjdivpfxcgr5ky1V7SMMtQH5xnXigLLCpFgnHlBV7hdYLPKQk1xp9cYAfOOFTkG6CWYVLmzCl2CRSCIp4pcBlvyS2EBd4BPeFN6nkZKJwlb/ibtSJ8LhqcJ/RU/cCQ8KazSDZ4quBSxJOhZ2gU++XleY9ygREJ6IS54M4HO0k3peRz3j/lxWkKcQvATffGd8jhCvYDn6yZZa+15mhzUxZ9SBLX6YCgTr/x5GnrJEn5uT+7ojdPDM+F3v/jAu4rwR4w5pGMZphZ+u4T//Mnj7Lf/40esSTdI0aOkLr9ZzZtWAcCwpARG6wz7b/7Mh+2q86ZJCbS7Eog99BJfi8Km1KIpSiqWfoWbOuUVIPl7JaPuqAp5oAJ4q5KGCkV3P4YVFTpV8tK7EGDixbgJp+NFoAq8MR4CBe4MbxKwwj+HAUf+60Ngy2By+Ep7RfyCDugRbKLflVSi0cPgR8oDfIr2sryUeAY9AXeCK38X6UY+p3R5kzb852Tg8FdDL2BtwwKtBKgXoG1CQ7U5iA+JABoM9IQiLixl7gq45OQdq1EJV9FHyKEKOy3/Fh2vXqKPxPz+z99lYxsbtfb/+l3sURByipY3tQIgL4USUE/gN3/2I3b9wpm2dr/OvGt91YfteYa94IsSVoh7xFfmn8FRwF65gHUQ93B7qnzR4RXQYRUphRUVNgpFEngXBIeLFV7hHhbh8vheYyEEoUwCBDyVGfj0A1+y866kw8OIk34JXm7HleNLMJlfwleWBnETnpCmEgh5kX9QMNCa0Rvh3U+4cqGHfo/v8ISBM9JAvPgL+IANMP5WARGO/ZgmQsZqKPDUsMm2X72AwScOqAfQpWGAwjG8orWwlLmRcHmUwRFRJrb6CVX0KqFzoBAVLAg/vdPL1EtF+Mc0jlaWWdZ+04vXm28SMPK27BWUwHH/0Mhv/PSHreEf7ra7n11niyfohhiVUrhQJKnsGDXNmCVMqfDdnxLO4TSJ5261MKDxWbYCQKA+JVdqAgiKyYEld4ZYtFQCIK30VgTwuJGfr0qARP9eqVOXRiA+2VhoN/dQNACJHXF4PD0qTZlXhAXGrQRKeCtNBlYKkmcv/wo/Ma0MJEmMgyXY9AZztKd4Ed7z7wmXwpMzEVHACAQ/NmoN06Rfu3ZrPlO/wCZqMrDhuHqHUiY96g9oS5CjKOEJ8ZyPyTMDKYCdr4ULrrupBIUeBJyNPqt1B+GtS+bar/7UT9iItL//LSD8ZEzyk0otZDQxPLneTG/u60MZ9OgO+8/9yzfsfz20ypZNbPI7Inv4Em4SokR0Kj13Z47CWlhivYhuvYKtsAhDsLt/kU4KT2/AHEKv8A7RUnh6Q1CyB7gAnvzycOyRnoQzeJWejiLgKXmeqk1VvLKWFyhCWFmwO6JPtJdqkjwqwxUYoFOYkCe/FLHy7SAhVoEvOkkAcG3+tZ2aEPxIxws2q+t5+2Lj7XZgyDApB3ouRQbApB880rvMP8JE9uVxEkcrwdmdSqtPGa/SOv9PXrHUfv7D77M6feDFu/2vu/AnSmNeTuH1plsG7I92v6xDkyqsqX76rh/Xvv3h9sf3PGxLxo/WLr6hfttw2YUYqeQq+VP4F5ZYP6JbLTS2sHcAioTAW3PAQBbgXB7d6tAAlhn31YNOQECYegYRLAEIp1e81GNQcLFvAVDFBzQCuRtnYRSY+hclHUGiAzCxxjv+auAh4VJIdJd7y5V7JHvyJtD9yELkYEzXEWP38Agkz6JdSv5FUBD8RBAjikZNCP6gfp5N6NluYzQM2DtYdzUU8AmStzyr+cPfCv9UZHls7Ah/g+oaV7E9J+H/zzdfYR+//WY1TLq12Cf83vzd/jxPbykFAOFJCdAT+Nj73m1jNdP6u1/+jk3RFWFNw+v0AQ11AEtSEPLqhatHIRPRkgrdhwUCdUklSoD17cTujeDin5skchlagoHzCgWOoEjwZNMQYYUy8DTk63gDbIjrHqqQ0Ig/Lx7RuJLAO/rFV4gl0GQJyFKsKu8CsDyszDu22oVftFR1yzP8C19hCbgjUUmoPXoiNDgKOHfiSv7pjVd5oPOOCcGRmhDcqEtBdtbOstHHO+3VmsaEAEzBFHGTh96Jd1lY4nTmVURA+Dmu3nZEn4jTsd4/+ODN9r6brvHwN9P23oLgAVjeUkOAPD+M+zk7gHl81Yv22X/+pu70O2az9D319k4d4pFBEZQqjXsVhZ5ZYoBeqfTdR45KNyCFXx5esrtgVoMpRRSOAiBHGNOLol2AREuf7kR+AZA8wruad7Xa7dBZQGEtLFEoAZRf9A6vkjugiYFApgJI7xg9R5AGB4XQV8CUopYlCnYgfeKvRfsAlh1t1sTgIXuobro1sCmIwBIpuIKJPCnhLXlXA/c8qMxGSfhZ5sP85kdvi7f46kalN7zlr1bIIU8ne75lFQAZ45BQuDlYn1TavNX+7PPfsKe277XlU8ZrONDj11VxWWZlQTtTCp4VlhKvCq/CkimD4FeS4QiTQEsB5YKONkkwpBTh3CuLk/wLYgJAWdSSI0cIziLWqVt61fzokfkHq56ZXy/mitlFcM5494whehVQFf6B8AH2PABWfPpZXBzKuH/h0f32Qu2EwIqYXBkzIo9y0hLbqoHT6nPLMuf5n9/dbEsmjbXPfPS9tih+ETrMS73R3f6Ug7KcDsjxllYA5BAlgNBwl/qBloP2v//1XvvLR1+066dP8NanUxd4+hVjAFcr4TLelTkygcr8C2thyWRWfiVvp4tkMWWtPkA5XAAoeeUKwWM7gmQrvQscwVI4SxADspWzRa5yjxKOXGrcN8AW4Hm4exYhjvNkQg/KHEVBSIGmsBRBiTiUgC4bt6nHO6xFcwDaEVDiJ0CROeX4g3eGNaHzN8LPnn7qz/1b99lPX3q+/cwHbvVvXfrSpcKrXV1fhuR1cZxuySv/6t5U5L/C+bpk4MwSIQsUFkOCHrX8/3bfQ/ZbX33Alowb7XewdcR5AZervrJX8BALQIVHmbVwFMGFpVwRkKVSUHBk7oEoBFBgimhuKVwhMD0L78KSQgbwjkzpizfwoxKkstqQisOUkJRVrTysAAmWPKhIqMCXyI+RirjJPwNUWFr+o0eQs6uS3MSlquiEkvrEFV7c4vOY7vD7w/ddZ++/+TrN9PPNh3BMvLwMc3peb3vKzamn+yOhAMg2BUxvgMlBzBPPvWS//09f9yuY5o7TLTIqSFqgYoKwr5IveFlYHJ8/yrwyR2EtLL2VAQhKwbLnDpzlbgeu9EqU9IINqMmSR9EDfvTGmRCIEylclhSPd7mRT2/PAOL+5YFlAg8UiSRTWAtLWXCRUCkYBCl2mTU4yGkMrwKW86GEJPKnFDMPcjuoiEuXf3Nzu3f/f1tf6+WyGgzjfc75981bB3udH57b00rzR0YBpNyHeYGgBHbu2Wt/+aV77AvPbbCr9fUV7hlk+YbCK2QoqzwJh78LnmJJ1SJCFGG4M0dmzf2LtPqEBU1ZZE+oeiWLcL3BPc5ZexR8KSwl1PIquvMlX3lmsJm1EFTB5iCFfx+wSb5DEgmIjEd78sppwB55U55W8O4rCtFQYOwwZcz/8M79dscFc+zTH7rNZkyZTLC3/G+OLr+Tkz1OvzL8yCkAuJJaIi76SEOC3/2379ncRn3tRtcy8028xLJC7vqqGQ6YoAFK9sj/MmfmyKxlceRfCirZMs+AuCAsplPxqq4cKoDOxClh6IsljtYDM4jMWgioACvBirAyeDBmHpm15A+vYkBZOHGjieysJvhA9BXNwxQ4TKdNWUZ+SV87+m/vVZdfN/iwucfPOgjoNec5hJyWyerRKcb/kVQA8IDCRhGkDy2+uG6D/dkXvmkv7zlo8zQ3wBiPXzKFvJW8UlB4FzzOKmIutUV4ipZ5ZNZc/IEs0k3R+sXpMSpRFDFfE4vzo4IpFc5ctKqBF+H9xOstnQBnvO4VN8tt5G9WnB6Y2N5fVAARbFaLXlGX/7yxo+wzH77Nlp2/wHEE4c96jO77ZnuknJ46XT+yCiCxIu8NdOiasX/59wfscw88adNG1vumDnaSJUXgbEy87KvWpHBPIDkATvZya6AjC8OjwlnpUa4UegFXRRk8z/KzKg/KPSuFrhD2REo5uHwzj8wawPFI+Y2BvWAS4hJobxoClv6igoX5IH6HdR09G3s+dd1F/rGO0Tp4Bp3UnTdvq08Okkk8S+6Bv3/kFUBiRT438MxLa+xzX/2uvaR13WnaTszFjSiB9EVdZ2fiaX+1KMGUVdrCMyVdqtPuUxFe4QyRqnjKq4qvwKv7lhI/HVt5pt1V7pUhrQiocJYJPLGqhqc8ZIGZNUssWCN4X4JfNZmIBLRsF2cij8/A7Ww/Ygt0qOxnb7/JVl642KH8Yx2v+37+SOBpvRL/Tj3y20YBwBqEHFYxN9Bx+LAvF37+wadd8Mf714aHeKVwuNgMx1eVilvB7KplUMWzl1cvjwHIdJU4iRwFxd3CjqcMktovD5ctPQhze4rb57sfqKpBFZ4VzpBMFc8qXmUkxcycluArEq39UCn7YzpUtv+QPigqfB+65iK7453XWGr1+QgJyuGtZU6f3reVAkiFGrZuhmMQazduti9++yG7b/UmG6lPXI8f0eAVg4lC9QGLLuCAFQGJVC2Pqp5nATblqr93WBMP8nUyKauC56RRKgAqnCWMVQKqeJXgZYtsc7AqsImrVYIcjQ8BVXic3sMg+G1aEn7Hwln2oZuvtQvmn+f+7OVnhv+t0eV3krNH4kLmNUDr21IBwJtwh4DGgdo8dPTYUXvoyefs7u8/bk9u2+sHi8ZJEdBSdMfPgBcKQHELe1+1Lmd+1bKp6lmK1WdwnwGluJW2FAVasQ+E5koc7u4jYh/eAUUfgX14lyUb6T6d1h48JIHwI/hDtTekWYK/veOIXazl4A9cf5lde+lyfZeSLwmFy0g4ZPbWNamQTz0Hb1sFAKuoIPQGavRNQEzzwYP2wGPP2lcfftZe0pXOC8aMtEZ9Bhwl0O1Lh+WzwYUiIPJAKjVwVcuqqifQ5WaAYOWSXhlpoISWJz3g/FUDHGiSkdRqQg81KScnQ8cQrlZCzzbeVh0MW6vZ/UVa+bnjyuX2jisutgljx3jmjknxs3Hsrdnq5+WTOJP7Dcz+tlYAiUX0Bujuc6Ybs3XHLnvg8Wft7keft02aHb5Qk0QcA+3UteQ97AQrk/yApczrZDU0RIkRc0eyn36BJgzFuy9Up0JjgSy39IGgD+88Zpk90ncyoSfOyVAj+NzQw3l91vOf103SMzS3c8flF9qNV6ywOdOnedJ09+nGvRWu7CrjVZ+Ovgq5zwhFwDkFULBC3wORcFMpmCSkuq3fvE2KYJV9WYpglz5SsmLiGN8ffkTLRmlHYRa9zFoohJPV2rJY0dFveRII0n6BqmE9A7+UXkVmKpwDSiAj+2wIPSTQk0uCT9ms0t79cVLYH7xsqd14+XJ9eHaWoALfKOOauF18QPS+JYAypp4ivecUQAXDfFigHkFN7A2wJLR+83b73hOr7ItSBDt1GcQluoZsZN0w6zx6NA4NaFBOvxAqSDjnHAAHUB7sVaSrX6/J28P6chSCP7ZuqN0pwX/HZcttwXkz/YAY6PgqT1DuZ6OcgjIZAJmvE8jp56mKAnidaH5Dkzl508W+AaDSpSMogk3bdtqDTz1vX3nkOVvdetgundhoTT5HcNy6dewYc04ROBteswcKGjNM43sm+No6u+0ZzdfM0caun7jiQrtu5TI7b8a04lAYd/QhHgPbw3/6guREvQUfb1MFkEpqYIqA7mOpAp2w7bv32qOrVtvXHnnW7tOXX1c2jbSJ2lDEGBRFkO8jSCmde58ZBxB8lCsTe8zB7NOM/jPas3+Nvht5uyb3rly+2KZPmVQoYBQ4fYRSufWX/ttP8BM33uYKADacXAkARYWiAob5AXzMWlpbbdXL6+1bj66ye9ZutSZVzllSBhwq6Tn2qh3zShhGnyHGueepcCCVDPv02a3Zo5WYLbqSa7+6+7cumGm3XL7MVlywwMaNaSrQnvpFHW9f4Ydp5xRAqeoUtv4sqQuaK4Lunm6fJ3jo6RfsW8+usQ0aHswZ1WBjdEmpphRdEdArOGcGzgFa+XSTU8vhLtuoLbvw9N0rFtq1Fy+1BXNm+OUcCeOpn9h7ewt+4ts5BZA4UbwHJqglRUBFKlWmfc0t9tyaDfbgMy/ZQ+u32RG1WtxYPFK3y6hOs9oY+xwcNikSfVtb4As8dE5GHnGByy5t3uF7e1fPm2bXX7TYli+aZxPHj8t4FQ7seOyAJAvry+qJ9RX4tvM/pwD6LPKBS2cQ5LRtOFQwNhht3bXbVq3eYI+8uM6e2brHOqUMxtTX2gitU3PpRBhSBAI4lZiUSp8k/YgEeL6Vl0IhioEMlw5rn0WL1u/rtJa/fPpEu3LpfFtx/nybOW1ysSqD+kx8As/AzanADhzrWx3ynAI4aQkOXBGAisqJQsgnn3q0XLh15257cd0me2btRntRNxcf0L4ClrCGa96gTnMGQ6UQiqumFJ8hg+MCZ6TxrVKFK+mlO++bp5QBeMN8ylH92F2J0Hdry/W4hmF2wbSJdtHCObZ0wRybNXWy1WqrbjJhDgalcapcOFX4lOLb431OAQy4nFO1HnAEr+hAc94gGXah7dx7wDZs2W6rN261l7futi3NbdahiS3GvPWa7KqXUmDSKykF4qIMUApBMQRBSjjpO7/e1dy5kbEEueSXhD0JKqfraN0R9i6tkNALOia/EVq75xsOi2ZMtgvOm2HzZ8+wqRPHa1t26Vs1LL1icmVa5PmkltebIycl6E0JcE4BnHKxZLV+gHFdeOnjy6RLS1PUtvYO27Fnn23avss2bN9tm3btt+0tbdas9e2jilPrSqFGSmFIcbAFRVEIWOwpBOUQFAW4aWn15NGPyYWkP9jSGQjSVfIu6MEecJDH4/od5QAVgq5vNXbqDEWP8lCjOGPVwk9rGmXnTR5vcyX0c6ZPsWmTJliTvuyUG4ZOmKI3lAcOyJ7naUAR3tZA5xTAGRV/f0JTHXFQBqVNRkmQA/QJO9jWYUwk7tyz37bpt31vs+1sbrU9bYesWbsQj/jpRH0UU0MGegsMH+roLWg4wYWWftmFBC7HG3SBhhQZSe7KPHJ4FyFw5PASbpQMQs4pSRd00UKLzq9HfpgG0TJGm6MmaV/EVN3GPH3CWJshoad1nzhujL7nOKqMNpQU23NJi5Y+p8MRDuiRUzqgCOeAIgfOKYCzUhUySToFfKlnwJuKX9k7ABWXmrZ1HLKWtnZ9+KTV9vmvzfa3ttt+lELHYWuRYmjXrPlhtbpHhQt8KIKhaqoZRrCOzg876XDSgbf+3Qg8DDHkIi49D7rtdNUZq+NG8Blo0CNpkNIZrWuz2QU5Vsemx48eYePVuk9oatRJu0Yb1zTaxjSO1iUbI/zIbUil9KSVT3k+/ZYefOcEv8TV07OdUwCnx7d+Yp2eMgAhQsFkF7KGcAaFUK2Sn7CubvUGdNT10JFO3W50JPwO6S33ocP6Kexwl2D069IBGe+W683V6Jx+5E2Ljklr7gwt2C9fp1WKOo3F6yTkDVq+HF5f57+RDVrOHM6vwX8j9B4hvwaF1+tsRHWBVHou8CFPg4TfJwQ95dN5VOPH6eA5FwcOnFMAr2k9OH1lAFmuECSkvOm/e+stIc03IfVFPhNodK2PMemmN0KI3ecKJPxpxxzxQ28gbHdGOGvUjUf5cGou2dOZiL7Swx+cTPrxh3F6vadxNoT2bOBwss49Mg6cUwAZM15b65kpg0QbyiDoA5RCCWcSYt4SvQR+lt+kXfoVyBFyUj1rwg7m1yoPBdXnLHBZBVqqRedY8jpx4LVheSrKUKIhDX+ebnKSwZIYluYMgpJ5LVhVSu21wH4OZ28OnFMAvXnyBvicroS+AaSe1STPCfxZZedpICvtujiNyOeinC0OVArCj6JCqMzj2eLdOTxnwoFzCuBMuPeaxe1LWN4qiqEv+l8zhp1DfJocOKcATpNxb0y0kwnW66kgTkbLG8Ohc6meGgf+Dz7CSufA5AFsAAAAAElFTkSuQmCC;" parent="1" vertex="1">
          <mxGeometry width="180" height="180" as="geometry" />
        </mxCell>
        <mxCell id="gMLtziR7z5B5VwTfC9zV-6" value="" style="rounded=1;whiteSpace=wrap;html=1;fontSize=16;arcSize=22;strokeColor=default;connectable=0;" parent="1" vertex="1">
          <mxGeometry x="280" y="200" width="140" height="140" as="geometry" />
        </mxCell>
        <mxCell id="gMLtziR7z5B5VwTfC9zV-7" value="" style="endArrow=none;html=1;strokeColor=#000000;strokeWidth=12;fontSize=12;startSize=3;endSize=6;rounded=1;" parent="1" edge="1">
          <mxGeometry width="50" height="50" relative="1" as="geometry">
            <mxPoint x="320" y="225" as="sourcePoint" />
            <mxPoint x="320" y="245" as="targetPoint" />
            <Array as="points">
              <mxPoint x="400" y="275" />
              <mxPoint x="320" y="315" />
              <mxPoint x="330" y="280" />
            </Array>
          </mxGeometry>
        </mxCell>
        <mxCell id="gMLtziR7z5B5VwTfC9zV-8" value="" style="rounded=1;whiteSpace=wrap;html=1;fontSize=16;arcSize=22;strokeColor=default;connectable=0;" parent="1" vertex="1">
          <mxGeometry x="280" y="360" width="140" height="140" as="geometry" />
        </mxCell>
        <mxCell id="gMLtziR7z5B5VwTfC9zV-9" value="" style="endArrow=none;html=1;strokeColor=#000000;strokeWidth=12;fontSize=12;startSize=3;endSize=6;rounded=1;sourcePerimeterSpacing=0;jumpSize=5;" parent="1" edge="1">
          <mxGeometry width="50" height="50" relative="1" as="geometry">
            <mxPoint x="315" y="400" as="sourcePoint" />
            <mxPoint x="315" y="410" as="targetPoint" />
            <Array as="points">
              <mxPoint x="315" y="385" />
              <mxPoint x="335" y="385" />
              <mxPoint x="335" y="475" />
              <mxPoint x="315" y="475" />
            </Array>
          </mxGeometry>
        </mxCell>
        <mxCell id="gMLtziR7z5B5VwTfC9zV-12" value="" style="endArrow=none;html=1;strokeColor=#000000;strokeWidth=12;fontSize=12;startSize=3;endSize=6;rounded=1;" parent="1" edge="1">
          <mxGeometry width="50" height="50" relative="1" as="geometry">
            <mxPoint x="365" y="450" as="sourcePoint" />
            <mxPoint x="365" y="450" as="targetPoint" />
            <Array as="points">
              <mxPoint x="365" y="385" />
              <mxPoint x="385" y="385" />
              <mxPoint x="385" y="475" />
              <mxPoint x="365" y="475" />
            </Array>
          </mxGeometry>
        </mxCell>
        <mxCell id="gMLtziR7z5B5VwTfC9zV-13" value="" style="rounded=1;whiteSpace=wrap;html=1;fontSize=16;arcSize=22;strokeColor=default;connectable=0;" parent="1" vertex="1">
          <mxGeometry x="100" y="360" width="140" height="140" as="geometry" />
        </mxCell>
        <mxCell id="gMLtziR7z5B5VwTfC9zV-16" value="" style="endArrow=none;html=1;strokeColor=#000000;strokeWidth=12;fontSize=12;startSize=3;endSize=6;rounded=1;sourcePerimeterSpacing=0;jumpSize=5;" parent="1" edge="1">
          <mxGeometry width="50" height="50" relative="1" as="geometry">
            <mxPoint x="205" y="398" as="sourcePoint" />
            <mxPoint x="205" y="393" as="targetPoint" />
            <Array as="points">
              <mxPoint x="205" y="433" />
              <mxPoint x="205" y="478" />
              <mxPoint x="185" y="478" />
              <mxPoint x="185" y="383" />
              <mxPoint x="205" y="383" />
            </Array>
          </mxGeometry>
        </mxCell>
        <mxCell id="gMLtziR7z5B5VwTfC9zV-18" value="" style="endArrow=none;html=1;strokeColor=#000000;strokeWidth=12;fontSize=12;startSize=3;endSize=6;rounded=1;sourcePerimeterSpacing=0;jumpSize=5;" parent="1" edge="1">
          <mxGeometry width="50" height="50" relative="1" as="geometry">
            <mxPoint x="135" y="391.25" as="sourcePoint" />
            <mxPoint x="135" y="396.25" as="targetPoint" />
            <Array as="points">
              <mxPoint x="135" y="381.25" />
              <mxPoint x="155" y="381.25" />
              <mxPoint x="155" y="433.75" />
              <mxPoint x="155" y="478.75" />
              <mxPoint x="135" y="478.75" />
            </Array>
          </mxGeometry>
        </mxCell>
        <mxCell id="gMLtziR7z5B5VwTfC9zV-19" value="" style="rounded=1;whiteSpace=wrap;html=1;fontSize=16;arcSize=22;strokeColor=default;connectable=0;" parent="1" vertex="1">
          <mxGeometry x="480" y="360" width="140" height="140" as="geometry" />
        </mxCell>
        <mxCell id="gMLtziR7z5B5VwTfC9zV-20" value="" style="endArrow=none;html=1;strokeColor=#FF6666;strokeWidth=12;fontSize=12;startSize=3;endSize=6;rounded=1;sourcePerimeterSpacing=0;jumpSize=5;" parent="1" edge="1">
          <mxGeometry width="50" height="50" relative="1" as="geometry">
            <mxPoint x="585" y="400" as="sourcePoint" />
            <mxPoint x="584.9999999999995" y="393" as="targetPoint" />
            <Array as="points">
              <mxPoint x="585" y="433" />
              <mxPoint x="585" y="478" />
              <mxPoint x="565" y="478" />
              <mxPoint x="565" y="383" />
              <mxPoint x="585" y="383" />
            </Array>
          </mxGeometry>
        </mxCell>
        <mxCell id="gMLtziR7z5B5VwTfC9zV-21" value="" style="endArrow=none;html=1;strokeColor=#FF6666;strokeWidth=12;fontSize=12;startSize=3;endSize=6;rounded=1;sourcePerimeterSpacing=0;jumpSize=5;" parent="1" edge="1">
          <mxGeometry width="50" height="50" relative="1" as="geometry">
            <mxPoint x="514.9999999999995" y="391.25" as="sourcePoint" />
            <mxPoint x="515" y="400" as="targetPoint" />
            <Array as="points">
              <mxPoint x="515" y="381.25" />
              <mxPoint x="535" y="381.25" />
              <mxPoint x="535" y="433.75" />
              <mxPoint x="535" y="478.75" />
              <mxPoint x="515" y="478.75" />
            </Array>
          </mxGeometry>
        </mxCell>
        <mxCell id="gMLtziR7z5B5VwTfC9zV-22" value="" style="rounded=1;whiteSpace=wrap;html=1;fontSize=16;arcSize=22;strokeColor=default;connectable=0;" parent="1" vertex="1">
          <mxGeometry x="480" y="200" width="140" height="140" as="geometry" />
        </mxCell>
        <mxCell id="gMLtziR7z5B5VwTfC9zV-23" value="" style="endArrow=none;html=1;strokeColor=#00CC66;strokeWidth=12;fontSize=12;startSize=3;endSize=6;rounded=1;" parent="1" edge="1">
          <mxGeometry width="50" height="50" relative="1" as="geometry">
            <mxPoint x="519.9999999999998" y="225" as="sourcePoint" />
            <mxPoint x="519.9999999999998" y="245" as="targetPoint" />
            <Array as="points">
              <mxPoint x="600" y="275" />
              <mxPoint x="520" y="315" />
              <mxPoint x="530" y="280" />
            </Array>
          </mxGeometry>
        </mxCell>
        <mxCell id="0OpENhABdtjZne5vR3PH-1" value="" style="rounded=1;whiteSpace=wrap;html=1;fontSize=16;arcSize=22;strokeColor=default;connectable=0;" vertex="1" parent="1">
          <mxGeometry x="480" y="520" width="140" height="140" as="geometry" />
        </mxCell>
        <mxCell id="0OpENhABdtjZne5vR3PH-6" value="" style="ellipse;whiteSpace=wrap;html=1;aspect=fixed;fontSize=16;fillColor=none;strokeWidth=16;strokeColor=#FF6666;" vertex="1" parent="1">
          <mxGeometry x="510" y="550" width="80" height="80" as="geometry" />
        </mxCell>
        <mxCell id="0OpENhABdtjZne5vR3PH-7" value="" style="rounded=1;whiteSpace=wrap;html=1;fontSize=16;arcSize=22;strokeColor=default;connectable=0;" vertex="1" parent="1">
          <mxGeometry x="480" y="680" width="140" height="140" as="geometry" />
        </mxCell>
        <mxCell id="0OpENhABdtjZne5vR3PH-9" value="" style="endArrow=none;html=1;strokeColor=#00CC66;strokeWidth=20;fontSize=12;startSize=3;endSize=6;rounded=1;" edge="1" parent="1">
          <mxGeometry width="50" height="50" relative="1" as="geometry">
            <mxPoint x="549.6" y="795" as="sourcePoint" />
            <mxPoint x="549.6" y="705" as="targetPoint" />
            <Array as="points">
              <mxPoint x="549.6" y="795" />
              <mxPoint x="549.6" y="755" />
            </Array>
          </mxGeometry>
        </mxCell>
        <mxCell id="0OpENhABdtjZne5vR3PH-10" value="" style="rounded=1;whiteSpace=wrap;html=1;fontSize=16;arcSize=22;strokeColor=default;connectable=0;" vertex="1" parent="1">
          <mxGeometry x="480" y="840" width="140" height="140" as="geometry" />
        </mxCell>
        <mxCell id="0OpENhABdtjZne5vR3PH-11" value="" style="endArrow=none;html=1;strokeColor=#CCCC14;strokeWidth=12;fontSize=12;startSize=3;endSize=6;rounded=1;" edge="1" parent="1">
          <mxGeometry width="50" height="50" relative="1" as="geometry">
            <mxPoint x="550" y="935" as="sourcePoint" />
            <mxPoint x="537" y="899" as="targetPoint" />
            <Array as="points">
              <mxPoint x="550" y="905" />
              <mxPoint x="570" y="905" />
              <mxPoint x="580" y="895" />
              <mxPoint x="580" y="875" />
              <mxPoint x="570" y="865" />
              <mxPoint x="535" y="865" />
              <mxPoint x="525" y="875" />
              <mxPoint x="525" y="890" />
            </Array>
          </mxGeometry>
        </mxCell>
        <mxCell id="0OpENhABdtjZne5vR3PH-12" value="" style="ellipse;whiteSpace=wrap;html=1;aspect=fixed;fontSize=16;fillColor=#CCCC14;strokeWidth=12;strokeColor=none;" vertex="1" parent="1">
          <mxGeometry x="540" y="940" width="20" height="20" as="geometry" />
        </mxCell>
        <mxCell id="0OpENhABdtjZne5vR3PH-13" value="" style="rounded=1;whiteSpace=wrap;html=1;fontSize=16;arcSize=22;strokeColor=default;connectable=0;" vertex="1" parent="1">
          <mxGeometry x="640" y="520" width="140" height="140" as="geometry" />
        </mxCell>
        <mxCell id="0OpENhABdtjZne5vR3PH-15" value="" style="rounded=1;whiteSpace=wrap;html=1;fontSize=16;arcSize=22;strokeColor=default;connectable=0;" vertex="1" parent="1">
          <mxGeometry x="640" y="680" width="140" height="140" as="geometry" />
        </mxCell>
        <mxCell id="0OpENhABdtjZne5vR3PH-17" value="" style="rounded=1;whiteSpace=wrap;html=1;fontSize=16;arcSize=22;strokeColor=default;connectable=0;" vertex="1" parent="1">
          <mxGeometry x="640" y="840" width="140" height="140" as="geometry" />
        </mxCell>
        <mxCell id="0OpENhABdtjZne5vR3PH-20" value="OFF" style="text;html=1;strokeColor=none;fillColor=none;align=center;verticalAlign=middle;whiteSpace=wrap;rounded=0;fontSize=52;fontFamily=Spot Mono;fontColor=#FF6666;fontStyle=1" vertex="1" parent="1">
          <mxGeometry x="650" y="560" width="120" height="60" as="geometry" />
        </mxCell>
        <mxCell id="0OpENhABdtjZne5vR3PH-21" value="&lt;font color=&quot;#00cc66&quot; style=&quot;font-size: 52px;&quot;&gt;ON&lt;/font&gt;" style="text;html=1;strokeColor=none;fillColor=none;align=center;verticalAlign=middle;whiteSpace=wrap;rounded=0;fontSize=52;fontFamily=Spot Mono;fontColor=#FF6666;fontStyle=1" vertex="1" parent="1">
          <mxGeometry x="650" y="720" width="120" height="60" as="geometry" />
        </mxCell>
        <mxCell id="0OpENhABdtjZne5vR3PH-22" value="?" style="text;html=1;strokeColor=none;fillColor=none;align=center;verticalAlign=middle;whiteSpace=wrap;rounded=0;fontSize=120;fontFamily=Spot Mono;fontColor=#CCCC14;fontStyle=0" vertex="1" parent="1">
          <mxGeometry x="650" y="850" width="120" height="110" as="geometry" />
        </mxCell>
      </root>
    </mxGraphModel>
  </diagram>
</mxfile>
